<svg width="115" height="115" viewBox="0 0 115 115" fill="none" xmlns="http://www.w3.org/2000/svg">
<g clip-path="url(#clip0_21_50)">
<path fill-rule="evenodd" clip-rule="evenodd" d="M46.9564 69.9171L47.1345 93.5749C49.1527 91.7076 49.1824 91.2224 51.1115 89.5462C53.0555 87.3554 54.3466 86.2526 56.5725 83.6648C58.7985 81.077 60.4753 78.2392 61.2767 75.5632C62.078 72.8872 61.7812 71.9756 61.3064 70.0641C60.8315 68.1527 59.8521 66.7117 58.472 65.903C57.0771 65.0943 55.326 64.9473 53.3968 65.4472C51.5567 66.0795 50.9038 66.3294 48.9449 68.0203C48.0842 68.8731 47.9507 69.0349 46.9564 69.9171ZM42.1484 13.0882C44.0479 13.0147 44.9234 13.1617 46.8229 13.0147C46.8971 15.0438 46.8674 64.962 46.8229 64.9767C50.1173 62.7418 49.776 62.7124 53.0704 61.4773C56.3499 60.2422 59.585 59.757 62.449 60.1099C65.2982 60.448 67.6726 61.5949 69.3346 63.4328C70.9966 65.2708 72.9555 67.9321 72.9703 70.7699C72.9852 73.6076 71.516 77.1953 69.4533 79.5919C66.6338 82.8561 63.3097 85.4292 59.4662 88.0758C55.6821 90.6783 52.1503 93.3544 49.3308 95.854C46.6003 98.0595 45.2944 99.2946 42.2226 101.971C42.1484 99.5004 42 96.7509 42.0148 94.81L42.1484 13.0882Z" fill="#40514E"/>
<path fill-rule="evenodd" clip-rule="evenodd" d="M46.9564 69.9171L47.1345 93.5749C49.1527 91.7076 49.1824 91.2224 51.1115 89.5462C53.0555 87.3554 54.3466 86.2526 56.5725 83.6648C58.7984 81.077 60.4753 78.2392 61.2767 75.5632C62.078 72.8872 61.7812 71.9755 61.3063 70.0641C60.8315 68.1527 59.8521 66.7117 58.472 65.903C57.0771 65.0943 55.326 64.9473 53.3968 65.4472C51.5567 66.0795 50.9038 66.3294 48.9449 68.0203C48.0842 68.8731 47.9507 69.0349 46.9564 69.9171Z" stroke="#40514E" stroke-width="1.06666" stroke-linejoin="round"/>
<path fill-rule="evenodd" clip-rule="evenodd" d="M42.1484 13.0882C44.0479 13.0147 44.9234 13.1617 46.8229 13.0147C46.8971 15.0438 46.8674 64.962 46.8229 64.9767C50.1173 62.7418 49.776 62.7124 53.0704 61.4773C56.3499 60.2422 59.585 59.757 62.449 60.1099C65.2982 60.448 67.6726 61.5949 69.3346 63.4328C70.9966 65.2708 72.9555 67.9321 72.9703 70.7699C72.9852 73.6076 71.516 77.1953 69.4533 79.5919C66.6338 82.8561 63.3097 85.4292 59.4662 88.0758C55.6821 90.6783 52.1503 93.3544 49.3308 95.854C46.6003 98.0595 45.2944 99.2946 42.2226 101.971C42.1484 99.5004 42 96.7509 42.0148 94.81L42.1484 13.0882Z" stroke="#40514E" stroke-width="1.06666" stroke-linejoin="round"/>
</g>
<defs>
<clipPath id="clip0_21_50">
<rect width="31" height="89" fill="white" transform="translate(42 13)"/>
</clipPath>
</defs>
</svg>
