<svg width="361" height="311" viewBox="0 0 361 311" fill="none" xmlns="http://www.w3.org/2000/svg">
<g clip-path="url(#clip0_2_123)">
<path d="M87.5736 190.557C87.9372 189.451 90.6926 189.938 90.9572 188.949C91.2208 187.963 88.5767 187.137 86.5489 184.359C86.1832 183.858 83.8787 180.702 84.7625 179.375C86.4378 176.858 98.0941 183.125 100.892 179.608C101.506 178.837 101.759 177.512 103.588 175.046C104.316 174.065 104.783 173.591 105.34 173.605C106.132 173.625 106.415 174.609 107.659 176.392C109.525 179.066 110.198 178.73 111.427 180.921C112.339 182.548 112.448 183.587 113.106 183.648C114.037 183.735 114.421 181.71 115.559 181.631C116.72 181.551 117.882 183.552 118.457 185.115C119.538 188.049 118.869 190.291 118.721 192.525C118.559 194.954 118.938 198.509 121.592 203.071L146.629 242.722C141.252 234.639 125.989 212.597 119.84 204.512C118.065 202.178 116.157 199.834 113.221 199.393C110.394 198.969 106.954 200.359 102.153 200.278C101.592 200.269 100.032 200.222 99.6525 199.4C99.3387 198.721 100.118 198.13 99.8344 197.491C99.4542 196.634 97.7437 197.001 95.4127 196.432C93.769 196.031 92.6523 195.368 91.692 194.798C91.4025 194.626 87.0896 192.029 87.5736 190.557L87.5736 190.557V190.557Z" fill="#F2F2F2"/>
<path d="M153.149 199.814C153.8 199.673 154.355 201.157 154.919 201.001C155.482 200.845 155.127 199.317 155.913 197.526C156.055 197.203 156.949 195.168 157.859 195.216C159.585 195.308 159.854 202.803 162.398 203.153C162.956 203.23 163.683 202.971 165.428 203.152C166.123 203.224 166.491 203.315 166.645 203.591C166.864 203.983 166.46 204.405 165.938 205.527C165.156 207.208 165.516 207.44 164.789 208.672C164.249 209.586 163.767 209.939 163.927 210.277C164.153 210.757 165.264 210.36 165.631 210.892C166.005 211.436 165.353 212.58 164.747 213.312C163.61 214.685 162.31 215.006 161.164 215.578C159.918 216.2 158.272 217.41 156.785 220.022L144.431 243.677C146.871 238.722 153.351 224.915 155.569 219.583C156.209 218.043 156.816 216.436 156.186 214.876C155.58 213.375 153.901 212.098 152.556 209.732C152.399 209.456 151.971 208.681 152.268 208.259C152.513 207.91 153.029 208.119 153.263 207.797C153.576 207.364 152.901 206.636 152.51 205.334C152.234 204.416 152.239 203.68 152.243 203.047C152.245 202.856 152.283 200.003 153.149 199.814L153.149 199.814V199.814Z" fill="#F2F2F2"/>
<path d="M140.824 205.586L140.436 202.022L140.197 201.798C139.096 200.763 138.406 199.666 138.148 198.538C138.106 198.358 138.075 198.177 138.042 197.992C137.913 197.259 137.753 196.348 137.044 195.402C136.648 194.875 135.598 193.684 134.516 194.1C134.224 194.208 134.027 194.397 133.89 194.596C133.856 194.562 133.821 194.527 133.783 194.49C133.315 194.038 132.988 193.873 132.673 193.713C132.431 193.591 132.182 193.465 131.759 193.128C131.573 192.981 131.424 192.848 131.299 192.737C130.92 192.4 130.434 192.005 129.769 192.161C129.063 192.353 128.822 193.022 128.661 193.464C128.375 194.254 128.286 194.797 128.228 195.157C128.207 195.289 128.183 195.437 128.164 195.485C128.01 195.872 126.072 195.972 125.343 196.014C123.704 196.102 122.286 196.178 121.945 197.294C121.701 198.092 122.211 198.962 123.505 199.949C123.908 200.257 124.311 200.469 124.662 200.627C124.446 200.83 124.274 201.106 124.264 201.482C124.24 202.372 125.158 203.055 126.993 203.515C127.449 203.631 128.062 203.784 128.864 203.745C129.242 203.727 129.573 203.669 129.856 203.615C129.898 203.775 129.975 203.941 130.114 204.099C130.522 204.564 131.182 204.682 132.077 204.42C133.065 204.146 133.846 203.774 134.535 203.447C135.137 203.162 135.655 202.918 136.091 202.852C136.901 202.739 137.656 203.236 138.559 203.897L140.824 205.586H140.824V205.586Z" fill="#F2F2F2"/>
<path d="M134.361 185.287L137.928 185.818L138.206 185.646C139.493 184.849 140.735 184.464 141.899 184.502C142.084 184.508 142.269 184.523 142.457 184.539C143.203 184.601 144.13 184.678 145.23 184.236C145.844 183.989 147.269 183.282 147.139 182.136C147.107 181.827 146.974 181.59 146.814 181.408C146.857 181.384 146.899 181.359 146.945 181.332C147.503 180.997 147.747 180.724 147.982 180.462C148.163 180.26 148.349 180.052 148.783 179.731C148.974 179.59 149.141 179.48 149.281 179.388C149.705 179.109 150.212 178.742 150.229 178.063C150.221 177.336 149.632 176.934 149.242 176.667C148.546 176.192 148.04 175.969 147.705 175.821C147.582 175.768 147.444 175.707 147.402 175.677C147.065 175.43 147.459 173.542 147.603 172.83C147.933 171.232 148.218 169.849 147.219 169.239C146.504 168.801 145.528 169.07 144.239 170.064C143.838 170.374 143.529 170.708 143.286 171.005C143.144 170.746 142.919 170.511 142.555 170.405C141.695 170.157 140.798 170.866 139.885 172.514C139.656 172.923 139.352 173.474 139.186 174.255C139.108 174.623 139.08 174.956 139.061 175.241C138.895 175.241 138.713 175.273 138.525 175.367C137.969 175.641 137.687 176.245 137.715 177.173C137.73 178.192 137.894 179.037 138.038 179.783C138.163 180.434 138.268 180.994 138.223 181.43C138.127 182.237 137.452 182.837 136.579 183.538L134.361 185.287H134.361V185.287Z" fill="#F2F2F2"/>
<path d="M133.88 174.641L133.492 171.077L133.254 170.853C132.152 169.818 131.463 168.722 131.204 167.593C131.163 167.413 131.131 167.232 131.099 167.047C130.97 166.314 130.809 165.403 130.101 164.457C129.704 163.93 128.655 162.739 127.573 163.155C127.281 163.264 127.084 163.452 126.947 163.651C126.912 163.617 126.877 163.582 126.839 163.545C126.372 163.093 126.045 162.928 125.73 162.768C125.488 162.646 125.238 162.52 124.815 162.184C124.63 162.036 124.481 161.903 124.356 161.792C123.976 161.455 123.49 161.06 122.825 161.217C122.12 161.408 121.878 162.077 121.718 162.52C121.431 163.309 121.343 163.852 121.285 164.212C121.264 164.344 121.239 164.492 121.221 164.54C121.066 164.927 119.129 165.027 118.4 165.069C116.761 165.157 115.343 165.233 115.002 166.349C114.757 167.147 115.267 168.017 116.561 169.005C116.965 169.312 117.368 169.524 117.719 169.682C117.503 169.885 117.331 170.161 117.32 170.537C117.296 171.427 118.215 172.11 120.049 172.57C120.505 172.686 121.118 172.839 121.921 172.8C122.299 172.782 122.63 172.724 122.912 172.67C122.954 172.83 123.031 172.997 123.17 173.154C123.579 173.619 124.238 173.737 125.133 173.475C126.122 173.201 126.902 172.829 127.591 172.502C128.193 172.217 128.712 171.973 129.147 171.907C129.957 171.794 130.712 172.291 131.616 172.953L133.88 174.641H133.88V174.641Z" fill="#F2F2F2"/>
<path d="M145.445 242.925L146.076 242.306L146.064 241.425L146.076 242.306L146.952 242.214C146.948 242.132 146.954 241.94 146.96 241.641C146.994 240.002 147.099 235.012 146.4 227.345C145.912 221.994 145.096 216.561 143.976 211.197C142.853 205.823 141.688 201.825 140.753 198.612C140.047 196.189 139.334 193.89 138.639 191.651C136.782 185.668 135.029 180.017 133.944 173.571C133.701 172.133 133.196 169.137 134.229 165.602C134.828 163.552 135.854 161.622 137.28 159.868L135.9 158.76C134.327 160.699 133.193 162.836 132.527 165.112C131.382 169.032 131.931 172.296 132.196 173.864C133.3 180.423 135.071 186.129 136.946 192.169C137.638 194.4 138.348 196.689 139.051 199.102C139.978 202.286 141.132 206.249 142.24 211.553C143.348 216.854 144.153 222.22 144.636 227.504C145.325 235.074 145.222 239.989 145.188 241.604C145.17 242.466 145.166 242.647 145.445 242.925V242.925V242.925Z" fill="#F2F2F2"/>
<path d="M141.065 161.896C141.136 161.88 141.207 161.863 141.279 161.842C142.734 161.436 143.901 160.257 144.749 158.339C145.145 157.436 145.239 156.487 145.426 154.593C145.455 154.301 145.585 152.824 145.425 150.866C145.322 149.586 145.184 149.073 144.833 148.669C144.444 148.22 143.92 147.962 143.366 147.833C143.351 147.663 143.296 147.498 143.185 147.341C142.73 146.689 141.967 146.957 141.553 147.096C141.345 147.171 141.085 147.265 140.793 147.314C140.333 147.393 140.059 147.313 139.644 147.194C139.247 147.079 138.753 146.936 138.071 146.949C136.724 146.967 135.727 147.569 135.398 147.767C133.666 148.801 133.069 150.451 132.377 152.361C132.239 152.744 131.783 154.128 131.677 155.911C131.6 157.197 131.77 157.723 131.964 158.099C132.361 158.873 132.969 159.232 134.478 159.987C136.054 160.777 136.845 161.173 137.493 161.376C139.002 161.847 139.95 162.143 141.065 161.896L141.065 161.896H141.065Z" fill="#F2F2F2"/>
<path d="M299.925 154.628C301.095 154.579 301.601 157.315 302.626 157.215C303.647 157.115 303.499 154.364 305.406 151.503C305.75 150.987 307.917 147.736 309.477 148.094C312.435 148.772 310.613 161.82 314.906 163.193C315.849 163.494 317.186 163.266 320.15 164.105C321.33 164.439 321.939 164.708 322.121 165.232C322.38 165.976 321.552 166.584 320.307 168.367C318.441 171.041 318.993 171.55 317.36 173.462C316.147 174.881 315.205 175.345 315.378 175.979C315.622 176.877 317.665 176.526 318.138 177.557C318.62 178.61 317.141 180.393 315.87 181.476C313.484 183.51 311.137 183.672 308.98 184.317C306.635 185.017 303.418 186.615 300.049 190.684L271.456 227.883C277.189 220.046 292.613 198.115 298.077 189.557C299.655 187.087 301.195 184.49 300.582 181.602C299.992 178.821 297.477 176.105 295.872 171.607C295.684 171.082 295.181 169.613 295.823 168.971C296.353 168.441 297.183 168.96 297.686 168.472C298.36 167.818 297.415 166.354 297.134 163.984C296.937 162.314 297.171 161.042 297.371 159.948C297.432 159.618 298.368 154.693 299.925 154.628L299.925 154.628H299.925Z" fill="#F2F2F2"/>
<path d="M314.171 218.925C314.532 219.481 313.327 220.517 313.673 220.988C314.016 221.458 315.332 220.592 317.295 220.697C317.649 220.716 319.88 220.835 320.153 221.7C320.672 223.338 313.703 226.214 314.264 228.705C314.387 229.252 314.886 229.838 315.327 231.526C315.502 232.198 315.545 232.573 315.339 232.813C315.046 233.154 314.507 232.925 313.268 232.833C311.409 232.694 311.317 233.11 309.902 232.865C308.851 232.682 308.35 232.357 308.087 232.624C307.714 233.002 308.477 233.898 308.104 234.426C307.723 234.965 306.417 234.758 305.515 234.45C303.822 233.873 303.065 232.775 302.124 231.908C301.102 230.967 299.385 229.858 296.403 229.388L269.786 226.172C275.31 226.707 290.589 227.904 296.391 228.101C298.066 228.158 299.793 228.16 301.042 227.028C302.244 225.938 302.86 223.927 304.618 221.846C304.823 221.603 305.403 220.934 305.905 221.062C306.32 221.168 306.303 221.722 306.689 221.827C307.207 221.967 307.656 221.083 308.746 220.263C309.514 219.684 310.209 219.431 310.807 219.214C310.988 219.148 313.69 218.184 314.171 218.925L314.171 218.925H314.171Z" fill="#F2F2F2"/>
<path d="M304.415 209.471L307.637 207.861L307.765 207.561C308.354 206.172 309.146 205.146 310.119 204.51C310.274 204.409 310.434 204.316 310.597 204.221C311.242 203.844 312.044 203.376 312.687 202.385C313.045 201.831 313.8 200.437 313.029 199.575C312.824 199.341 312.578 199.223 312.342 199.166C312.362 199.122 312.383 199.077 312.405 199.029C312.667 198.435 312.708 198.073 312.748 197.724C312.778 197.455 312.81 197.179 312.978 196.667C313.052 196.443 313.125 196.258 313.186 196.102C313.371 195.631 313.573 195.04 313.192 194.476C312.765 193.886 312.05 193.895 311.577 193.901C310.732 193.911 310.19 194.019 309.83 194.091C309.699 194.117 309.551 194.146 309.499 194.146C309.08 194.138 308.307 192.369 308.013 191.705C307.355 190.21 306.787 188.916 305.616 188.989C304.779 189.041 304.137 189.821 303.66 191.372C303.512 191.854 303.453 192.304 303.427 192.686C303.16 192.556 302.84 192.493 302.482 192.615C301.635 192.904 301.313 193.999 301.522 195.868C301.573 196.333 301.643 196.958 301.961 197.691C302.11 198.036 302.281 198.325 302.43 198.568C302.294 198.664 302.165 198.794 302.065 198.978C301.77 199.521 301.89 200.177 302.45 200.918C303.054 201.743 303.678 202.339 304.228 202.866C304.707 203.326 305.119 203.724 305.334 204.106C305.724 204.821 305.52 205.698 305.213 206.771L304.415 209.471L304.415 209.471V209.471Z" fill="#F2F2F2"/>
<path d="M321.279 196.344L322.028 199.85L322.288 200.049C323.489 200.968 324.287 201.99 324.659 203.087C324.718 203.261 324.768 203.438 324.82 203.619C325.023 204.335 325.275 205.225 326.076 206.095C326.524 206.58 327.689 207.659 328.724 207.136C329.003 206.999 329.18 206.792 329.296 206.579C329.334 206.61 329.372 206.641 329.413 206.675C329.924 207.077 330.267 207.208 330.596 207.335C330.85 207.433 331.111 207.533 331.566 207.825C331.766 207.953 331.927 208.07 332.063 208.169C332.475 208.466 332.998 208.809 333.644 208.587C334.326 208.325 334.499 207.636 334.613 207.179C334.818 206.365 334.85 205.816 334.872 205.452C334.879 205.319 334.888 205.169 334.902 205.119C335.016 204.719 336.934 204.424 337.655 204.309C339.276 204.056 340.679 203.838 340.905 202.694C341.067 201.875 340.471 201.061 339.083 200.209C338.65 199.944 338.228 199.773 337.862 199.651C338.057 199.427 338.2 199.135 338.172 198.76C338.105 197.873 337.122 197.286 335.25 197.012C334.784 196.943 334.159 196.852 333.364 196.972C332.99 197.028 332.667 197.119 332.391 197.201C332.333 197.046 332.239 196.888 332.085 196.745C331.631 196.324 330.963 196.273 330.099 196.624C329.144 196.995 328.405 197.444 327.753 197.839C327.184 198.183 326.692 198.478 326.266 198.588C325.472 198.781 324.67 198.363 323.703 197.796L321.279 196.344L321.279 196.344H321.279Z" fill="#F2F2F2"/>
<path d="M331.142 192.167L334.364 190.557L334.492 190.257C335.081 188.869 335.873 187.843 336.846 187.207C337.001 187.105 337.161 187.012 337.323 186.917C337.969 186.54 338.771 186.072 339.414 185.081C339.772 184.527 340.527 183.133 339.756 182.271C339.551 182.037 339.305 181.92 339.069 181.862C339.089 181.818 339.109 181.773 339.132 181.725C339.393 181.132 339.435 180.769 339.474 180.42C339.505 180.152 339.536 179.875 339.705 179.363C339.779 179.139 339.852 178.954 339.913 178.799C340.098 178.327 340.3 177.737 339.919 177.172C339.492 176.582 338.777 176.592 338.304 176.597C337.459 176.607 336.917 176.715 336.557 176.787C336.426 176.813 336.277 176.843 336.226 176.842C335.807 176.834 335.034 175.065 334.739 174.401C334.082 172.906 333.513 171.613 332.343 171.686C331.505 171.737 330.864 172.517 330.387 174.068C330.239 174.551 330.18 175 330.154 175.383C329.887 175.253 329.567 175.189 329.209 175.311C328.362 175.601 328.04 176.695 328.249 178.564C328.299 179.029 328.37 179.654 328.687 180.387C328.837 180.733 329.007 181.021 329.157 181.265C329.021 181.36 328.891 181.49 328.792 181.675C328.497 182.218 328.616 182.873 329.177 183.615C329.781 184.439 330.405 185.036 330.955 185.562C331.434 186.023 331.845 186.421 332.061 186.803C332.45 187.517 332.247 188.394 331.94 189.467L331.142 192.167L331.142 192.167H331.142Z" fill="#F2F2F2"/>
<path d="M270.85 226.852L271.654 227.222L272.48 226.903L271.654 227.222L272.048 228.006C272.124 227.973 272.306 227.912 272.59 227.813C274.147 227.27 278.885 225.62 285.864 222.284C290.736 219.955 295.569 217.293 300.232 214.37C304.902 211.443 308.261 208.959 310.962 206.962C312.998 205.456 314.914 203.987 316.781 202.555C321.767 198.731 326.478 195.12 332.172 191.851C333.443 191.121 336.088 189.602 339.781 189.326C341.923 189.165 344.101 189.445 346.253 190.158L346.814 188.485C344.436 187.7 342.025 187.392 339.647 187.569C335.552 187.876 332.669 189.531 331.284 190.326C325.49 193.652 320.734 197.299 315.699 201.16C313.84 202.586 311.932 204.049 309.904 205.549C307.228 207.527 303.898 209.99 299.288 212.879C294.682 215.767 289.907 218.397 285.097 220.697C278.206 223.99 273.538 225.616 272.004 226.15C271.186 226.435 271.014 226.495 270.85 226.852L270.85 226.852L270.85 226.852Z" fill="#F2F2F2"/>
<path d="M345.668 194.392C345.707 194.452 345.749 194.513 345.794 194.572C346.686 195.785 348.205 196.458 350.31 196.576C351.299 196.629 352.227 196.384 354.077 195.894C354.362 195.819 355.799 195.423 357.589 194.589C358.758 194.044 359.194 193.735 359.451 193.268C359.739 192.748 359.798 192.17 359.725 191.609C359.88 191.536 360.016 191.426 360.126 191.268C360.58 190.616 360.06 189.999 359.784 189.663C359.641 189.495 359.461 189.286 359.313 189.031C359.077 188.631 359.057 188.348 359.024 187.92C358.993 187.51 358.954 187 358.704 186.369C358.215 185.121 357.298 184.404 356.997 184.167C355.416 182.917 353.652 182.938 351.609 182.963C351.2 182.969 349.736 183.029 348.019 183.555C346.781 183.934 346.344 184.276 346.057 184.589C345.467 185.23 345.342 185.921 345.16 187.59C344.967 189.335 344.871 190.21 344.906 190.885C344.991 192.455 345.044 193.441 345.668 194.392L345.668 194.392H345.668Z" fill="#F2F2F2"/>
<path d="M326.171 243.111C326.171 243.321 325.844 243.49 325.437 243.49H91.7579C91.3511 243.49 91.0244 243.321 91.0244 243.111C91.0244 242.901 91.3511 242.732 91.7579 242.732H325.437C325.844 242.732 326.171 242.901 326.171 243.111V243.111Z" fill="#CCCCCC"/>
<path d="M218.768 77.8729C211.184 77.8729 205.036 71.7615 205.036 64.2228C205.036 56.684 211.184 50.5726 218.768 50.5726C226.352 50.5726 232.5 56.684 232.5 64.2228C232.5 71.7615 226.352 77.8729 218.768 77.8729Z" fill="#F25259"/>
<path d="M156.856 242.467C156.779 243.119 156.756 243.728 156.801 244.325H189.829C190.129 243.728 190.385 243.108 190.607 242.467C194.645 230.934 188.004 211.738 196.425 183.275C202.677 162.155 214.346 145.635 219.786 137.938C226.472 128.473 234.047 119.737 242.824 105.783C244.726 102.764 246.684 99.4908 248.709 95.9192C249.388 94.7249 257.208 80.8697 256.496 80.4384C256.162 80.2394 254.093 83.0369 253.392 83.9769C247.207 92.2922 243.614 95.9303 238.464 101.912C235.338 105.539 231.644 110.018 226.461 116.929C213.167 134.632 206.526 143.478 204.212 150.102C203.6 151.871 200.341 161.447 194.2 173.323C191.063 179.383 189.495 182.413 188.638 182.169C186.213 181.473 189.484 156.383 199.763 131.304C201.52 127.036 202.833 124.304 205.325 119.14C209.374 110.714 231.923 63.885 248.498 35.8537C250.578 32.3263 252.569 29.1085 254.405 26.2888C254.761 25.758 255.105 25.2383 255.439 24.7407C257.753 21.3128 259.8 18.6036 261.502 16.8566C262.403 15.9277 264.694 13.296 269.289 8.01041C271.113 5.90942 272.448 4.35031 273.349 3.21134C273.483 3.04551 273.605 2.87962 273.705 2.73586C274.795 1.32051 275.107 0.634872 274.851 0.270017C274.484 -0.249731 273.071 0.048851 271.525 0.590665C271.358 0.645942 271.18 0.712284 271.013 0.778626C269.333 1.39786 267.631 2.20511 267.064 2.48156C261.858 4.96954 256.774 9.42576 252.069 14.7224C250.322 16.6796 248.642 18.7474 247.018 20.8705C241.79 27.7263 237.229 35.1902 233.78 41.3273C229.553 48.8907 227.017 54.4528 227.017 54.4528C215.214 80.361 202.121 109.996 201.431 109.741C200.675 109.465 215.192 72.5764 219.419 52.5398C220.832 45.8278 221.088 41.0066 219.23 40.0778C219.163 40.0446 219.096 40.0114 219.019 39.9893C218.729 39.8897 218.462 39.9008 218.318 39.9119C218.318 39.9119 216.593 39.6907 214.78 40.0778C212.522 40.5643 209.952 46.8119 207.449 55.5806C200.942 78.1826 194.757 117.482 194.757 117.482C188.572 156.792 179.183 188.605 176.958 188.251C175.723 188.052 177.492 178.177 175.846 161.713C174.689 150.168 173.376 150.522 169.171 129.645C162.496 96.5273 159.159 79.9739 159.159 79.8855C159.193 79.1889 159.282 77.7845 159.07 76.3249C158.848 74.7436 158.28 73.085 156.934 72.1451C154.888 70.7076 151.595 71.3269 150.26 72.1451C149.192 72.8086 148.647 74.0249 148.524 75.772C147.79 86.7634 163.676 118.632 169.171 161.713C171.908 183.176 173.409 194.886 169.171 210.366C164.977 225.715 157.669 235.49 156.857 242.467L156.856 242.467Z" fill="#CCCCCC"/>
<path d="M211.724 266.314L218.159 252.483L225.298 256.052L221.287 268.553L214.127 272.029L211.724 266.314Z" fill="#FFB6B6"/>
<path d="M262.514 226.739C261.94 226.996 260.197 228.031 258.053 227.682C256.59 227.443 255.607 226.669 255.282 226.427C251.251 223.426 238.97 220.858 229.772 223.673C227.69 224.31 226.423 225.022 225.422 226.091C224.002 227.607 223.768 229.144 222.638 232.949C222.019 235.031 221.238 237.062 220.602 239.138C216.875 251.293 214.429 253.005 215.808 255.995C217.337 259.313 222.213 261.255 224.55 260.009C225.507 259.499 225.65 258.662 226.497 256.77C228.981 251.222 230.894 251.411 232.583 247.238C234.555 242.365 233.026 239.439 234.703 238.714C236.257 238.043 237.871 240.43 242.518 242.719C244.644 243.767 246.014 244.109 250.223 245.249C266.614 249.687 267.051 250.251 269.964 250.039C271.238 249.947 280.284 249.29 281.947 244.68C284.548 237.465 267.679 224.425 262.514 226.739H262.514Z" fill="#2F2E41"/>
<path d="M215.638 267.548C214.778 267.478 213.771 267.397 213.174 266.604C212.77 266.067 212.614 265.285 212.821 264.634C213.061 263.882 213.7 263.569 213.636 263.473C213.538 263.328 211.982 263.946 210.467 265.165C210.181 265.395 208.892 266.455 207.529 268.58C206.437 270.283 206.724 270.446 206.019 271.455C203.852 274.551 200.545 273.877 199.666 276.375C199.327 277.339 199.448 278.495 200.01 279.266C201.14 280.816 203.845 280.533 205.318 280.36C208.863 279.944 211.132 278.465 213.571 277.117C221.866 272.532 227.302 272.132 227.241 269.867C227.229 269.439 227.037 269.543 225.351 266.961C223.687 264.413 223.437 263.641 222.785 263.619C221.805 263.586 221.772 265.317 219.79 266.603C218.034 267.743 216.196 267.593 215.638 267.548V267.548Z" fill="#2F2E41"/>
<path d="M240.797 293.602L238.308 278.566L246.232 277.534L249.974 290.117L246.014 296.99L240.797 293.602Z" fill="#FFB6B6"/>
<path d="M261.327 232.506C260.997 233.038 260.139 234.868 258.168 235.776C256.823 236.395 255.572 236.303 255.167 236.284C250.136 236.051 238.523 240.781 232.503 248.244C231.139 249.934 230.494 251.231 230.269 252.674C229.951 254.72 230.625 256.123 231.839 259.902C232.504 261.97 233.005 264.087 233.651 266.16C237.433 278.298 236.377 281.079 239.207 282.784C242.347 284.676 247.478 283.561 248.708 281.226C249.212 280.269 248.857 279.497 248.489 277.458C247.411 271.482 249.101 270.57 248.141 266.174C247.019 261.042 244.101 259.474 245.079 257.938C245.986 256.515 248.67 257.589 253.809 256.89C256.16 256.57 257.486 256.088 261.613 254.682C277.683 249.206 278.363 249.428 280.654 247.627C281.656 246.839 289.008 241.179 287.541 236.504C280.817 215.06 264.293 227.708 261.327 232.506V232.506Z" fill="#2F2E41"/>
<path d="M245.593 292.438C244.842 292.861 243.963 293.355 243.021 293.032C242.383 292.814 241.812 292.254 241.616 291.599C241.389 290.843 241.742 290.227 241.635 290.184C241.471 290.119 240.533 291.499 239.968 293.353C239.861 293.703 239.393 295.299 239.466 297.818C239.525 299.837 239.854 299.812 239.84 301.04C239.797 304.811 236.68 306.1 237.363 308.657C237.627 309.644 238.381 310.533 239.282 310.858C241.091 311.509 243.17 309.765 244.291 308.8C246.99 306.477 248.032 303.987 249.288 301.51C253.562 293.087 257.834 289.721 256.504 287.881C256.252 287.533 256.152 287.727 253.299 286.531C250.482 285.351 249.838 284.852 249.287 285.198C248.458 285.718 249.408 287.169 248.494 289.339C247.685 291.262 246.08 292.164 245.593 292.438H245.593Z" fill="#2F2E41"/>
<path d="M268.742 160.98L257.688 160.195L254.267 165.689L244.003 168.567L247.819 195.12L244.986 223.382C244.986 223.382 258.478 232.66 259.531 236.846C260.583 241.032 286.375 232.66 286.375 232.66L277.559 205.584L278.348 184.394L280.717 172.098L269.926 167.128L268.742 160.98H268.742Z" fill="#3F3D56"/>
<path d="M273.742 168.828C273.742 168.828 282.551 168.698 283.739 172.36C284.928 176.023 288.875 201.398 288.875 201.398L291.902 212.517L278.348 205.846L281.243 201.406L271.769 183.348L273.742 168.828V168.828Z" fill="#3F3D56"/>
<path d="M268.354 209.508C266.897 209.51 265.543 208.675 264.977 207.342C264.549 206.333 264.589 205.365 264.91 204.535C264.807 204.493 264.705 204.449 264.599 204.411C264.754 204.349 264.905 204.278 265.055 204.207C265.58 203.168 266.586 202.414 267.784 202.23C269.268 200.65 270.18 198.533 270.189 196.203C270.209 191.401 266.29 187.389 261.46 187.274C261.422 187.273 261.384 187.273 261.346 187.272C259.184 187.247 257.222 188.45 256.126 190.304C255.486 191.385 254.305 192.111 252.951 192.111C251.915 192.111 250.98 191.685 250.312 191C248.856 189.508 247.033 188.397 244.969 188.057C243.614 187.833 242.212 187.748 240.777 187.819C230.955 188.305 222.505 196.958 222.295 206.731C222.062 217.616 230.869 226.513 241.766 226.513C247.436 226.513 252.538 224.102 256.096 220.257C257.676 218.55 259.89 217.594 262.223 217.618C262.247 217.618 262.27 217.618 262.294 217.618C266.073 217.618 269.137 214.573 269.137 210.816C269.137 210.608 269.126 210.402 269.107 210.199C269.07 209.819 268.738 209.508 268.354 209.508V209.508Z" fill="#F57C00"/>
<path d="M235.976 203.753L301.508 191.457L301.771 196.166L236.766 211.601L235.976 203.753Z" fill="#F57C00"/>
<path d="M300.718 192.242L301.508 191.457C301.508 191.457 304.929 189.888 304.929 189.626C304.929 189.462 309.981 187.761 313.761 186.511C315.872 185.814 318.102 187.195 318.402 189.386L318.876 192.839C319.159 194.903 317.592 196.762 315.497 196.845L306.245 197.213L301.771 196.166L300.718 192.242Z" fill="#F57C00"/>
<path d="M236.108 205.192L235.951 204.54L301.525 192.079L301.639 192.896L236.108 205.192Z" fill="#3F3D56"/>
<path d="M236.258 206.429L236.108 205.715L301.596 193.369L301.639 194.204L236.258 206.429Z" fill="#3F3D56"/>
<path d="M236.408 207.912L236.371 206.761L301.648 194.308L301.639 194.989L236.408 207.912Z" fill="#3F3D56"/>
<path d="M236.583 209.635L236.634 208.593L301.743 195.247L301.799 195.502L236.583 209.635Z" fill="#3F3D56"/>
<path d="M236.584 210.679L236.634 209.901L301.645 195.678L301.703 195.933L236.584 210.679Z" fill="#3F3D56"/>
<path d="M274.24 167.16L270.979 165.366L269.565 194.073L270.058 197.605C270.058 197.605 278.29 175.041 274.24 167.16H274.24Z" fill="#8B83FF"/>
<path d="M262.224 158.233C257.718 158.233 254.065 154.602 254.065 150.124C254.065 145.645 257.718 142.014 262.224 142.014C266.73 142.014 270.382 145.645 270.382 150.124C270.382 154.602 266.73 158.233 262.224 158.233Z" fill="#FFB6B6"/>
<path d="M270.058 154.963L268.107 156.511L270.321 148.161C270.321 148.161 264.136 148.031 263.61 144.63C263.61 144.63 258.741 144.499 257.425 144.499C256.109 144.499 255.516 153.154 255.516 153.154C255.516 153.154 252.951 146.069 255.583 142.406C258.215 138.744 257.294 140.967 257.82 139.659C258.346 138.351 263.742 137.148 267.163 138.482C270.584 139.816 270.716 141.717 271.769 141.735C272.821 141.752 276.506 146.984 273.084 151.17C269.663 155.356 270.058 154.963 270.058 154.963V154.963Z" fill="#2F2E41"/>
<path d="M244.273 208.181C243.306 207.415 242.593 206.494 242.192 205.584L232.515 198.856L235.871 194.373L245.325 201.681C246.307 201.868 247.368 202.354 248.335 203.121C250.544 204.873 251.426 207.426 250.304 208.824C249.182 210.221 246.482 209.934 244.273 208.181V208.181V208.181Z" fill="#FFB6B6"/>
<path d="M281.345 197.947C282.063 198.949 282.493 200.029 282.627 201.013L290.069 210.127L285.603 213.52L278.535 203.91C277.643 203.462 276.757 202.704 276.039 201.702C274.4 199.414 274.259 196.718 275.724 195.681C277.189 194.644 279.706 195.659 281.345 197.947L281.345 197.947Z" fill="#FFB6B6"/>
<path d="M248.214 170.267C248.214 170.267 245.845 166.343 243.477 168.698C241.602 170.561 231.324 182.416 227.115 187.283C225.955 188.625 225.317 190.336 225.317 192.105V192.105C225.317 194.843 226.838 197.357 229.27 198.641L242.424 205.584L246.109 200.09L234.792 191.981L252.162 182.563L248.214 170.267H248.214Z" fill="#3F3D56"/>
<path d="M289.807 206.429L291.902 212.517L285.849 215.656L281.243 212.517L278.348 205.846L286.901 203.36" fill="#3F3D56"/>
</g>
<g clip-path="url(#clip1_2_123)">
<path d="M78.8567 292.812L74.5795 292.812L72.5448 276.359L78.8576 276.36L78.8567 292.812Z" fill="#A0616A"/>
<path d="M64.2024 292.716C64.0692 292.939 63.999 293.661 63.999 293.921C63.999 294.721 64.6489 295.369 65.4507 295.369H78.6967C79.2437 295.369 79.6871 294.927 79.6871 294.381V293.831C79.6871 293.831 80.3424 292.179 78.9933 290.141C78.9933 290.141 77.3166 291.736 74.8111 289.238L74.0722 287.903L68.724 291.804L65.7596 292.168C65.1111 292.247 64.5361 292.155 64.2025 292.716H64.2024V292.716Z" fill="#2F2E41"/>
<path d="M59.6925 292.812L55.4153 292.812L53.3806 276.359L59.6934 276.36L59.6925 292.812Z" fill="#A0616A"/>
<path d="M45.0382 292.716C44.905 292.939 44.8348 293.661 44.8348 293.921C44.8348 294.721 45.4847 295.369 46.2865 295.369H59.5325C60.0795 295.369 60.5229 294.927 60.5229 294.381V293.831C60.5229 293.831 61.1782 292.179 59.8291 290.141C59.8291 290.141 58.1524 291.736 55.6469 289.238L54.908 287.903L49.5598 291.804L46.5954 292.168C45.9469 292.247 45.3719 292.155 45.0383 292.716H45.0382V292.716Z" fill="#2F2E41"/>
<path d="M79.224 189.592L83.2062 199.769L80.0951 281.055H71.3841L63.5442 207.711L61.6775 281.303L53.2154 281.055L44.0067 199.396L50.1044 192.074L79.224 189.592Z" fill="#2F2E41"/>
<path d="M60.4331 131.885L70.8863 131.14L74.1218 136.353L83.8284 139.083L80.2195 164.276L84.0773 201.878C84.0773 201.878 70.1397 199.893 69.1441 203.864C68.1486 207.835 43.7578 199.893 43.7578 199.893L52.0955 174.204L51.3488 154.099L49.1088 142.434L59.3131 137.718L60.4331 131.885V131.885Z" fill="#E6E6E6"/>
<path d="M55.7043 139.331C55.7043 139.331 47.3745 139.207 46.2506 142.682C45.1266 146.157 41.3934 170.232 41.3934 170.232L38.5312 180.781L51.3488 174.452L48.611 170.239L57.5709 153.106L55.7043 139.331H55.7043Z" fill="#E6E6E6"/>
<path d="M60.8002 177.927C62.1775 177.928 63.4579 177.136 63.9934 175.871C64.3984 174.914 64.3602 173.996 64.0572 173.209C64.1547 173.168 64.2513 173.126 64.3512 173.091C64.2045 173.031 64.062 172.965 63.9195 172.897C63.4234 171.911 62.4722 171.196 61.3392 171.022C59.9359 169.523 59.0733 167.514 59.0643 165.303C59.0458 160.747 62.752 156.941 67.3195 156.832C67.3554 156.831 67.3913 156.83 67.4272 156.83C69.4725 156.807 71.3278 157.947 72.3641 159.706C72.9687 160.732 74.0861 161.421 75.3663 161.421C76.3463 161.421 77.2304 161.017 77.8624 160.367C79.2393 158.951 80.9635 157.897 82.9147 157.574C84.196 157.362 85.5222 157.282 86.8791 157.349C96.1676 157.81 104.159 166.019 104.357 175.292C104.578 185.619 96.2495 194.06 85.9439 194.06C80.5816 194.06 75.7568 191.773 72.392 188.125C70.8981 186.505 68.8048 185.598 66.5983 185.621C66.5758 185.621 66.5533 185.621 66.5308 185.621C62.957 185.621 60.0598 182.732 60.0598 179.168C60.0598 178.97 60.0696 178.775 60.0881 178.582C60.1227 178.222 60.4372 177.926 60.8002 177.927L60.8002 177.927Z" fill="#F57C00"/>
<path d="M181.175 246.652C180.723 245.891 178.767 246.705 178.408 246.015C178.05 245.328 179.867 244.28 180.905 241.888C181.092 241.456 182.272 238.737 181.399 237.898C179.743 236.307 172.167 242.871 169.516 240.723C168.934 240.252 168.528 239.311 166.767 237.783C166.066 237.175 165.643 236.901 165.233 237.003C164.651 237.148 164.605 237.924 163.981 239.451C163.046 241.74 162.493 241.602 161.947 243.428C161.543 244.784 161.635 245.573 161.159 245.726C160.485 245.943 159.865 244.505 159.011 244.634C158.14 244.765 157.613 246.44 157.447 247.694C157.135 250.047 158.001 251.599 158.481 253.232C159.003 255.006 159.313 257.704 158.108 261.523L146.179 295.04C148.813 288.163 156.438 269.309 159.642 262.303C160.567 260.281 161.588 258.23 163.685 257.42C165.704 256.64 168.477 257.106 172.012 256.257C172.425 256.157 173.57 255.867 173.715 255.195C173.834 254.639 173.16 254.329 173.263 253.809C173.402 253.111 174.727 253.102 176.356 252.297C177.504 251.729 178.22 251.054 178.835 250.473C179.02 250.298 181.777 247.664 181.175 246.652V246.652Z" fill="#F2F2F2"/>
<path d="M134.244 264.296C133.74 264.298 133.576 265.49 133.133 265.467C132.691 265.444 132.7 264.253 131.822 263.054C131.663 262.838 130.666 261.476 130.001 261.661C128.74 262.013 129.785 267.614 127.963 268.292C127.563 268.441 126.982 268.369 125.722 268.79C125.221 268.957 124.964 269.085 124.896 269.315C124.799 269.642 125.168 269.889 125.739 270.634C126.596 271.753 126.369 271.984 127.11 272.777C127.661 273.367 128.075 273.549 128.014 273.826C127.926 274.219 127.039 274.107 126.856 274.562C126.67 275.027 127.342 275.768 127.911 276.211C128.979 277.043 129.993 277.067 130.935 277.303C131.959 277.559 133.376 278.186 134.908 279.878L147.962 295.387C145.337 292.114 138.258 282.942 135.735 279.352C135.006 278.316 134.291 277.224 134.498 275.964C134.697 274.751 135.726 273.528 136.328 271.553C136.398 271.322 136.585 270.677 136.296 270.413C136.057 270.194 135.71 270.435 135.484 270.234C135.181 269.965 135.559 269.313 135.632 268.284C135.684 267.558 135.558 267.013 135.45 266.545C135.417 266.403 134.916 264.294 134.244 264.296V264.296Z" fill="#F2F2F2"/>
<path d="M144.311 266.55L144.007 263.843L144.146 263.638C144.789 262.689 145.116 261.763 145.12 260.883C145.121 260.744 145.114 260.604 145.108 260.461C145.081 259.897 145.049 259.195 145.416 258.377C145.621 257.921 146.199 256.865 147.068 256.996C147.302 257.028 147.479 257.136 147.613 257.261C147.633 257.23 147.653 257.198 147.675 257.164C147.945 256.753 148.16 256.576 148.366 256.406C148.525 256.276 148.688 256.141 148.945 255.822C149.058 255.682 149.146 255.56 149.22 255.456C149.444 255.144 149.738 254.772 150.256 254.778C150.809 254.804 151.098 255.26 151.29 255.562C151.633 256.101 151.788 256.489 151.891 256.746C151.928 256.84 151.971 256.946 151.992 256.979C152.171 257.24 153.619 256.996 154.165 256.907C155.391 256.703 156.452 256.527 156.889 257.298C157.202 257.849 156.969 258.578 156.177 259.523C155.93 259.817 155.667 260.041 155.434 260.216C155.627 260.331 155.8 260.507 155.87 260.784C156.035 261.44 155.47 262.097 154.19 262.74C153.872 262.901 153.444 263.115 152.845 263.219C152.563 263.267 152.308 263.279 152.091 263.285C152.086 263.411 152.057 263.547 151.98 263.687C151.755 264.098 151.287 264.294 150.582 264.247C149.807 264.207 149.168 264.059 148.604 263.93C148.112 263.817 147.688 263.722 147.356 263.744C146.738 263.794 146.263 264.286 145.705 264.925L144.311 266.55V266.55Z" fill="#F2F2F2"/>
<path d="M145.721 250.436L143.173 251.416L142.939 251.334C141.856 250.954 140.874 250.873 140.02 251.093C139.884 251.127 139.75 251.169 139.614 251.212C139.073 251.38 138.4 251.59 137.514 251.443C137.019 251.361 135.849 251.071 135.755 250.2C135.727 249.966 135.786 249.768 135.874 249.607C135.839 249.596 135.803 249.584 135.764 249.572C135.297 249.415 135.071 249.253 134.854 249.097C134.687 248.977 134.515 248.853 134.14 248.687C133.976 248.613 133.835 248.56 133.716 248.515C133.356 248.377 132.92 248.188 132.795 247.687C132.68 247.147 133.049 246.752 133.293 246.49C133.729 246.023 134.066 245.775 134.289 245.611C134.371 245.551 134.463 245.483 134.489 245.454C134.698 245.215 134.093 243.88 133.869 243.376C133.36 242.245 132.92 241.267 133.557 240.65C134.012 240.208 134.778 240.247 135.896 240.772C136.244 240.936 136.527 241.133 136.756 241.313C136.819 241.098 136.946 240.886 137.197 240.748C137.791 240.422 138.572 240.801 139.52 241.872C139.757 242.138 140.073 242.496 140.326 243.049C140.444 243.309 140.52 243.551 140.582 243.759C140.704 243.732 140.844 243.726 140.999 243.764C141.455 243.877 141.764 244.278 141.897 244.97C142.055 245.729 142.073 246.382 142.091 246.959C142.107 247.462 142.122 247.895 142.228 248.21C142.432 248.793 143.031 249.127 143.792 249.504L145.721 250.436L145.721 250.436Z" fill="#F2F2F2"/>
<path d="M144.311 242.463L144.007 239.756L144.146 239.551C144.789 238.602 145.116 237.676 145.12 236.796C145.121 236.657 145.114 236.517 145.108 236.374C145.081 235.81 145.049 235.108 145.416 234.29C145.621 233.834 146.199 232.778 147.068 232.909C147.302 232.941 147.479 233.049 147.613 233.174C147.633 233.143 147.653 233.111 147.675 233.077C147.945 232.666 148.16 232.489 148.366 232.319C148.525 232.189 148.688 232.054 148.945 231.735C149.058 231.595 149.146 231.473 149.22 231.369C149.444 231.057 149.738 230.685 150.256 230.691C150.809 230.717 151.098 231.173 151.29 231.475C151.633 232.014 151.788 232.402 151.891 232.659C151.928 232.753 151.971 232.859 151.992 232.892C152.171 233.153 153.619 232.909 154.165 232.82C155.391 232.616 156.452 232.44 156.889 233.211C157.202 233.762 156.969 234.491 156.177 235.436C155.93 235.73 155.667 235.954 155.434 236.129C155.627 236.244 155.8 236.42 155.87 236.697C156.035 237.353 155.47 238.011 154.19 238.653C153.872 238.814 153.444 239.028 152.845 239.132C152.563 239.18 152.308 239.192 152.091 239.198C152.086 239.324 152.057 239.46 151.98 239.6C151.755 240.011 151.287 240.207 150.582 240.16C149.807 240.12 149.168 239.972 148.604 239.843C148.112 239.73 147.688 239.635 147.356 239.657C146.738 239.707 146.263 240.199 145.705 240.838L144.311 242.463V242.463Z" fill="#F2F2F2"/>
<path d="M147.088 294.996L146.519 294.641L146.381 293.986L146.519 294.641L145.856 294.717C145.845 294.655 145.809 294.514 145.755 294.293C145.458 293.083 144.553 289.4 143.799 283.601C143.272 279.552 142.974 275.39 142.912 271.228C142.851 267.059 143.048 263.903 143.207 261.367C143.327 259.454 143.472 257.632 143.615 255.857C143.995 251.116 144.354 246.638 144.087 241.68C144.028 240.573 143.904 238.269 142.554 235.818C141.771 234.396 140.693 233.133 139.348 232.067L140.185 231.019C141.669 232.198 142.862 233.596 143.731 235.175C145.228 237.893 145.363 240.403 145.427 241.609C145.699 246.655 145.336 251.177 144.952 255.963C144.811 257.731 144.665 259.545 144.546 261.451C144.389 263.964 144.193 267.092 144.254 271.207C144.314 275.32 144.609 279.431 145.129 283.428C145.874 289.155 146.766 292.782 147.059 293.974C147.215 294.611 147.248 294.744 147.088 294.996V294.996Z" fill="#F2F2F2"/>
<path d="M136.888 234.193C136.833 234.193 136.777 234.192 136.72 234.188C135.578 234.127 134.52 233.445 133.575 232.161C133.132 231.558 132.905 230.869 132.453 229.495C132.383 229.284 132.042 228.209 131.835 226.731C131.7 225.766 131.717 225.362 131.909 225.005C132.122 224.608 132.466 224.331 132.854 224.144C132.837 224.016 132.851 223.884 132.907 223.749C133.135 223.191 133.743 223.265 134.072 223.3C134.239 223.321 134.446 223.348 134.67 223.336C135.023 223.319 135.212 223.215 135.499 223.058C135.774 222.908 136.115 222.721 136.622 222.618C137.62 222.41 138.457 222.692 138.733 222.785C140.184 223.267 140.899 224.392 141.728 225.695C141.893 225.957 142.459 226.908 142.833 228.212C143.103 229.153 143.065 229.571 142.984 229.882C142.819 230.521 142.429 230.887 141.439 231.695C140.405 232.54 139.886 232.964 139.441 233.221C138.404 233.818 137.752 234.193 136.888 234.193V234.193Z" fill="#F2F2F2"/>
<path d="M91.4194 172.466L29.4469 160.801L29.198 165.268L90.6727 179.912L91.4194 172.466Z" fill="#F57C00"/>
<path d="M30.1935 161.545L29.4469 160.801C29.4469 160.801 26.2113 159.311 26.2113 159.063C26.2113 158.908 21.4336 157.294 17.859 156.108C15.8627 155.446 13.7544 156.756 13.4702 158.835L13.0222 162.111C12.7544 164.07 14.2364 165.833 16.2171 165.912L24.9669 166.261L29.198 165.268L30.1935 161.545V161.545Z" fill="#F57C00"/>
<path d="M91.2949 173.831L91.4427 173.213L29.4306 161.39L29.3224 162.166L91.2949 173.831Z" fill="#3F3D56"/>
<path d="M91.1529 175.005L91.2949 174.328L29.3631 162.614L29.3224 163.407L91.1529 175.005Z" fill="#3F3D56"/>
<path d="M91.0108 176.413L91.046 175.321L29.3145 163.505L29.3224 164.151L91.0108 176.413Z" fill="#3F3D56"/>
<path d="M90.8454 178.047L90.7972 177.058L29.2245 164.396L29.1715 164.638L90.8454 178.047Z" fill="#3F3D56"/>
<path d="M90.8443 179.038L90.7972 178.299L29.3171 164.805L29.2619 165.047L90.8443 179.038Z" fill="#3F3D56"/>
<path d="M55.234 137.749L58.3176 136.046L59.6551 163.283L59.1887 166.633C59.1887 166.633 51.4037 145.226 55.2339 137.749H55.234Z" fill="#8B83FF"/>
<path d="M65.7842 129.279C70.0453 129.279 73.4996 125.834 73.4996 121.585C73.4996 117.335 70.0453 113.89 65.7842 113.89C61.523 113.89 58.0687 117.335 58.0687 121.585C58.0687 125.834 61.523 129.279 65.7842 129.279Z" fill="#A0616A"/>
<path d="M59.1887 126.176L61.0332 127.645L58.9398 119.723C58.9398 119.723 64.7886 119.599 65.2864 116.372C65.2864 116.372 69.8908 116.248 71.1352 116.248C72.3796 116.248 72.9411 124.46 72.9411 124.46C72.9411 124.46 75.3663 117.737 72.8774 114.263C70.3885 110.788 71.2596 112.897 70.7619 111.656C70.2641 110.415 65.1619 109.274 61.9264 110.54C58.6909 111.805 58.5665 113.609 57.5709 113.625C56.5754 113.642 53.091 118.606 56.3265 122.577C59.562 126.549 59.1887 126.176 59.1887 126.176V126.176Z" fill="#2F2E41"/>
<path d="M82.7599 176.668C83.6744 175.94 84.3483 175.067 84.728 174.204L93.8789 167.82L90.7057 163.567L81.7647 170.5C80.8364 170.678 79.8329 171.139 78.9184 171.867C76.8292 173.529 75.9956 175.952 77.0564 177.277C78.1172 178.603 80.6707 178.33 82.7599 176.668V176.668Z" fill="#A0616A"/>
<path d="M47.7014 166.958C47.0228 167.909 46.6158 168.933 46.4887 169.867L39.451 178.514L43.6749 181.733L50.3591 172.615C51.2027 172.19 52.0402 171.471 52.7188 170.521C54.269 168.349 54.4024 165.792 53.0169 164.808C51.6314 163.824 49.2516 164.787 47.7014 166.958L47.7014 166.958Z" fill="#A0616A"/>
<path d="M79.8462 140.696C79.8462 140.696 82.0862 136.973 84.3261 139.207C86.0986 140.975 95.819 152.223 99.7991 156.84C100.897 158.114 101.499 159.736 101.499 161.416C101.499 164.013 100.061 166.398 97.7609 167.616L85.3217 174.204L81.8373 168.991L92.5394 161.297L76.1129 152.362L79.8462 140.696V140.696Z" fill="#E6E6E6"/>
<path d="M40.5125 175.005L38.5312 180.781L44.2555 183.759L48.611 180.781L51.3488 174.452L43.26 172.094" fill="#E6E6E6"/>
<path d="M133.057 119.65L114.254 124.744L116.99 136.911C116.105 136.319 115.041 135.973 113.896 135.973C110.825 135.973 108.335 138.456 108.335 141.518C108.335 144.581 110.825 147.064 113.896 147.064C116.967 147.064 119.456 144.581 119.456 141.518C119.456 140.454 119.15 139.463 118.629 138.618L116.46 128.972L132.681 123.886L134.164 131.072C133.274 130.468 132.199 130.114 131.041 130.114C127.97 130.114 125.48 132.597 125.48 135.659C125.48 138.722 127.97 141.205 131.041 141.205C134.112 141.205 136.601 138.722 136.601 135.659C136.601 134.584 136.289 133.583 135.757 132.732L133.057 119.65V119.65Z" fill="#F57C00"/>
<path d="M151.497 131.024C148.458 131.024 145.994 133.481 145.994 136.512C145.994 137.368 146.197 138.176 146.548 138.899L149.688 151.819L151.471 151.388L149.048 141.421C149.787 141.788 150.616 141.999 151.497 141.999C154.536 141.999 157 139.542 157 136.512C157 133.481 154.536 131.024 151.497 131.024V131.024Z" fill="#F57C00"/>
<path d="M173.891 159.499L170.773 147.064L168.88 147.507L171.319 157.234C170.569 156.896 169.736 156.701 168.853 156.701C165.626 156.701 163.01 159.23 163.01 162.35C163.01 165.47 165.626 168 168.853 168C172.08 168 174.696 165.47 174.696 162.35C174.696 161.309 174.399 160.337 173.891 159.499V159.499Z" fill="#F57C00"/>
<path d="M182.049 295.446C182.049 295.658 181.877 295.829 181.664 295.829H0V295.062H181.664C181.877 295.062 182.049 295.234 182.049 295.446L182.049 295.446Z" fill="#E6E6E6"/>
</g>
<defs>
<clipPath id="clip0_2_123">
<rect width="356.512" height="311" fill="white" transform="matrix(-1 0 0 1 360.305 0)"/>
</clipPath>
<clipPath id="clip1_2_123">
<rect width="182.049" height="185.841" fill="white" transform="translate(0 109.988)"/>
</clipPath>
</defs>
</svg>
