<svg width="258" height="130" viewBox="0 0 258 130" fill="none" xmlns="http://www.w3.org/2000/svg">
<g clip-path="url(#clip0_9_10)">
<path d="M36.8219 27.2097C20.302 38.2527 13.7358 50.8203 17.7627 63.7802C20.0777 71.2415 25.182 77.6223 35.0405 85.3711C37.9679 87.6877 45.3294 92.6169 49.0531 94.7706C61.7402 102.095 74.9128 106.955 82.2433 106.984C85.641 106.993 88.4335 106.102 90.1205 104.471C93.4785 101.218 95.9676 94.5867 97.4435 84.9156C99.9643 68.5357 98.8238 48.1642 94.7341 35.9401C92.3042 28.7571 88.5158 23.3337 83.4791 19.8606C80.9824 18.1433 78.979 17.2436 75.8692 16.4103C68.3888 14.4329 60.2959 15.5437 49.7497 20.0427C47.12 21.1793 39.8122 25.2289 36.8219 27.2097Z" fill="#00AFE7"/>
</g>
<path d="M40.736 77.612C37.184 77.612 34.472 76.496 32.6 74.264C30.752 72.008 29.828 68.744 29.828 64.472C29.828 61.712 30.332 59.348 31.34 57.38C32.348 55.412 33.728 53.924 35.48 52.916C37.256 51.908 39.236 51.404 41.42 51.404C43.124 51.404 44.6 51.68 45.848 52.232C47.12 52.76 48.284 53.516 49.34 54.5L46.244 57.704C45.452 57.008 44.708 56.504 44.012 56.192C43.34 55.88 42.572 55.724 41.708 55.724C39.908 55.724 38.492 56.444 37.46 57.884C36.428 59.3 35.912 61.508 35.912 64.508C35.912 67.724 36.296 69.992 37.064 71.312C37.832 72.632 39.068 73.292 40.772 73.292C41.9 73.292 42.932 73.04 43.868 72.536V66.812H40.736L40.16 62.708H49.448V75.092C46.712 76.772 43.808 77.612 40.736 77.612ZM70.6739 68.648C70.6739 70.376 70.3259 71.924 69.6299 73.292C68.9339 74.636 67.8899 75.692 66.4979 76.46C65.1059 77.228 63.4019 77.612 61.3859 77.612C58.3619 77.612 56.0579 76.808 54.4739 75.2C52.8899 73.592 52.0979 71.408 52.0979 68.648V52.052H58.0379V66.452C58.0379 68.06 58.1219 69.344 58.2899 70.304C58.4579 71.264 58.7819 71.996 59.2619 72.5C59.7659 72.98 60.4739 73.22 61.3859 73.22C62.2979 73.22 62.9939 72.98 63.4739 72.5C63.9779 71.996 64.3139 71.264 64.4819 70.304C64.6499 69.344 64.7339 68.06 64.7339 66.452V52.052H70.6739V68.648ZM91.0719 56.372H85.9239V72.644H91.0719V77H74.8719V72.644H80.0199V56.372H74.8719V52.052H91.0719V56.372Z" fill="white"/>
<path d="M119.716 77H113.812V56.588H106.792V52.052H126.988L126.412 56.588H119.716V77ZM144.686 57.308C145.838 57.308 146.894 57.5 147.854 57.884L146.81 65.876H143.21V62.348C142.154 62.54 141.218 63.116 140.402 64.076C139.586 65.036 138.95 66.248 138.494 67.712V73.184H142.274V77H130.286V73.184H132.806V61.664H130.286V57.884H137.162L138.17 62.168C138.866 60.536 139.742 59.324 140.798 58.532C141.854 57.716 143.15 57.308 144.686 57.308ZM167.784 71.492C167.784 72.188 167.88 72.704 168.072 73.04C168.264 73.376 168.588 73.628 169.044 73.796L167.856 77.54C166.704 77.42 165.744 77.168 164.976 76.784C164.208 76.376 163.608 75.788 163.176 75.02C162.456 75.86 161.544 76.508 160.44 76.964C159.336 77.396 158.16 77.612 156.912 77.612C154.944 77.612 153.372 77.06 152.196 75.956C151.02 74.828 150.432 73.376 150.432 71.6C150.432 69.536 151.248 67.94 152.88 66.812C154.512 65.66 156.804 65.084 159.756 65.084H162.312V64.4C162.312 62.432 161.052 61.448 158.532 61.448C157.884 61.448 157.068 61.544 156.084 61.736C155.124 61.904 154.188 62.144 153.276 62.456L151.98 58.676C153.204 58.22 154.476 57.872 155.796 57.632C157.14 57.368 158.352 57.236 159.432 57.236C165 57.236 167.784 59.492 167.784 64.004V71.492ZM158.856 73.544C159.504 73.544 160.152 73.364 160.8 73.004C161.472 72.62 161.976 72.104 162.312 71.456V68.324H160.908C157.836 68.324 156.3 69.284 156.3 71.204C156.3 71.948 156.516 72.524 156.948 72.932C157.404 73.34 158.04 73.544 158.856 73.544ZM173.278 57.884H178.246L178.642 60.08C179.506 59.12 180.406 58.412 181.342 57.956C182.302 57.476 183.382 57.236 184.582 57.236C186.238 57.236 187.522 57.74 188.434 58.748C189.37 59.756 189.838 61.16 189.838 62.96V77H184.15V64.616C184.15 63.416 184.018 62.588 183.754 62.132C183.49 61.676 183.01 61.448 182.314 61.448C181.738 61.448 181.174 61.64 180.622 62.024C180.094 62.384 179.542 62.924 178.966 63.644V77H173.278V57.884ZM202.532 73.544C203.516 73.544 204.284 73.4 204.836 73.112C205.412 72.8 205.7 72.344 205.7 71.744C205.7 71.312 205.58 70.964 205.34 70.7C205.124 70.436 204.704 70.184 204.08 69.944C203.456 69.68 202.484 69.368 201.164 69.008C199.244 68.504 197.78 67.808 196.772 66.92C195.764 66.008 195.26 64.76 195.26 63.176C195.26 61.424 195.98 59.996 197.42 58.892C198.884 57.788 200.924 57.236 203.54 57.236C206.564 57.236 209.144 58.016 211.28 59.576L209.012 62.924C207.26 61.844 205.496 61.304 203.72 61.304C202.784 61.304 202.088 61.424 201.632 61.664C201.2 61.904 200.984 62.276 200.984 62.78C200.984 63.116 201.092 63.404 201.308 63.644C201.548 63.86 201.98 64.088 202.604 64.328C203.252 64.568 204.212 64.868 205.484 65.228C206.852 65.612 207.968 66.032 208.832 66.488C209.72 66.944 210.404 67.556 210.884 68.324C211.364 69.092 211.604 70.076 211.604 71.276C211.604 72.62 211.196 73.772 210.38 74.732C209.564 75.692 208.472 76.412 207.104 76.892C205.736 77.372 204.224 77.612 202.568 77.612C200.792 77.612 199.184 77.36 197.744 76.856C196.304 76.352 195.08 75.644 194.072 74.732L196.916 71.528C198.644 72.872 200.516 73.544 202.532 73.544ZM227.034 57.236C229.434 57.236 231.198 58.124 232.326 59.9C233.454 61.652 234.018 64.148 234.018 67.388C234.018 69.356 233.718 71.12 233.118 72.68C232.542 74.216 231.702 75.428 230.598 76.316C229.494 77.18 228.186 77.612 226.674 77.612C224.826 77.612 223.314 76.952 222.138 75.632V84.38L216.45 84.992V57.884H221.49L221.742 60.008C222.486 59.072 223.314 58.376 224.226 57.92C225.162 57.464 226.098 57.236 227.034 57.236ZM225.27 61.448C224.07 61.448 223.026 62.192 222.138 63.68V71.744C222.546 72.32 222.966 72.752 223.398 73.04C223.854 73.304 224.37 73.436 224.946 73.436C226.002 73.436 226.794 72.968 227.322 72.032C227.874 71.072 228.15 69.548 228.15 67.46C228.15 65.204 227.91 63.644 227.43 62.78C226.95 61.892 226.23 61.448 225.27 61.448ZM246.316 57.236C249.22 57.236 251.488 58.16 253.12 60.008C254.776 61.832 255.604 64.292 255.604 67.388C255.604 70.604 254.788 73.112 253.156 74.912C251.524 76.712 249.244 77.612 246.316 77.612C243.388 77.612 241.108 76.724 239.476 74.948C237.844 73.148 237.028 70.64 237.028 67.424C237.028 65.384 237.388 63.608 238.108 62.096C238.852 60.56 239.92 59.372 241.312 58.532C242.728 57.668 244.396 57.236 246.316 57.236ZM246.316 61.448C245.14 61.448 244.276 61.928 243.724 62.888C243.172 63.824 242.896 65.336 242.896 67.424C242.896 69.536 243.172 71.072 243.724 72.032C244.276 72.968 245.14 73.436 246.316 73.436C247.492 73.436 248.356 72.956 248.908 71.996C249.46 71.036 249.736 69.5 249.736 67.388C249.736 65.324 249.46 63.824 248.908 62.888C248.356 61.928 247.492 61.448 246.316 61.448Z" fill="#0086A4"/>
<path d="M116.92 85.7051C117.239 85.7051 117.499 85.7962 117.699 85.9785C117.909 86.1517 118 86.4707 117.973 86.9355C117.964 87.0905 117.927 87.3822 117.863 87.8105C117.799 88.2298 117.722 88.7266 117.631 89.3008C117.54 89.875 117.435 90.4948 117.316 91.1602C117.207 91.8164 117.102 92.459 117.002 93.0879H117.289C117.38 93.0879 117.48 93.0833 117.59 93.0742C117.699 93.0651 117.813 93.0514 117.932 93.0332C117.886 93.1426 117.836 93.2474 117.781 93.3477C117.727 93.4388 117.672 93.5208 117.617 93.5938C117.553 93.6758 117.49 93.7487 117.426 93.8125C117.344 93.9128 117.248 94.0039 117.139 94.0859C117.029 94.1589 116.924 94.2181 116.824 94.2637C116.76 94.7103 116.706 95.1113 116.66 95.4668C116.624 95.8132 116.601 96.1003 116.592 96.3281C116.574 96.6745 116.583 96.998 116.619 97.2988C116.646 97.5632 116.701 97.832 116.783 98.1055C116.865 98.3789 116.997 98.5977 117.18 98.7617L115.594 99.2812C115.484 99.1263 115.402 98.9167 115.348 98.6523C115.302 98.3971 115.27 98.1419 115.252 97.8867C115.225 97.5859 115.22 97.276 115.238 96.957C115.257 96.638 115.307 96.2233 115.389 95.7129C115.471 95.1934 115.562 94.6283 115.662 94.0176C115.48 93.9629 115.279 93.9173 115.061 93.8809C114.851 93.8444 114.614 93.8262 114.35 93.8262C114.113 93.8262 113.862 93.8353 113.598 93.8535C113.342 93.8717 113.087 93.8945 112.832 93.9219C112.723 94.3229 112.613 94.7467 112.504 95.1934C112.385 95.6764 112.276 96.0866 112.176 96.4238C112.085 96.7702 111.993 97.0573 111.902 97.2852C111.82 97.513 111.734 97.6953 111.643 97.832C111.561 97.9688 111.469 98.069 111.369 98.1328C111.26 98.1875 111.123 98.2376 110.959 98.2832C110.804 98.3288 110.608 98.3743 110.371 98.4199C110.134 98.4655 109.829 98.502 109.455 98.5293C109.592 98.3652 109.71 98.2148 109.811 98.0781C109.911 97.9414 110.011 97.7728 110.111 97.5723C110.212 97.3717 110.326 97.112 110.453 96.793C110.572 96.4831 110.727 96.0729 110.918 95.5625C111 95.3529 111.082 95.125 111.164 94.8789C111.255 94.6237 111.351 94.3639 111.451 94.0996C111.123 94.1452 110.845 94.1862 110.617 94.2227C110.389 94.2591 110.253 94.2865 110.207 94.3047C110.134 94.3138 110.075 94.3138 110.029 94.3047C109.911 94.2865 109.847 94.2272 109.838 94.127C109.847 93.9993 109.893 93.9128 109.975 93.8672C110.048 93.8216 110.161 93.7669 110.316 93.7031C110.389 93.6667 110.558 93.6029 110.822 93.5117C111.077 93.4115 111.392 93.3066 111.766 93.1973C111.902 92.8145 112.035 92.4362 112.162 92.0625C112.299 91.6797 112.431 91.3151 112.559 90.9688C112.686 90.6224 112.809 90.2988 112.928 89.998C113.046 89.6882 113.156 89.4238 113.256 89.2051C113.411 88.8678 113.607 88.4987 113.844 88.0977C114.09 87.6875 114.368 87.3047 114.678 86.9492C114.997 86.5938 115.343 86.2975 115.717 86.0605C116.1 85.8236 116.501 85.7051 116.92 85.7051ZM116.77 88.5488C116.87 88.1387 116.938 87.8014 116.975 87.5371C117.011 87.2728 117.025 87.0677 117.016 86.9219C117.007 86.7669 116.975 86.6621 116.92 86.6074C116.874 86.5436 116.815 86.5117 116.742 86.5117C116.624 86.5117 116.478 86.5573 116.305 86.6484C116.132 86.7396 115.949 86.8717 115.758 87.0449C115.566 87.209 115.375 87.4186 115.184 87.6738C115.001 87.9199 114.837 88.2025 114.691 88.5215C114.482 88.9954 114.245 89.5788 113.98 90.2715C113.716 90.9551 113.429 91.8301 113.119 92.8965C113.301 92.8691 113.479 92.8464 113.652 92.8281C113.835 92.8099 114.012 92.8008 114.186 92.8008C114.495 92.8008 114.792 92.8145 115.074 92.8418C115.357 92.86 115.617 92.8828 115.854 92.9102C115.936 92.4727 116.018 92.0443 116.1 91.625C116.191 91.1966 116.277 90.791 116.359 90.4082C116.441 90.0254 116.514 89.6745 116.578 89.3555C116.651 89.0365 116.715 88.7676 116.77 88.5488ZM118.533 95.7812C118.934 94.0951 119.253 92.7415 119.49 91.7207C119.736 90.6999 119.923 89.9206 120.051 89.3828C120.197 88.7448 120.297 88.3027 120.352 88.0566C120.379 87.8835 120.402 87.7148 120.42 87.5508C120.438 87.4049 120.447 87.2546 120.447 87.0996C120.447 86.9447 120.434 86.8034 120.406 86.6758C120.479 86.6302 120.557 86.5938 120.639 86.5664C120.73 86.5391 120.816 86.5163 120.898 86.498C120.999 86.4707 121.099 86.4479 121.199 86.4297C121.299 86.4115 121.391 86.4023 121.473 86.4023C121.546 86.4023 121.614 86.4115 121.678 86.4297C121.742 86.4388 121.783 86.4661 121.801 86.5117C121.855 86.5573 121.878 86.6484 121.869 86.7852C121.869 86.9219 121.86 87.0632 121.842 87.209C121.805 87.3822 121.764 87.569 121.719 87.7695C121.609 88.1615 121.459 88.7266 121.268 89.4648C121.104 90.0938 120.88 90.9505 120.598 92.0352C120.324 93.1198 119.978 94.487 119.559 96.1367C119.513 96.1823 119.458 96.2142 119.395 96.2324C119.331 96.2507 119.271 96.2598 119.217 96.2598C119.153 96.2598 119.085 96.2552 119.012 96.2461C118.948 96.2279 118.884 96.2005 118.82 96.1641C118.766 96.1276 118.711 96.0775 118.656 96.0137C118.602 95.959 118.561 95.8815 118.533 95.7812ZM125.848 93.8262C125.757 94.1725 125.633 94.4961 125.479 94.7969C125.324 95.0977 125.137 95.3574 124.918 95.5762C124.708 95.7949 124.467 95.9635 124.193 96.082C123.929 96.2096 123.637 96.2734 123.318 96.2734C122.945 96.2734 122.648 96.1914 122.43 96.0273C122.22 95.8724 122.061 95.6764 121.951 95.4395C121.851 95.2025 121.792 94.9427 121.773 94.6602C121.746 94.3776 121.732 94.1133 121.732 93.8672C121.732 93.694 121.755 93.5026 121.801 93.293C121.837 93.0833 121.892 92.8691 121.965 92.6504C122.038 92.4316 122.129 92.2129 122.238 91.9941C122.357 91.7754 122.493 91.5749 122.648 91.3926C122.703 91.2376 122.785 91.1009 122.895 90.9824C123.013 90.8639 123.145 90.7682 123.291 90.6953C123.446 90.6133 123.61 90.554 123.783 90.5176C123.956 90.472 124.125 90.4492 124.289 90.4492C124.316 90.4492 124.339 90.4538 124.357 90.4629C124.385 90.472 124.412 90.4811 124.439 90.4902C124.558 90.4993 124.704 90.5449 124.877 90.627C125.059 90.709 125.232 90.832 125.396 90.9961C125.57 91.1602 125.715 91.3698 125.834 91.625C125.952 91.8711 126.012 92.1719 126.012 92.5273C126.012 92.6003 126.007 92.6914 125.998 92.8008C125.989 92.901 125.98 92.9876 125.971 93.0605C126.18 92.9785 126.399 92.8783 126.627 92.7598C126.855 92.6413 127.074 92.5182 127.283 92.3906C127.502 92.2539 127.702 92.1172 127.885 91.9805C128.067 91.8438 128.213 91.7207 128.322 91.6113C128.413 91.5293 128.491 91.4837 128.555 91.4746C128.618 91.4655 128.664 91.4837 128.691 91.5293C128.719 91.5749 128.723 91.6387 128.705 91.7207C128.687 91.8027 128.637 91.8939 128.555 91.9941C128.509 92.0488 128.391 92.1582 128.199 92.3223C128.017 92.4863 127.798 92.6641 127.543 92.8555C127.288 93.0469 127.01 93.2337 126.709 93.416C126.408 93.5983 126.121 93.735 125.848 93.8262ZM123.537 91.748C123.51 91.8301 123.496 91.9167 123.496 92.0078C123.496 92.1536 123.505 92.3086 123.523 92.4727C123.542 92.6276 123.587 92.7689 123.66 92.8965C123.733 93.0241 123.847 93.1335 124.002 93.2246C124.166 93.3066 124.389 93.3477 124.672 93.3477C124.717 93.3477 124.763 93.3477 124.809 93.3477C124.854 93.3385 124.9 93.3294 124.945 93.3203C124.973 93.2018 124.995 93.097 125.014 93.0059C125.041 92.9056 125.055 92.819 125.055 92.7461C125.073 92.5729 125.073 92.3952 125.055 92.2129C125.036 92.0306 125 91.8665 124.945 91.7207C124.9 91.5658 124.836 91.4427 124.754 91.3516C124.681 91.2513 124.59 91.2012 124.48 91.2012C124.307 91.2012 124.139 91.2513 123.975 91.3516C123.82 91.4427 123.674 91.5749 123.537 91.748ZM122.662 94.1543C122.662 94.3184 122.671 94.4824 122.689 94.6465C122.708 94.8014 122.744 94.9427 122.799 95.0703C122.854 95.1888 122.926 95.2891 123.018 95.3711C123.109 95.444 123.227 95.4805 123.373 95.4805C123.537 95.4805 123.688 95.444 123.824 95.3711C123.961 95.2891 124.084 95.1888 124.193 95.0703C124.303 94.9427 124.398 94.8014 124.48 94.6465C124.572 94.4824 124.649 94.3138 124.713 94.1406C124.649 94.1497 124.585 94.1589 124.521 94.168C124.467 94.168 124.403 94.168 124.33 94.168C123.984 94.168 123.683 94.0677 123.428 93.8672C123.182 93.6576 122.99 93.3932 122.854 93.0742C122.799 93.2656 122.753 93.4525 122.717 93.6348C122.68 93.8171 122.662 93.9902 122.662 94.1543ZM131.371 96.3418C131.161 96.3418 130.979 96.3008 130.824 96.2188C130.678 96.1458 130.56 96.0456 130.469 95.918C130.378 95.7904 130.318 95.6445 130.291 95.4805C130.264 95.3073 130.273 95.125 130.318 94.9336C130.346 94.806 130.391 94.6374 130.455 94.4277C130.519 94.209 130.583 93.9766 130.646 93.7305C130.719 93.4753 130.783 93.2246 130.838 92.9785C130.902 92.7233 130.943 92.4954 130.961 92.2949C130.979 92.0853 130.97 91.9167 130.934 91.7891C130.897 91.6523 130.82 91.584 130.701 91.584C130.555 91.584 130.405 91.6341 130.25 91.7344C130.095 91.8255 129.936 91.9531 129.771 92.1172C129.617 92.2812 129.457 92.4727 129.293 92.6914C129.138 92.901 128.983 93.1198 128.828 93.3477C128.746 93.6576 128.678 93.931 128.623 94.168C128.568 94.3958 128.518 94.6055 128.473 94.7969C128.436 94.9792 128.4 95.1432 128.363 95.2891C128.327 95.4258 128.295 95.5579 128.268 95.6855C128.24 95.7767 128.158 95.8678 128.021 95.959C127.885 96.041 127.739 96.1094 127.584 96.1641C127.429 96.2188 127.297 96.2461 127.188 96.2461C127.069 96.2461 127.019 96.2051 127.037 96.123C127.046 96.0684 127.078 95.9453 127.133 95.7539C127.178 95.5625 127.238 95.3392 127.311 95.084C127.374 94.8197 127.443 94.5417 127.516 94.25C127.589 93.9583 127.657 93.6803 127.721 93.416C127.766 93.2064 127.816 92.974 127.871 92.7188C127.917 92.5 127.971 92.2448 128.035 91.9531C128.108 91.6615 128.19 91.3424 128.281 90.9961C128.345 90.9414 128.409 90.9004 128.473 90.873C128.546 90.8366 128.618 90.8092 128.691 90.791C128.764 90.7637 128.842 90.7454 128.924 90.7363C128.997 90.7363 129.07 90.7409 129.143 90.75C129.206 90.7591 129.27 90.7773 129.334 90.8047C129.407 90.8229 129.471 90.8548 129.525 90.9004C129.498 90.9642 129.466 91.0553 129.43 91.1738C129.393 91.2832 129.357 91.4017 129.32 91.5293C129.284 91.6751 129.238 91.8255 129.184 91.9805C129.302 91.8164 129.434 91.6523 129.58 91.4883C129.735 91.3151 129.899 91.1602 130.072 91.0234C130.255 90.8867 130.446 90.7773 130.646 90.6953C130.847 90.6042 131.052 90.5586 131.262 90.5586C131.435 90.5586 131.59 90.6087 131.727 90.709C131.863 90.8092 131.968 90.9505 132.041 91.1328C132.123 91.306 132.169 91.5156 132.178 91.7617C132.196 92.0078 132.164 92.2767 132.082 92.5684L131.932 93.1699C131.886 93.3613 131.827 93.5892 131.754 93.8535C131.69 94.1087 131.608 94.3913 131.508 94.7012C131.453 94.9017 131.43 95.0749 131.439 95.2207C131.458 95.3665 131.549 95.4395 131.713 95.4395C131.877 95.4395 132.082 95.3392 132.328 95.1387C132.583 94.9382 132.839 94.6966 133.094 94.4141C133.349 94.1315 133.59 93.8444 133.818 93.5527C134.046 93.252 134.219 93.0104 134.338 92.8281C134.42 92.7096 134.497 92.6322 134.57 92.5957C134.643 92.5592 134.698 92.5547 134.734 92.582C134.78 92.6094 134.803 92.6732 134.803 92.7734C134.803 92.8646 134.766 92.9831 134.693 93.1289C134.63 93.2565 134.529 93.4251 134.393 93.6348C134.265 93.8444 134.11 94.0677 133.928 94.3047C133.745 94.5417 133.549 94.7832 133.34 95.0293C133.13 95.2663 132.911 95.485 132.684 95.6855C132.456 95.877 132.228 96.0319 132 96.1504C131.781 96.278 131.572 96.3418 131.371 96.3418ZM137.387 97.9551C137.341 98.1738 137.282 98.4473 137.209 98.7754C137.145 99.1035 137.068 99.4499 136.977 99.8145C136.895 100.179 136.794 100.539 136.676 100.895C136.566 101.259 136.443 101.583 136.307 101.865C136.17 102.157 136.02 102.394 135.855 102.576C135.691 102.758 135.509 102.85 135.309 102.85C135.008 102.85 134.748 102.758 134.529 102.576C134.32 102.403 134.142 102.18 133.996 101.906C133.85 101.642 133.745 101.355 133.682 101.045C133.609 100.735 133.572 100.448 133.572 100.184C133.572 99.819 133.604 99.5137 133.668 99.2676C133.732 99.0306 133.841 98.8027 133.996 98.584C134.16 98.3652 134.379 98.1328 134.652 97.8867C134.926 97.6406 135.277 97.3353 135.705 96.9707C135.915 96.7884 136.115 96.6152 136.307 96.4512C136.498 96.2871 136.68 96.1367 136.854 96C136.899 95.8177 136.94 95.6491 136.977 95.4941C137.022 95.3301 137.059 95.1842 137.086 95.0566C136.849 95.3757 136.562 95.6445 136.225 95.8633C135.896 96.082 135.518 96.1914 135.09 96.1914C134.698 96.1914 134.379 96.0182 134.133 95.6719C133.896 95.3164 133.777 94.7969 133.777 94.1133C133.777 93.776 133.841 93.3887 133.969 92.9512C134.096 92.5137 134.279 92.1035 134.516 91.7207C134.753 91.3379 135.044 91.0143 135.391 90.75C135.737 90.4857 136.124 90.3535 136.553 90.3535C136.753 90.3535 136.926 90.4036 137.072 90.5039C137.218 90.6042 137.341 90.7318 137.441 90.8867C137.542 91.0326 137.619 91.1921 137.674 91.3652C137.729 91.5293 137.77 91.6842 137.797 91.8301C137.815 91.7754 137.829 91.7207 137.838 91.666C137.847 91.6022 137.861 91.5475 137.879 91.502C137.97 91.1921 138.07 90.9824 138.18 90.873C138.298 90.7546 138.471 90.6953 138.699 90.6953C138.827 90.6953 138.932 90.7181 139.014 90.7637C139.105 90.8092 139.15 90.8503 139.15 90.8867C139.105 90.987 139.068 91.0645 139.041 91.1191C139.014 91.1738 138.986 91.2331 138.959 91.2969C138.932 91.3516 138.904 91.4245 138.877 91.5156C138.85 91.6068 138.813 91.7389 138.768 91.9121C138.749 91.9759 138.713 92.1263 138.658 92.3633C138.613 92.5911 138.549 92.8646 138.467 93.1836C138.394 93.5026 138.312 93.8535 138.221 94.2363C138.139 94.6191 138.057 94.9928 137.975 95.3574C138.23 95.2116 138.494 95.0339 138.768 94.8242C139.041 94.6146 139.301 94.4004 139.547 94.1816C139.793 93.9629 140.012 93.7578 140.203 93.5664C140.395 93.3659 140.536 93.2018 140.627 93.0742C140.7 92.9648 140.782 92.8874 140.873 92.8418C140.964 92.7962 141.042 92.7826 141.105 92.8008C141.178 92.8099 141.219 92.8509 141.229 92.9238C141.247 92.9876 141.219 93.0788 141.146 93.1973C140.937 93.5345 140.682 93.8626 140.381 94.1816C140.08 94.4915 139.77 94.7832 139.451 95.0566C139.141 95.321 138.836 95.5579 138.535 95.7676C138.243 95.9681 137.993 96.1322 137.783 96.2598C137.692 96.6699 137.615 97.0026 137.551 97.2578C137.487 97.513 137.432 97.7454 137.387 97.9551ZM135.664 95.2617C135.855 95.2617 136.033 95.2116 136.197 95.1113C136.37 95.0111 136.525 94.8971 136.662 94.7695C136.799 94.6328 136.913 94.4961 137.004 94.3594C137.095 94.2227 137.163 94.1133 137.209 94.0312C137.245 93.9492 137.286 93.8398 137.332 93.7031C137.387 93.5664 137.428 93.4342 137.455 93.3066C137.482 93.179 137.492 93.0651 137.482 92.9648C137.482 92.8646 137.451 92.8099 137.387 92.8008C137.332 92.7917 137.286 92.7552 137.25 92.6914C137.223 92.6276 137.2 92.5547 137.182 92.4727C137.163 92.3906 137.15 92.3086 137.141 92.2266C137.141 92.1445 137.136 92.0716 137.127 92.0078C137.081 91.6888 137.004 91.4564 136.895 91.3105C136.785 91.1647 136.662 91.0918 136.525 91.0918C136.298 91.0918 136.079 91.1829 135.869 91.3652C135.669 91.5475 135.486 91.7845 135.322 92.0762C135.167 92.3587 135.044 92.6732 134.953 93.0195C134.862 93.3568 134.816 93.6803 134.816 93.9902C134.816 94.373 134.871 94.6829 134.98 94.9199C135.09 95.1478 135.318 95.2617 135.664 95.2617ZM135.035 101.605C135.217 101.605 135.363 101.469 135.473 101.195C135.591 100.931 135.714 100.566 135.842 100.102C135.869 99.9922 135.906 99.8327 135.951 99.623C136.006 99.4225 136.065 99.1901 136.129 98.9258C136.202 98.6615 136.275 98.3743 136.348 98.0645C136.421 97.7637 136.498 97.4583 136.58 97.1484C136.507 97.2122 136.43 97.276 136.348 97.3398C136.275 97.4128 136.197 97.4948 136.115 97.5859C135.915 97.7773 135.719 97.9596 135.527 98.1328C135.345 98.3151 135.181 98.502 135.035 98.6934C134.889 98.8939 134.771 99.1081 134.68 99.3359C134.598 99.5638 134.557 99.8281 134.557 100.129C134.557 100.43 134.566 100.676 134.584 100.867C134.611 101.059 134.643 101.209 134.68 101.318C134.725 101.428 134.775 101.501 134.83 101.537C134.894 101.583 134.962 101.605 135.035 101.605ZM151.264 93.6348C151.136 93.9629 150.99 94.2819 150.826 94.5918C150.662 94.9017 150.48 95.1797 150.279 95.4258C150.079 95.6719 149.865 95.8678 149.637 96.0137C149.409 96.1595 149.163 96.2324 148.898 96.2324C148.47 96.2324 148.146 96.0911 147.928 95.8086C147.709 95.5169 147.559 95.1615 147.477 94.7422C147.349 94.9336 147.212 95.125 147.066 95.3164C146.921 95.5078 146.766 95.6764 146.602 95.8223C146.438 95.9681 146.269 96.0866 146.096 96.1777C145.923 96.2689 145.749 96.3145 145.576 96.3145C145.339 96.3145 145.139 96.2643 144.975 96.1641C144.811 96.0638 144.674 95.9271 144.564 95.7539C144.464 95.5716 144.391 95.3665 144.346 95.1387C144.3 94.9017 144.277 94.651 144.277 94.3867V94.2227C144.277 93.8854 144.305 93.5391 144.359 93.1836C144.414 92.8281 144.473 92.5 144.537 92.1992C144.61 91.8984 144.683 91.6387 144.756 91.4199C144.829 91.1921 144.883 91.0417 144.92 90.9688C144.984 90.8776 145.12 90.791 145.33 90.709C145.549 90.6178 145.763 90.5814 145.973 90.5996C146.073 90.6087 146.123 90.6497 146.123 90.7227C146.132 90.7956 146.123 90.8867 146.096 90.9961C146.059 91.151 145.995 91.3835 145.904 91.6934C145.813 92.0033 145.717 92.3405 145.617 92.7051C145.526 93.0697 145.444 93.4297 145.371 93.7852C145.298 94.1406 145.262 94.4368 145.262 94.6738C145.262 94.9655 145.307 95.1751 145.398 95.3027C145.49 95.4303 145.631 95.4941 145.822 95.4941C146.05 95.4941 146.301 95.3665 146.574 95.1113C146.857 94.8561 147.13 94.4232 147.395 93.8125C147.385 93.7578 147.381 93.7031 147.381 93.6484C147.381 93.5938 147.381 93.5345 147.381 93.4707C147.381 93.0605 147.395 92.6686 147.422 92.2949C147.458 91.9212 147.522 91.5931 147.613 91.3105C147.714 91.028 147.846 90.8047 148.01 90.6406C148.183 90.4766 148.406 90.3945 148.68 90.3945C148.789 90.3945 148.88 90.4264 148.953 90.4902C149.026 90.554 149.062 90.6452 149.062 90.7637C149.062 91.0553 148.958 91.4701 148.748 92.0078C148.548 92.5365 148.306 93.1198 148.023 93.7578C147.996 93.7943 147.978 93.8307 147.969 93.8672C147.996 94.0404 148.028 94.2227 148.064 94.4141C148.11 94.6055 148.169 94.7832 148.242 94.9473C148.315 95.1022 148.402 95.2344 148.502 95.3438C148.602 95.444 148.721 95.4941 148.857 95.4941C149.058 95.4941 149.24 95.3984 149.404 95.207C149.577 95.0156 149.728 94.7832 149.855 94.5098C149.992 94.2363 150.111 93.9492 150.211 93.6484C150.311 93.3385 150.389 93.0651 150.443 92.8281C150.416 92.7279 150.393 92.6322 150.375 92.541C150.357 92.4408 150.348 92.3268 150.348 92.1992C150.348 91.9167 150.389 91.6751 150.471 91.4746C150.553 91.2741 150.658 91.11 150.785 90.9824C150.922 90.8457 151.063 90.7454 151.209 90.6816C151.364 90.6178 151.505 90.5859 151.633 90.5859C151.861 90.5859 151.975 90.6862 151.975 90.8867C151.975 91.0326 151.938 91.2878 151.865 91.6523C151.792 92.0078 151.688 92.4134 151.551 92.8691C151.715 92.9421 151.924 92.9785 152.18 92.9785C152.417 92.9785 152.635 92.9512 152.836 92.8965C153.036 92.8327 153.219 92.7552 153.383 92.6641C153.547 92.5729 153.697 92.4727 153.834 92.3633C153.971 92.2539 154.103 92.1491 154.23 92.0488C154.331 91.9759 154.413 91.9714 154.477 92.0352C154.54 92.099 154.531 92.1992 154.449 92.3359C154.376 92.4544 154.249 92.5911 154.066 92.7461C153.893 92.901 153.679 93.0514 153.424 93.1973C153.178 93.334 152.9 93.4525 152.59 93.5527C152.289 93.6439 151.97 93.6895 151.633 93.6895C151.578 93.6895 151.519 93.6849 151.455 93.6758C151.391 93.6667 151.327 93.653 151.264 93.6348ZM156.199 87.9473C156.172 88.0475 156.117 88.1478 156.035 88.248C155.962 88.3392 155.876 88.4167 155.775 88.4805C155.684 88.5352 155.589 88.5716 155.488 88.5898C155.388 88.6081 155.306 88.5898 155.242 88.5352C155.051 88.3893 154.951 88.2344 154.941 88.0703C154.932 87.8971 154.973 87.7376 155.064 87.5918C155.156 87.4368 155.27 87.3092 155.406 87.209C155.543 87.0996 155.661 87.0358 155.762 87.0176C155.862 86.9993 155.944 87.0221 156.008 87.0859C156.081 87.1406 156.135 87.2181 156.172 87.3184C156.208 87.4095 156.227 87.5143 156.227 87.6328C156.236 87.7513 156.227 87.8561 156.199 87.9473ZM154.312 90.8594C154.358 90.8047 154.445 90.7591 154.572 90.7227C154.7 90.6862 154.832 90.6589 154.969 90.6406C155.105 90.6133 155.229 90.5996 155.338 90.5996C155.456 90.5905 155.525 90.5905 155.543 90.5996C155.552 90.6087 155.529 90.7044 155.475 90.8867C155.42 91.069 155.352 91.2832 155.27 91.5293C155.188 91.7754 155.101 92.0306 155.01 92.2949C154.919 92.5501 154.85 92.7598 154.805 92.9238C154.759 93.0879 154.704 93.2747 154.641 93.4844C154.577 93.6849 154.518 93.8854 154.463 94.0859C154.417 94.2773 154.385 94.4596 154.367 94.6328C154.349 94.806 154.363 94.9382 154.408 95.0293C154.454 95.1387 154.504 95.2161 154.559 95.2617C154.613 95.2982 154.673 95.3164 154.736 95.3164C154.919 95.3164 155.146 95.2161 155.42 95.0156C155.702 94.8151 155.985 94.5781 156.268 94.3047C156.559 94.0221 156.828 93.7396 157.074 93.457C157.32 93.1654 157.503 92.9329 157.621 92.7598C157.694 92.6686 157.767 92.6094 157.84 92.582C157.922 92.5547 157.986 92.5592 158.031 92.5957C158.086 92.6322 158.113 92.6914 158.113 92.7734C158.122 92.8555 158.095 92.9512 158.031 93.0605C157.885 93.3158 157.671 93.6211 157.389 93.9766C157.106 94.3229 156.805 94.6602 156.486 94.9883C156.167 95.3073 155.853 95.5807 155.543 95.8086C155.242 96.0365 154.996 96.1549 154.805 96.1641C154.65 96.1732 154.495 96.1458 154.34 96.082C154.194 96.0273 154.057 95.9499 153.93 95.8496C153.811 95.7402 153.711 95.6172 153.629 95.4805C153.547 95.3346 153.501 95.1842 153.492 95.0293C153.465 94.8014 153.465 94.4915 153.492 94.0996C153.52 93.6986 153.57 93.293 153.643 92.8828C153.715 92.4635 153.807 92.0671 153.916 91.6934C154.035 91.3197 154.167 91.0417 154.312 90.8594ZM162.078 92.541C162.115 92.4863 162.16 92.4544 162.215 92.4453C162.279 92.4271 162.329 92.4316 162.365 92.459C162.402 92.4863 162.42 92.5319 162.42 92.5957C162.429 92.6595 162.406 92.7461 162.352 92.8555C162.169 93.2018 161.928 93.5755 161.627 93.9766C161.335 94.3776 161.025 94.7559 160.697 95.1113C160.369 95.4577 160.05 95.7448 159.74 95.9727C159.43 96.2005 159.171 96.3145 158.961 96.3145C158.66 96.3145 158.41 96.2552 158.209 96.1367C158.008 96.0182 157.849 95.8724 157.73 95.6992C157.621 95.526 157.544 95.3392 157.498 95.1387C157.452 94.929 157.439 94.7376 157.457 94.5645C157.466 94.4186 157.498 94.1589 157.553 93.7852C157.607 93.4023 157.68 92.9648 157.771 92.4727C157.863 91.9714 157.963 91.4382 158.072 90.873C158.191 90.2988 158.314 89.7474 158.441 89.2188C158.286 89.237 158.132 89.2552 157.977 89.2734C157.822 89.2917 157.68 89.3008 157.553 89.3008C157.261 89.3008 156.988 89.2689 156.732 89.2051C156.468 89.1322 156.272 89.0638 156.145 89C156.072 88.9635 156.04 88.9134 156.049 88.8496C156.058 88.7767 156.085 88.7083 156.131 88.6445C156.176 88.5716 156.236 88.5124 156.309 88.4668C156.372 88.4121 156.432 88.3848 156.486 88.3848C156.66 88.403 156.846 88.4212 157.047 88.4395C157.247 88.4486 157.466 88.4486 157.703 88.4395C157.876 88.4303 158.04 88.4167 158.195 88.3984C158.359 88.3802 158.519 88.3574 158.674 88.3301C158.792 87.8926 158.906 87.5143 159.016 87.1953C159.134 86.8672 159.239 86.6393 159.33 86.5117C159.357 86.4661 159.417 86.4297 159.508 86.4023C159.608 86.3659 159.713 86.3431 159.822 86.334C159.932 86.3158 160.036 86.3158 160.137 86.334C160.237 86.3431 160.31 86.375 160.355 86.4297C160.401 86.5026 160.419 86.6895 160.41 86.9902C160.401 87.291 160.351 87.6738 160.26 88.1387C160.643 88.1387 160.98 88.1615 161.271 88.207C161.572 88.2435 161.827 88.2891 162.037 88.3438C162.247 88.3893 162.415 88.4395 162.543 88.4941C162.671 88.5397 162.766 88.5716 162.83 88.5898C162.894 88.6081 162.926 88.6536 162.926 88.7266C162.935 88.7995 162.921 88.877 162.885 88.959C162.857 89.0319 162.807 89.0957 162.734 89.1504C162.661 89.2051 162.579 89.2233 162.488 89.2051C162.397 89.196 162.292 89.1777 162.174 89.1504C162.064 89.123 161.928 89.1003 161.764 89.082C161.609 89.0638 161.422 89.0456 161.203 89.0273C160.984 89.0091 160.729 89 160.438 89C160.383 89 160.319 89.0046 160.246 89.0137C160.182 89.0137 160.114 89.0137 160.041 89.0137C160.005 89.1595 159.968 89.3053 159.932 89.4512C159.904 89.5879 159.863 89.7337 159.809 89.8887C159.69 90.2533 159.553 90.6497 159.398 91.0781C159.262 91.4518 159.098 91.8802 158.906 92.3633C158.715 92.8464 158.501 93.3613 158.264 93.9082C158.209 94.3001 158.214 94.6009 158.277 94.8105C158.35 95.0111 158.437 95.1569 158.537 95.248C158.656 95.3483 158.801 95.403 158.975 95.4121C159.111 95.4303 159.275 95.3848 159.467 95.2754C159.667 95.1569 159.872 95.002 160.082 94.8105C160.292 94.6191 160.501 94.4095 160.711 94.1816C160.93 93.9538 161.13 93.7305 161.312 93.5117C161.495 93.293 161.654 93.097 161.791 92.9238C161.928 92.7415 162.023 92.6139 162.078 92.541ZM168.312 92.9922C168.376 92.9193 168.44 92.8828 168.504 92.8828C168.577 92.8737 168.632 92.8919 168.668 92.9375C168.714 92.974 168.732 93.0332 168.723 93.1152C168.723 93.1973 168.686 93.2884 168.613 93.3887C168.44 93.6257 168.24 93.8717 168.012 94.127C167.784 94.373 167.538 94.6146 167.273 94.8516C167.018 95.0885 166.758 95.3118 166.494 95.5215C166.23 95.7311 165.975 95.9043 165.729 96.041C165.455 96.196 165.223 96.2734 165.031 96.2734C164.849 96.2734 164.667 96.1549 164.484 95.918C164.32 95.7083 164.238 95.485 164.238 95.248C164.247 95.002 164.302 94.6966 164.402 94.332C164.466 94.1042 164.553 93.8353 164.662 93.5254C164.781 93.2064 164.872 92.901 164.936 92.6094C165.008 92.3177 165.031 92.0716 165.004 91.8711C164.977 91.6615 164.858 91.5566 164.648 91.5566C164.503 91.5566 164.343 91.6068 164.17 91.707C164.006 91.8073 163.837 91.9395 163.664 92.1035C163.5 92.2585 163.34 92.4362 163.186 92.6367C163.031 92.8372 162.894 93.0332 162.775 93.2246C162.702 93.5801 162.63 93.931 162.557 94.2773C162.493 94.569 162.424 94.888 162.352 95.2344C162.288 95.5716 162.224 95.8724 162.16 96.1367C162.105 96.1823 162.046 96.2142 161.982 96.2324C161.919 96.2507 161.859 96.2598 161.805 96.2598C161.741 96.2598 161.677 96.2552 161.613 96.2461C161.54 96.2279 161.472 96.2005 161.408 96.1641C161.354 96.1276 161.299 96.0775 161.244 96.0137C161.189 95.959 161.148 95.8815 161.121 95.7812C161.531 94.0951 161.855 92.7415 162.092 91.7207C162.329 90.6999 162.511 89.9206 162.639 89.3828C162.785 88.7448 162.885 88.3027 162.939 88.0566C162.967 87.8835 162.99 87.7148 163.008 87.5508C163.026 87.4049 163.035 87.2546 163.035 87.0996C163.035 86.9447 163.021 86.8034 162.994 86.6758C163.067 86.6302 163.145 86.5938 163.227 86.5664C163.318 86.5391 163.404 86.5163 163.486 86.498C163.587 86.4707 163.687 86.4479 163.787 86.4297C163.887 86.4115 163.979 86.4023 164.061 86.4023C164.133 86.4023 164.202 86.4115 164.266 86.4297C164.329 86.4388 164.37 86.4661 164.389 86.5117C164.443 86.5573 164.466 86.6484 164.457 86.7852C164.457 86.9219 164.448 87.0632 164.43 87.209C164.393 87.3822 164.352 87.569 164.307 87.7695C164.115 88.5078 163.901 89.2279 163.664 89.9297C163.427 90.6224 163.208 91.3652 163.008 92.1582C163.126 91.9759 163.268 91.7891 163.432 91.5977C163.596 91.4062 163.773 91.2331 163.965 91.0781C164.165 90.9141 164.375 90.7819 164.594 90.6816C164.812 90.5723 165.045 90.5176 165.291 90.5176C165.419 90.5176 165.537 90.5404 165.646 90.5859C165.765 90.6224 165.865 90.6908 165.947 90.791C166.038 90.8822 166.107 91.0098 166.152 91.1738C166.198 91.3288 166.216 91.5247 166.207 91.7617C166.207 91.9076 166.189 92.0579 166.152 92.2129C166.125 92.3678 166.084 92.541 166.029 92.7324C165.975 92.9147 165.902 93.1198 165.811 93.3477C165.729 93.5755 165.628 93.8398 165.51 94.1406C165.428 94.3503 165.364 94.528 165.318 94.6738C165.273 94.8197 165.282 94.9473 165.346 95.0566C165.428 95.2025 165.587 95.2389 165.824 95.166C166.07 95.084 166.435 94.847 166.918 94.4551C167.027 94.3639 167.15 94.25 167.287 94.1133C167.424 93.9766 167.556 93.8398 167.684 93.7031C167.811 93.5573 167.93 93.4206 168.039 93.293C168.148 93.1654 168.24 93.0651 168.312 92.9922ZM171.498 95.7812C171.899 94.0951 172.218 92.7415 172.455 91.7207C172.701 90.6999 172.888 89.9206 173.016 89.3828C173.161 88.7448 173.262 88.3027 173.316 88.0566C173.344 87.8835 173.367 87.7148 173.385 87.5508C173.403 87.4049 173.412 87.2546 173.412 87.0996C173.412 86.9447 173.398 86.8034 173.371 86.6758C173.444 86.6302 173.521 86.5938 173.604 86.5664C173.695 86.5391 173.781 86.5163 173.863 86.498C173.964 86.4707 174.064 86.4479 174.164 86.4297C174.264 86.4115 174.355 86.4023 174.438 86.4023C174.51 86.4023 174.579 86.4115 174.643 86.4297C174.706 86.4388 174.747 86.4661 174.766 86.5117C174.82 86.5573 174.843 86.6484 174.834 86.7852C174.834 86.9219 174.825 87.0632 174.807 87.209C174.77 87.3822 174.729 87.569 174.684 87.7695C174.574 88.1615 174.424 88.7266 174.232 89.4648C174.068 90.0938 173.845 90.9505 173.562 92.0352C173.289 93.1198 172.943 94.487 172.523 96.1367C172.478 96.1823 172.423 96.2142 172.359 96.2324C172.296 96.2507 172.236 96.2598 172.182 96.2598C172.118 96.2598 172.049 96.2552 171.977 96.2461C171.913 96.2279 171.849 96.2005 171.785 96.1641C171.73 96.1276 171.676 96.0775 171.621 96.0137C171.566 95.959 171.525 95.8815 171.498 95.7812ZM178.361 90.9688C178.48 90.8776 178.594 90.8092 178.703 90.7637C178.822 90.709 178.926 90.6725 179.018 90.6543C179.118 90.627 179.218 90.6178 179.318 90.627C179.564 90.6452 179.715 90.7227 179.77 90.8594C179.833 90.9961 179.842 91.2148 179.797 91.5156C179.77 91.6706 179.715 91.8665 179.633 92.1035C179.551 92.3405 179.455 92.6322 179.346 92.9785C179.236 93.3158 179.118 93.7031 178.99 94.1406C178.872 94.5781 178.758 95.0703 178.648 95.6172C178.539 96.0638 178.421 96.5788 178.293 97.1621C178.184 97.6725 178.051 98.2878 177.896 99.0078C177.751 99.7279 177.591 100.553 177.418 101.482C177.372 101.71 177.272 101.842 177.117 101.879C176.971 101.915 176.816 101.897 176.652 101.824C176.589 101.788 176.529 101.747 176.475 101.701C176.429 101.656 176.379 101.601 176.324 101.537C176.27 101.482 176.224 101.405 176.188 101.305C176.397 100.539 176.579 99.8418 176.734 99.2129C176.898 98.584 177.044 98.0371 177.172 97.5723C177.309 97.0345 177.436 96.5514 177.555 96.123C177.6 95.9316 177.641 95.7448 177.678 95.5625C177.723 95.3711 177.769 95.1842 177.814 95.002C177.696 95.1934 177.568 95.3757 177.432 95.5488C177.295 95.722 177.145 95.8724 176.98 96C176.816 96.1276 176.639 96.2233 176.447 96.2871C176.265 96.36 176.074 96.3828 175.873 96.3555C175.381 96.2917 175.03 96.1094 174.82 95.8086C174.62 95.5078 174.533 95.1159 174.561 94.6328C174.57 94.4414 174.597 94.2318 174.643 94.0039C174.688 93.776 174.738 93.5573 174.793 93.3477C174.848 93.138 174.898 92.9512 174.943 92.7871C174.998 92.6139 175.039 92.4909 175.066 92.418C175.176 92.0716 175.253 91.7754 175.299 91.5293C175.354 91.2832 175.317 91.0781 175.189 90.9141C175.317 90.832 175.436 90.7773 175.545 90.75C175.663 90.7135 175.768 90.6862 175.859 90.668C175.96 90.6589 176.06 90.6589 176.16 90.668C176.406 90.7044 176.548 90.7956 176.584 90.9414C176.63 91.0872 176.616 91.306 176.543 91.5977C176.507 91.7526 176.447 91.9531 176.365 92.1992C176.283 92.4362 176.197 92.6823 176.105 92.9375C176.014 93.1927 175.932 93.4297 175.859 93.6484C175.786 93.8581 175.745 94.0085 175.736 94.0996C175.654 94.5098 175.65 94.8288 175.723 95.0566C175.796 95.2754 175.955 95.3848 176.201 95.3848C176.32 95.3848 176.452 95.3346 176.598 95.2344C176.743 95.125 176.889 94.9837 177.035 94.8105C177.19 94.6374 177.34 94.4414 177.486 94.2227C177.632 93.9948 177.764 93.7669 177.883 93.5391C178.01 93.3112 178.12 93.0879 178.211 92.8691C178.311 92.6504 178.384 92.4544 178.43 92.2812C178.493 91.944 178.535 91.6797 178.553 91.4883C178.571 91.2969 178.507 91.1237 178.361 90.9688ZM179.934 95.9316C179.87 96.0319 179.801 96.0957 179.729 96.123C179.646 96.1595 179.578 96.1641 179.523 96.1367C179.46 96.1185 179.419 96.0729 179.4 96C179.382 95.9271 179.4 95.8359 179.455 95.7266C179.482 95.6719 179.546 95.5488 179.646 95.3574C179.738 95.166 179.852 94.9382 179.988 94.6738C180.116 94.4004 180.257 94.1087 180.412 93.7988C180.567 93.4798 180.713 93.179 180.85 92.8965C180.995 92.6139 181.128 92.3633 181.246 92.1445C181.365 91.9167 181.451 91.7526 181.506 91.6523C181.406 91.5612 181.337 91.4974 181.301 91.4609C181.264 91.4154 181.237 91.3242 181.219 91.1875C181.201 91.069 181.228 90.9141 181.301 90.7227C181.374 90.5312 181.469 90.349 181.588 90.1758C181.706 89.9935 181.839 89.8385 181.984 89.7109C182.13 89.5833 182.271 89.5195 182.408 89.5195C182.663 89.5195 182.841 89.6016 182.941 89.7656C183.051 89.9297 183.115 90.0983 183.133 90.2715C183.151 90.39 183.142 90.5404 183.105 90.7227C183.069 90.9049 183.001 91.069 182.9 91.2148C182.928 91.2331 182.964 91.2559 183.01 91.2832C183.055 91.3014 183.128 91.3105 183.229 91.3105C183.374 91.3105 183.475 91.3014 183.529 91.2832C183.593 91.265 183.689 91.2559 183.816 91.2559C183.971 91.2559 184.099 91.2969 184.199 91.3789C184.299 91.4518 184.382 91.5475 184.445 91.666C184.509 91.7754 184.555 91.8984 184.582 92.0352C184.618 92.1628 184.641 92.2812 184.65 92.3906C184.678 92.6185 184.618 92.8555 184.473 93.1016C184.327 93.3477 184.149 93.6165 183.939 93.9082C183.812 94.0905 183.684 94.2956 183.557 94.5234C183.429 94.7513 183.374 94.9564 183.393 95.1387C183.411 95.2572 183.443 95.3529 183.488 95.4258C183.534 95.4987 183.661 95.5352 183.871 95.5352C184.026 95.5352 184.195 95.4805 184.377 95.3711C184.568 95.2526 184.76 95.1068 184.951 94.9336C185.152 94.7513 185.348 94.5553 185.539 94.3457C185.73 94.127 185.908 93.9173 186.072 93.7168C186.236 93.5072 186.373 93.3203 186.482 93.1562C186.601 92.9922 186.688 92.8737 186.742 92.8008C186.788 92.7279 186.847 92.6777 186.92 92.6504C186.993 92.623 187.057 92.623 187.111 92.6504C187.166 92.6777 187.198 92.7324 187.207 92.8145C187.225 92.8965 187.193 93.0059 187.111 93.1426C187.057 93.2337 186.961 93.3796 186.824 93.5801C186.697 93.7806 186.537 94.0039 186.346 94.25C186.163 94.4961 185.958 94.7513 185.73 95.0156C185.503 95.2708 185.261 95.5078 185.006 95.7266C184.76 95.9362 184.509 96.1094 184.254 96.2461C184.008 96.3828 183.771 96.4512 183.543 96.4512C183.306 96.4512 183.11 96.4056 182.955 96.3145C182.8 96.2233 182.673 96.1139 182.572 95.9863C182.481 95.8496 182.413 95.7038 182.367 95.5488C182.331 95.3848 182.317 95.2344 182.326 95.0977C182.335 94.9883 182.363 94.8743 182.408 94.7559C182.463 94.6283 182.522 94.5007 182.586 94.373C182.659 94.2363 182.732 94.1042 182.805 93.9766C182.887 93.8398 182.96 93.7077 183.023 93.5801C183.178 93.3158 183.301 93.0924 183.393 92.9102C183.493 92.7188 183.543 92.5592 183.543 92.4316C183.543 92.3496 183.525 92.2767 183.488 92.2129C183.452 92.1491 183.393 92.1172 183.311 92.1172C183.256 92.1172 183.215 92.1217 183.188 92.1309C183.169 92.1309 183.146 92.1309 183.119 92.1309C183.101 92.1309 183.069 92.1354 183.023 92.1445C182.987 92.1445 182.928 92.1445 182.846 92.1445C182.727 92.1445 182.627 92.1263 182.545 92.0898C182.463 92.0534 182.385 92.026 182.312 92.0078C182.276 92.0716 182.194 92.2083 182.066 92.418C181.939 92.6276 181.788 92.8737 181.615 93.1562C181.451 93.4388 181.273 93.735 181.082 94.0449C180.9 94.3548 180.727 94.6465 180.562 94.9199C180.398 95.1842 180.262 95.4121 180.152 95.6035C180.034 95.7858 179.961 95.8952 179.934 95.9316ZM189.148 87.9473C189.121 88.0475 189.066 88.1478 188.984 88.248C188.911 88.3392 188.825 88.4167 188.725 88.4805C188.633 88.5352 188.538 88.5716 188.438 88.5898C188.337 88.6081 188.255 88.5898 188.191 88.5352C188 88.3893 187.9 88.2344 187.891 88.0703C187.882 87.8971 187.923 87.7376 188.014 87.5918C188.105 87.4368 188.219 87.3092 188.355 87.209C188.492 87.0996 188.611 87.0358 188.711 87.0176C188.811 86.9993 188.893 87.0221 188.957 87.0859C189.03 87.1406 189.085 87.2181 189.121 87.3184C189.158 87.4095 189.176 87.5143 189.176 87.6328C189.185 87.7513 189.176 87.8561 189.148 87.9473ZM187.262 90.8594C187.307 90.8047 187.394 90.7591 187.521 90.7227C187.649 90.6862 187.781 90.6589 187.918 90.6406C188.055 90.6133 188.178 90.5996 188.287 90.5996C188.406 90.5905 188.474 90.5905 188.492 90.5996C188.501 90.6087 188.479 90.7044 188.424 90.8867C188.369 91.069 188.301 91.2832 188.219 91.5293C188.137 91.7754 188.05 92.0306 187.959 92.2949C187.868 92.5501 187.799 92.7598 187.754 92.9238C187.708 93.0879 187.654 93.2747 187.59 93.4844C187.526 93.6849 187.467 93.8854 187.412 94.0859C187.367 94.2773 187.335 94.4596 187.316 94.6328C187.298 94.806 187.312 94.9382 187.357 95.0293C187.403 95.1387 187.453 95.2161 187.508 95.2617C187.562 95.2982 187.622 95.3164 187.686 95.3164C187.868 95.3164 188.096 95.2161 188.369 95.0156C188.652 94.8151 188.934 94.5781 189.217 94.3047C189.508 94.0221 189.777 93.7396 190.023 93.457C190.27 93.1654 190.452 92.9329 190.57 92.7598C190.643 92.6686 190.716 92.6094 190.789 92.582C190.871 92.5547 190.935 92.5592 190.98 92.5957C191.035 92.6322 191.062 92.6914 191.062 92.7734C191.072 92.8555 191.044 92.9512 190.98 93.0605C190.835 93.3158 190.62 93.6211 190.338 93.9766C190.055 94.3229 189.755 94.6602 189.436 94.9883C189.117 95.3073 188.802 95.5807 188.492 95.8086C188.191 96.0365 187.945 96.1549 187.754 96.1641C187.599 96.1732 187.444 96.1458 187.289 96.082C187.143 96.0273 187.007 95.9499 186.879 95.8496C186.76 95.7402 186.66 95.6172 186.578 95.4805C186.496 95.3346 186.451 95.1842 186.441 95.0293C186.414 94.8014 186.414 94.4915 186.441 94.0996C186.469 93.6986 186.519 93.293 186.592 92.8828C186.665 92.4635 186.756 92.0671 186.865 91.6934C186.984 91.3197 187.116 91.0417 187.262 90.8594ZM192.307 95.5352C192.589 95.5352 192.899 95.4258 193.236 95.207C193.583 94.9792 193.915 94.7148 194.234 94.4141C194.562 94.1133 194.859 93.8079 195.123 93.498C195.396 93.179 195.602 92.9238 195.738 92.7324C195.82 92.6139 195.898 92.5456 195.971 92.5273C196.044 92.5 196.098 92.5091 196.135 92.5547C196.171 92.6003 196.185 92.6732 196.176 92.7734C196.167 92.8646 196.126 92.9694 196.053 93.0879C195.989 93.1973 195.88 93.3568 195.725 93.5664C195.579 93.7669 195.401 93.9902 195.191 94.2363C194.991 94.4733 194.758 94.7194 194.494 94.9746C194.239 95.2207 193.97 95.4486 193.688 95.6582C193.405 95.8587 193.113 96.0228 192.812 96.1504C192.512 96.2871 192.215 96.3555 191.924 96.3555C191.523 96.3555 191.186 96.278 190.912 96.123C190.648 95.9772 190.434 95.7858 190.27 95.5488C190.115 95.3118 190.005 95.0521 189.941 94.7695C189.878 94.4779 189.846 94.1908 189.846 93.9082C189.846 93.6257 189.91 93.2747 190.037 92.8555C190.165 92.4362 190.352 92.0352 190.598 91.6523C190.853 91.2604 191.172 90.9277 191.555 90.6543C191.938 90.3717 192.389 90.2305 192.908 90.2305C193.2 90.2305 193.446 90.3307 193.646 90.5312C193.856 90.7318 193.956 91.0052 193.947 91.3516C193.947 91.5156 193.92 91.6797 193.865 91.8438C193.811 91.9987 193.738 92.14 193.646 92.2676C193.555 92.3861 193.446 92.4818 193.318 92.5547C193.2 92.6276 193.068 92.6641 192.922 92.6641C192.803 92.6641 192.712 92.623 192.648 92.541C192.594 92.4499 192.557 92.3496 192.539 92.2402C192.53 92.1217 192.53 92.0078 192.539 91.8984C192.557 91.7891 192.576 91.7161 192.594 91.6797C192.639 91.6159 192.689 91.5703 192.744 91.543C192.799 91.5156 192.863 91.4837 192.936 91.4473C192.99 91.4199 193.031 91.3789 193.059 91.3242C193.095 91.2695 193.113 91.2103 193.113 91.1465C193.113 91.0827 193.095 91.028 193.059 90.9824C193.022 90.9368 192.963 90.9141 192.881 90.9141C192.799 90.9141 192.648 90.9824 192.43 91.1191C192.22 91.2467 192.001 91.4427 191.773 91.707C191.555 91.9622 191.359 92.2858 191.186 92.6777C191.012 93.0697 190.921 93.5254 190.912 94.0449C190.903 94.3457 190.944 94.5918 191.035 94.7832C191.126 94.9746 191.24 95.125 191.377 95.2344C191.514 95.3438 191.664 95.4212 191.828 95.4668C191.992 95.5124 192.152 95.5352 192.307 95.5352Z" fill="#005B6F"/>
<defs>
<clipPath id="clip0_9_10">
<rect width="94" height="94" fill="white" transform="translate(0.796814 47.7968) rotate(-30)"/>
</clipPath>
</defs>
</svg>
