<svg width="250" height="129" viewBox="0 0 250 129" fill="none" xmlns="http://www.w3.org/2000/svg">
<g clip-path="url(#clip0_12_17)">
<path d="M36.0251 26.4129C19.5052 37.4558 12.939 50.0235 16.9659 62.9834C19.2809 70.4447 24.3852 76.8255 34.2437 84.5743C37.1711 86.8908 44.5325 91.8201 48.2563 93.9737C60.9434 101.298 74.116 106.158 81.4465 106.187C84.8442 106.197 87.6367 105.305 89.3236 103.674C92.6817 100.421 95.1708 93.7899 96.6467 84.1188C99.1675 67.7389 98.027 47.3674 93.9373 35.1432C91.5074 27.9603 87.719 22.5369 82.6823 19.0638C80.1856 17.3465 78.1822 16.4468 75.0724 15.6135C67.592 13.636 59.4991 14.7469 48.9529 19.2459C46.3232 20.3825 39.0154 24.4321 36.0251 26.4129Z" fill="url(#paint0_linear_12_17)"/>
<path d="M44.78 76.36C42.524 76.36 40.592 75.988 38.984 75.244C37.4 74.476 36.164 73.372 35.276 71.932C34.412 70.468 33.944 68.704 33.872 66.64C33.848 65.608 33.836 64.504 33.836 63.328C33.836 62.152 33.848 61.036 33.872 59.98C33.944 57.964 34.412 56.248 35.276 54.832C36.164 53.416 37.412 52.336 39.02 51.592C40.652 50.824 42.572 50.44 44.78 50.44C46.556 50.44 48.116 50.668 49.46 51.124C50.804 51.58 51.932 52.18 52.844 52.924C53.756 53.644 54.452 54.436 54.932 55.3C55.412 56.164 55.664 56.992 55.688 57.784C55.688 58 55.616 58.192 55.472 58.36C55.328 58.504 55.136 58.576 54.896 58.576H50.432C50.192 58.576 50 58.528 49.856 58.432C49.736 58.336 49.628 58.192 49.532 58C49.364 57.568 49.088 57.136 48.704 56.704C48.344 56.248 47.852 55.864 47.228 55.552C46.604 55.24 45.788 55.084 44.78 55.084C43.268 55.084 42.068 55.48 41.18 56.272C40.316 57.064 39.848 58.36 39.776 60.16C39.704 62.224 39.704 64.324 39.776 66.46C39.848 68.332 40.328 69.676 41.216 70.492C42.128 71.308 43.34 71.716 44.852 71.716C45.836 71.716 46.712 71.548 47.48 71.212C48.272 70.852 48.896 70.3 49.352 69.556C49.808 68.812 50.036 67.864 50.036 66.712V65.812H46.112C45.872 65.812 45.668 65.728 45.5 65.56C45.332 65.368 45.248 65.152 45.248 64.912V62.608C45.248 62.344 45.332 62.128 45.5 61.96C45.668 61.792 45.872 61.708 46.112 61.708H54.932C55.196 61.708 55.412 61.792 55.58 61.96C55.748 62.128 55.832 62.344 55.832 62.608V66.532C55.832 68.596 55.376 70.36 54.464 71.824C53.576 73.288 52.292 74.416 50.612 75.208C48.956 75.976 47.012 76.36 44.78 76.36ZM70.5186 76.36C68.4066 76.36 66.5586 76.012 64.9746 75.316C63.3906 74.596 62.1666 73.504 61.3026 72.04C60.4386 70.552 60.0066 68.668 60.0066 66.388V51.7C60.0066 51.436 60.0906 51.22 60.2586 51.052C60.4266 50.884 60.6426 50.8 60.9066 50.8H64.8306C65.0946 50.8 65.3106 50.884 65.4786 51.052C65.6466 51.22 65.7306 51.436 65.7306 51.7V66.352C65.7306 68.128 66.1506 69.448 66.9906 70.312C67.8306 71.176 69.0066 71.608 70.5186 71.608C72.0066 71.608 73.1706 71.176 74.0106 70.312C74.8506 69.448 75.2706 68.128 75.2706 66.352V51.7C75.2706 51.436 75.3546 51.22 75.5226 51.052C75.7146 50.884 75.9306 50.8 76.1706 50.8H80.1306C80.3706 50.8 80.5746 50.884 80.7426 51.052C80.9106 51.22 80.9946 51.436 80.9946 51.7V66.388C80.9946 68.668 80.5626 70.552 79.6986 72.04C78.8346 73.504 77.6226 74.596 76.0626 75.316C74.5026 76.012 72.6546 76.36 70.5186 76.36ZM86.9976 76C86.7336 76 86.5176 75.916 86.3496 75.748C86.1816 75.58 86.0976 75.364 86.0976 75.1V51.7C86.0976 51.436 86.1816 51.22 86.3496 51.052C86.5176 50.884 86.7336 50.8 86.9976 50.8H91.0656C91.3296 50.8 91.5456 50.884 91.7136 51.052C91.8816 51.22 91.9656 51.436 91.9656 51.7V75.1C91.9656 75.364 91.8816 75.58 91.7136 75.748C91.5456 75.916 91.3296 76 91.0656 76H86.9976Z" fill="white"/>
</g>
<path d="M116.108 76C115.844 76 115.628 75.916 115.46 75.748C115.292 75.58 115.208 75.364 115.208 75.1V55.804H108.656C108.416 55.804 108.212 55.72 108.044 55.552C107.876 55.384 107.792 55.18 107.792 54.94V51.7C107.792 51.436 107.876 51.22 108.044 51.052C108.212 50.884 108.416 50.8 108.656 50.8H127.52C127.784 50.8 128 50.884 128.168 51.052C128.336 51.22 128.42 51.436 128.42 51.7V54.94C128.42 55.18 128.336 55.384 128.168 55.552C128 55.72 127.784 55.804 127.52 55.804H121.004V75.1C121.004 75.364 120.92 75.58 120.752 75.748C120.584 75.916 120.368 76 120.104 76H116.108ZM130.206 76C129.966 76 129.762 75.916 129.594 75.748C129.426 75.58 129.342 75.364 129.342 75.1V58.18C129.342 57.94 129.426 57.736 129.594 57.568C129.762 57.376 129.966 57.28 130.206 57.28H133.734C133.974 57.28 134.178 57.376 134.346 57.568C134.538 57.736 134.634 57.94 134.634 58.18V59.62C135.234 58.876 135.966 58.3 136.83 57.892C137.718 57.484 138.738 57.28 139.89 57.28H141.438C141.678 57.28 141.882 57.364 142.05 57.532C142.218 57.7 142.302 57.916 142.302 58.18V61.276C142.302 61.54 142.218 61.756 142.05 61.924C141.882 62.092 141.678 62.176 141.438 62.176H138.27C137.214 62.176 136.386 62.476 135.786 63.076C135.186 63.652 134.886 64.48 134.886 65.56V75.1C134.886 75.364 134.802 75.58 134.634 75.748C134.466 75.916 134.25 76 133.986 76H130.206ZM150.178 76.36C148.906 76.36 147.766 76.12 146.758 75.64C145.75 75.136 144.946 74.464 144.346 73.624C143.746 72.784 143.446 71.848 143.446 70.816C143.446 69.112 144.13 67.768 145.498 66.784C146.89 65.8 148.714 65.128 150.97 64.768L155.686 64.084V63.436C155.686 62.5 155.47 61.78 155.038 61.276C154.606 60.772 153.85 60.52 152.77 60.52C151.978 60.52 151.342 60.676 150.862 60.988C150.382 61.3 150.01 61.708 149.746 62.212C149.554 62.524 149.278 62.68 148.918 62.68H145.498C145.234 62.68 145.03 62.608 144.886 62.464C144.742 62.296 144.682 62.104 144.706 61.888C144.706 61.48 144.862 61 145.174 60.448C145.486 59.896 145.966 59.356 146.614 58.828C147.262 58.276 148.09 57.82 149.098 57.46C150.106 57.1 151.342 56.92 152.806 56.92C154.318 56.92 155.614 57.1 156.694 57.46C157.774 57.82 158.638 58.324 159.286 58.972C159.934 59.62 160.414 60.376 160.726 61.24C161.038 62.08 161.194 62.992 161.194 63.976V75.1C161.194 75.364 161.11 75.58 160.942 75.748C160.774 75.916 160.558 76 160.294 76H156.766C156.526 76 156.322 75.916 156.154 75.748C155.986 75.58 155.902 75.364 155.902 75.1V73.768C155.59 74.224 155.17 74.656 154.642 75.064C154.114 75.448 153.478 75.76 152.734 76C152.014 76.24 151.162 76.36 150.178 76.36ZM151.618 72.616C152.41 72.616 153.118 72.448 153.742 72.112C154.366 71.776 154.858 71.26 155.218 70.564C155.578 69.868 155.758 68.992 155.758 67.936V67.324L152.41 67.864C151.114 68.08 150.166 68.404 149.566 68.836C148.966 69.268 148.666 69.796 148.666 70.42C148.666 70.876 148.798 71.272 149.062 71.608C149.35 71.944 149.722 72.196 150.178 72.364C150.634 72.532 151.114 72.616 151.618 72.616ZM166.417 76C166.177 76 165.973 75.916 165.805 75.748C165.637 75.58 165.553 75.364 165.553 75.1V58.18C165.553 57.916 165.637 57.7 165.805 57.532C165.973 57.364 166.177 57.28 166.417 57.28H169.945C170.209 57.28 170.425 57.364 170.593 57.532C170.761 57.7 170.845 57.916 170.845 58.18V59.584C171.469 58.816 172.273 58.18 173.257 57.676C174.241 57.172 175.441 56.92 176.857 56.92C178.273 56.92 179.509 57.244 180.565 57.892C181.645 58.516 182.485 59.44 183.085 60.664C183.709 61.864 184.021 63.328 184.021 65.056V75.1C184.021 75.364 183.925 75.58 183.733 75.748C183.565 75.916 183.361 76 183.121 76H179.305C179.041 76 178.825 75.916 178.657 75.748C178.489 75.58 178.405 75.364 178.405 75.1V65.272C178.405 64 178.093 63.016 177.469 62.32C176.869 61.6 175.981 61.24 174.805 61.24C173.677 61.24 172.777 61.6 172.105 62.32C171.433 63.016 171.097 64 171.097 65.272V75.1C171.097 75.364 171.013 75.58 170.845 75.748C170.677 75.916 170.473 76 170.233 76H166.417ZM195.714 76.36C194.226 76.36 192.942 76.192 191.862 75.856C190.806 75.496 189.942 75.064 189.27 74.56C188.622 74.056 188.13 73.552 187.794 73.048C187.482 72.52 187.314 72.076 187.29 71.716C187.266 71.452 187.35 71.236 187.542 71.068C187.734 70.9 187.926 70.816 188.118 70.816H191.61C191.682 70.816 191.754 70.828 191.826 70.852C191.898 70.876 191.97 70.936 192.042 71.032C192.354 71.248 192.678 71.5 193.014 71.788C193.35 72.052 193.734 72.28 194.166 72.472C194.622 72.664 195.186 72.76 195.858 72.76C196.65 72.76 197.322 72.604 197.874 72.292C198.426 71.956 198.702 71.488 198.702 70.888C198.702 70.456 198.57 70.096 198.306 69.808C198.066 69.52 197.598 69.256 196.902 69.016C196.206 68.776 195.174 68.512 193.806 68.224C192.51 67.936 191.406 67.552 190.494 67.072C189.582 66.592 188.898 65.992 188.442 65.272C187.986 64.528 187.758 63.64 187.758 62.608C187.758 61.672 188.046 60.772 188.622 59.908C189.222 59.044 190.098 58.336 191.25 57.784C192.402 57.208 193.842 56.92 195.57 56.92C196.89 56.92 198.042 57.088 199.026 57.424C200.034 57.736 200.874 58.144 201.546 58.648C202.218 59.128 202.722 59.632 203.058 60.16C203.418 60.664 203.61 61.108 203.634 61.492C203.658 61.732 203.586 61.936 203.418 62.104C203.25 62.272 203.058 62.356 202.842 62.356H199.638C199.518 62.356 199.41 62.344 199.314 62.32C199.218 62.272 199.134 62.212 199.062 62.14C198.774 61.948 198.474 61.732 198.162 61.492C197.874 61.228 197.526 61 197.118 60.808C196.71 60.616 196.182 60.52 195.534 60.52C194.742 60.52 194.13 60.7 193.698 61.06C193.29 61.396 193.086 61.828 193.086 62.356C193.086 62.692 193.194 63.004 193.41 63.292C193.626 63.58 194.07 63.844 194.742 64.084C195.414 64.324 196.434 64.576 197.802 64.84C199.434 65.128 200.73 65.56 201.69 66.136C202.65 66.712 203.334 67.384 203.742 68.152C204.174 68.896 204.39 69.7 204.39 70.564C204.39 71.692 204.054 72.7 203.382 73.588C202.71 74.452 201.726 75.136 200.43 75.64C199.158 76.12 197.586 76.36 195.714 76.36ZM208.746 82.84C208.482 82.84 208.266 82.756 208.098 82.588C207.93 82.42 207.846 82.204 207.846 81.94V58.18C207.846 57.916 207.93 57.7 208.098 57.532C208.266 57.364 208.482 57.28 208.746 57.28H212.166C212.43 57.28 212.646 57.364 212.814 57.532C212.982 57.7 213.066 57.916 213.066 58.18V59.548C213.642 58.78 214.386 58.156 215.298 57.676C216.21 57.172 217.35 56.92 218.718 56.92C219.966 56.92 221.046 57.124 221.958 57.532C222.894 57.916 223.674 58.48 224.298 59.224C224.946 59.944 225.438 60.82 225.774 61.852C226.134 62.884 226.338 64.048 226.386 65.344C226.41 65.8 226.422 66.232 226.422 66.64C226.422 67.048 226.41 67.492 226.386 67.972C226.362 69.196 226.17 70.324 225.81 71.356C225.474 72.388 224.982 73.276 224.334 74.02C223.686 74.764 222.894 75.34 221.958 75.748C221.046 76.156 219.966 76.36 218.718 76.36C217.494 76.36 216.426 76.144 215.514 75.712C214.626 75.256 213.894 74.644 213.318 73.876V81.94C213.318 82.204 213.234 82.42 213.066 82.588C212.898 82.756 212.694 82.84 212.454 82.84H208.746ZM217.098 72.04C218.01 72.04 218.73 71.848 219.258 71.464C219.786 71.056 220.158 70.528 220.374 69.88C220.614 69.232 220.758 68.524 220.806 67.756C220.854 67.012 220.854 66.268 220.806 65.524C220.758 64.756 220.614 64.048 220.374 63.4C220.158 62.752 219.786 62.236 219.258 61.852C218.73 61.444 218.01 61.24 217.098 61.24C216.21 61.24 215.49 61.444 214.938 61.852C214.386 62.26 213.99 62.776 213.75 63.4C213.51 64.024 213.366 64.696 213.318 65.416C213.294 65.848 213.282 66.292 213.282 66.748C213.282 67.204 213.294 67.66 213.318 68.116C213.342 68.788 213.486 69.424 213.75 70.024C214.038 70.6 214.446 71.08 214.974 71.464C215.526 71.848 216.234 72.04 217.098 72.04ZM238.809 76.36C236.817 76.36 235.149 76.036 233.805 75.388C232.461 74.716 231.429 73.768 230.709 72.544C230.013 71.32 229.629 69.892 229.557 68.26C229.533 67.78 229.521 67.24 229.521 66.64C229.521 66.016 229.533 65.476 229.557 65.02C229.629 63.364 230.037 61.936 230.781 60.736C231.525 59.512 232.569 58.576 233.913 57.928C235.257 57.256 236.889 56.92 238.809 56.92C240.705 56.92 242.325 57.256 243.669 57.928C245.013 58.576 246.057 59.512 246.801 60.736C247.545 61.936 247.953 63.364 248.025 65.02C248.073 65.476 248.097 66.016 248.097 66.64C248.097 67.24 248.073 67.78 248.025 68.26C247.953 69.892 247.557 71.32 246.837 72.544C246.141 73.768 245.121 74.716 243.777 75.388C242.433 76.036 240.777 76.36 238.809 76.36ZM238.809 72.4C239.985 72.4 240.873 72.04 241.473 71.32C242.073 70.576 242.397 69.496 242.445 68.08C242.469 67.72 242.481 67.24 242.481 66.64C242.481 66.04 242.469 65.56 242.445 65.2C242.397 63.808 242.073 62.74 241.473 61.996C240.873 61.252 239.985 60.88 238.809 60.88C237.633 60.88 236.733 61.252 236.109 61.996C235.509 62.74 235.185 63.808 235.137 65.2C235.113 65.56 235.101 66.04 235.101 66.64C235.101 67.24 235.113 67.72 235.137 68.08C235.185 69.496 235.509 70.576 236.109 71.32C236.733 72.04 237.633 72.4 238.809 72.4Z" fill="#F57C00"/>
<path d="M118.92 87.7051C119.239 87.7051 119.499 87.7962 119.699 87.9785C119.909 88.1517 120 88.4707 119.973 88.9355C119.964 89.0905 119.927 89.3822 119.863 89.8105C119.799 90.2298 119.722 90.7266 119.631 91.3008C119.54 91.875 119.435 92.4948 119.316 93.1602C119.207 93.8164 119.102 94.459 119.002 95.0879H119.289C119.38 95.0879 119.48 95.0833 119.59 95.0742C119.699 95.0651 119.813 95.0514 119.932 95.0332C119.886 95.1426 119.836 95.2474 119.781 95.3477C119.727 95.4388 119.672 95.5208 119.617 95.5938C119.553 95.6758 119.49 95.7487 119.426 95.8125C119.344 95.9128 119.248 96.0039 119.139 96.0859C119.029 96.1589 118.924 96.2181 118.824 96.2637C118.76 96.7103 118.706 97.1113 118.66 97.4668C118.624 97.8132 118.601 98.1003 118.592 98.3281C118.574 98.6745 118.583 98.998 118.619 99.2988C118.646 99.5632 118.701 99.832 118.783 100.105C118.865 100.379 118.997 100.598 119.18 100.762L117.594 101.281C117.484 101.126 117.402 100.917 117.348 100.652C117.302 100.397 117.27 100.142 117.252 99.8867C117.225 99.5859 117.22 99.276 117.238 98.957C117.257 98.638 117.307 98.2233 117.389 97.7129C117.471 97.1934 117.562 96.6283 117.662 96.0176C117.48 95.9629 117.279 95.9173 117.061 95.8809C116.851 95.8444 116.614 95.8262 116.35 95.8262C116.113 95.8262 115.862 95.8353 115.598 95.8535C115.342 95.8717 115.087 95.8945 114.832 95.9219C114.723 96.3229 114.613 96.7467 114.504 97.1934C114.385 97.6764 114.276 98.0866 114.176 98.4238C114.085 98.7702 113.993 99.0573 113.902 99.2852C113.82 99.513 113.734 99.6953 113.643 99.832C113.561 99.9688 113.469 100.069 113.369 100.133C113.26 100.188 113.123 100.238 112.959 100.283C112.804 100.329 112.608 100.374 112.371 100.42C112.134 100.465 111.829 100.502 111.455 100.529C111.592 100.365 111.71 100.215 111.811 100.078C111.911 99.9414 112.011 99.7728 112.111 99.5723C112.212 99.3717 112.326 99.112 112.453 98.793C112.572 98.4831 112.727 98.0729 112.918 97.5625C113 97.3529 113.082 97.125 113.164 96.8789C113.255 96.6237 113.351 96.3639 113.451 96.0996C113.123 96.1452 112.845 96.1862 112.617 96.2227C112.389 96.2591 112.253 96.2865 112.207 96.3047C112.134 96.3138 112.075 96.3138 112.029 96.3047C111.911 96.2865 111.847 96.2272 111.838 96.127C111.847 95.9993 111.893 95.9128 111.975 95.8672C112.048 95.8216 112.161 95.7669 112.316 95.7031C112.389 95.6667 112.558 95.6029 112.822 95.5117C113.077 95.4115 113.392 95.3066 113.766 95.1973C113.902 94.8145 114.035 94.4362 114.162 94.0625C114.299 93.6797 114.431 93.3151 114.559 92.9688C114.686 92.6224 114.809 92.2988 114.928 91.998C115.046 91.6882 115.156 91.4238 115.256 91.2051C115.411 90.8678 115.607 90.4987 115.844 90.0977C116.09 89.6875 116.368 89.3047 116.678 88.9492C116.997 88.5938 117.343 88.2975 117.717 88.0605C118.1 87.8236 118.501 87.7051 118.92 87.7051ZM118.77 90.5488C118.87 90.1387 118.938 89.8014 118.975 89.5371C119.011 89.2728 119.025 89.0677 119.016 88.9219C119.007 88.7669 118.975 88.6621 118.92 88.6074C118.874 88.5436 118.815 88.5117 118.742 88.5117C118.624 88.5117 118.478 88.5573 118.305 88.6484C118.132 88.7396 117.949 88.8717 117.758 89.0449C117.566 89.209 117.375 89.4186 117.184 89.6738C117.001 89.9199 116.837 90.2025 116.691 90.5215C116.482 90.9954 116.245 91.5788 115.98 92.2715C115.716 92.9551 115.429 93.8301 115.119 94.8965C115.301 94.8691 115.479 94.8464 115.652 94.8281C115.835 94.8099 116.012 94.8008 116.186 94.8008C116.495 94.8008 116.792 94.8145 117.074 94.8418C117.357 94.86 117.617 94.8828 117.854 94.9102C117.936 94.4727 118.018 94.0443 118.1 93.625C118.191 93.1966 118.277 92.791 118.359 92.4082C118.441 92.0254 118.514 91.6745 118.578 91.3555C118.651 91.0365 118.715 90.7676 118.77 90.5488ZM120.533 97.7812C120.934 96.0951 121.253 94.7415 121.49 93.7207C121.736 92.6999 121.923 91.9206 122.051 91.3828C122.197 90.7448 122.297 90.3027 122.352 90.0566C122.379 89.8835 122.402 89.7148 122.42 89.5508C122.438 89.4049 122.447 89.2546 122.447 89.0996C122.447 88.9447 122.434 88.8034 122.406 88.6758C122.479 88.6302 122.557 88.5938 122.639 88.5664C122.73 88.5391 122.816 88.5163 122.898 88.498C122.999 88.4707 123.099 88.4479 123.199 88.4297C123.299 88.4115 123.391 88.4023 123.473 88.4023C123.546 88.4023 123.614 88.4115 123.678 88.4297C123.742 88.4388 123.783 88.4661 123.801 88.5117C123.855 88.5573 123.878 88.6484 123.869 88.7852C123.869 88.9219 123.86 89.0632 123.842 89.209C123.805 89.3822 123.764 89.569 123.719 89.7695C123.609 90.1615 123.459 90.7266 123.268 91.4648C123.104 92.0938 122.88 92.9505 122.598 94.0352C122.324 95.1198 121.978 96.487 121.559 98.1367C121.513 98.1823 121.458 98.2142 121.395 98.2324C121.331 98.2507 121.271 98.2598 121.217 98.2598C121.153 98.2598 121.085 98.2552 121.012 98.2461C120.948 98.2279 120.884 98.2005 120.82 98.1641C120.766 98.1276 120.711 98.0775 120.656 98.0137C120.602 97.959 120.561 97.8815 120.533 97.7812ZM127.848 95.8262C127.757 96.1725 127.633 96.4961 127.479 96.7969C127.324 97.0977 127.137 97.3574 126.918 97.5762C126.708 97.7949 126.467 97.9635 126.193 98.082C125.929 98.2096 125.637 98.2734 125.318 98.2734C124.945 98.2734 124.648 98.1914 124.43 98.0273C124.22 97.8724 124.061 97.6764 123.951 97.4395C123.851 97.2025 123.792 96.9427 123.773 96.6602C123.746 96.3776 123.732 96.1133 123.732 95.8672C123.732 95.694 123.755 95.5026 123.801 95.293C123.837 95.0833 123.892 94.8691 123.965 94.6504C124.038 94.4316 124.129 94.2129 124.238 93.9941C124.357 93.7754 124.493 93.5749 124.648 93.3926C124.703 93.2376 124.785 93.1009 124.895 92.9824C125.013 92.8639 125.145 92.7682 125.291 92.6953C125.446 92.6133 125.61 92.554 125.783 92.5176C125.956 92.472 126.125 92.4492 126.289 92.4492C126.316 92.4492 126.339 92.4538 126.357 92.4629C126.385 92.472 126.412 92.4811 126.439 92.4902C126.558 92.4993 126.704 92.5449 126.877 92.627C127.059 92.709 127.232 92.832 127.396 92.9961C127.57 93.1602 127.715 93.3698 127.834 93.625C127.952 93.8711 128.012 94.1719 128.012 94.5273C128.012 94.6003 128.007 94.6914 127.998 94.8008C127.989 94.901 127.98 94.9876 127.971 95.0605C128.18 94.9785 128.399 94.8783 128.627 94.7598C128.855 94.6413 129.074 94.5182 129.283 94.3906C129.502 94.2539 129.702 94.1172 129.885 93.9805C130.067 93.8438 130.213 93.7207 130.322 93.6113C130.413 93.5293 130.491 93.4837 130.555 93.4746C130.618 93.4655 130.664 93.4837 130.691 93.5293C130.719 93.5749 130.723 93.6387 130.705 93.7207C130.687 93.8027 130.637 93.8939 130.555 93.9941C130.509 94.0488 130.391 94.1582 130.199 94.3223C130.017 94.4863 129.798 94.6641 129.543 94.8555C129.288 95.0469 129.01 95.2337 128.709 95.416C128.408 95.5983 128.121 95.735 127.848 95.8262ZM125.537 93.748C125.51 93.8301 125.496 93.9167 125.496 94.0078C125.496 94.1536 125.505 94.3086 125.523 94.4727C125.542 94.6276 125.587 94.7689 125.66 94.8965C125.733 95.0241 125.847 95.1335 126.002 95.2246C126.166 95.3066 126.389 95.3477 126.672 95.3477C126.717 95.3477 126.763 95.3477 126.809 95.3477C126.854 95.3385 126.9 95.3294 126.945 95.3203C126.973 95.2018 126.995 95.097 127.014 95.0059C127.041 94.9056 127.055 94.819 127.055 94.7461C127.073 94.5729 127.073 94.3952 127.055 94.2129C127.036 94.0306 127 93.8665 126.945 93.7207C126.9 93.5658 126.836 93.4427 126.754 93.3516C126.681 93.2513 126.59 93.2012 126.48 93.2012C126.307 93.2012 126.139 93.2513 125.975 93.3516C125.82 93.4427 125.674 93.5749 125.537 93.748ZM124.662 96.1543C124.662 96.3184 124.671 96.4824 124.689 96.6465C124.708 96.8014 124.744 96.9427 124.799 97.0703C124.854 97.1888 124.926 97.2891 125.018 97.3711C125.109 97.444 125.227 97.4805 125.373 97.4805C125.537 97.4805 125.688 97.444 125.824 97.3711C125.961 97.2891 126.084 97.1888 126.193 97.0703C126.303 96.9427 126.398 96.8014 126.48 96.6465C126.572 96.4824 126.649 96.3138 126.713 96.1406C126.649 96.1497 126.585 96.1589 126.521 96.168C126.467 96.168 126.403 96.168 126.33 96.168C125.984 96.168 125.683 96.0677 125.428 95.8672C125.182 95.6576 124.99 95.3932 124.854 95.0742C124.799 95.2656 124.753 95.4525 124.717 95.6348C124.68 95.8171 124.662 95.9902 124.662 96.1543ZM133.371 98.3418C133.161 98.3418 132.979 98.3008 132.824 98.2188C132.678 98.1458 132.56 98.0456 132.469 97.918C132.378 97.7904 132.318 97.6445 132.291 97.4805C132.264 97.3073 132.273 97.125 132.318 96.9336C132.346 96.806 132.391 96.6374 132.455 96.4277C132.519 96.209 132.583 95.9766 132.646 95.7305C132.719 95.4753 132.783 95.2246 132.838 94.9785C132.902 94.7233 132.943 94.4954 132.961 94.2949C132.979 94.0853 132.97 93.9167 132.934 93.7891C132.897 93.6523 132.82 93.584 132.701 93.584C132.555 93.584 132.405 93.6341 132.25 93.7344C132.095 93.8255 131.936 93.9531 131.771 94.1172C131.617 94.2812 131.457 94.4727 131.293 94.6914C131.138 94.901 130.983 95.1198 130.828 95.3477C130.746 95.6576 130.678 95.931 130.623 96.168C130.568 96.3958 130.518 96.6055 130.473 96.7969C130.436 96.9792 130.4 97.1432 130.363 97.2891C130.327 97.4258 130.295 97.5579 130.268 97.6855C130.24 97.7767 130.158 97.8678 130.021 97.959C129.885 98.041 129.739 98.1094 129.584 98.1641C129.429 98.2188 129.297 98.2461 129.188 98.2461C129.069 98.2461 129.019 98.2051 129.037 98.123C129.046 98.0684 129.078 97.9453 129.133 97.7539C129.178 97.5625 129.238 97.3392 129.311 97.084C129.374 96.8197 129.443 96.5417 129.516 96.25C129.589 95.9583 129.657 95.6803 129.721 95.416C129.766 95.2064 129.816 94.974 129.871 94.7188C129.917 94.5 129.971 94.2448 130.035 93.9531C130.108 93.6615 130.19 93.3424 130.281 92.9961C130.345 92.9414 130.409 92.9004 130.473 92.873C130.546 92.8366 130.618 92.8092 130.691 92.791C130.764 92.7637 130.842 92.7454 130.924 92.7363C130.997 92.7363 131.07 92.7409 131.143 92.75C131.206 92.7591 131.27 92.7773 131.334 92.8047C131.407 92.8229 131.471 92.8548 131.525 92.9004C131.498 92.9642 131.466 93.0553 131.43 93.1738C131.393 93.2832 131.357 93.4017 131.32 93.5293C131.284 93.6751 131.238 93.8255 131.184 93.9805C131.302 93.8164 131.434 93.6523 131.58 93.4883C131.735 93.3151 131.899 93.1602 132.072 93.0234C132.255 92.8867 132.446 92.7773 132.646 92.6953C132.847 92.6042 133.052 92.5586 133.262 92.5586C133.435 92.5586 133.59 92.6087 133.727 92.709C133.863 92.8092 133.968 92.9505 134.041 93.1328C134.123 93.306 134.169 93.5156 134.178 93.7617C134.196 94.0078 134.164 94.2767 134.082 94.5684L133.932 95.1699C133.886 95.3613 133.827 95.5892 133.754 95.8535C133.69 96.1087 133.608 96.3913 133.508 96.7012C133.453 96.9017 133.43 97.0749 133.439 97.2207C133.458 97.3665 133.549 97.4395 133.713 97.4395C133.877 97.4395 134.082 97.3392 134.328 97.1387C134.583 96.9382 134.839 96.6966 135.094 96.4141C135.349 96.1315 135.59 95.8444 135.818 95.5527C136.046 95.252 136.219 95.0104 136.338 94.8281C136.42 94.7096 136.497 94.6322 136.57 94.5957C136.643 94.5592 136.698 94.5547 136.734 94.582C136.78 94.6094 136.803 94.6732 136.803 94.7734C136.803 94.8646 136.766 94.9831 136.693 95.1289C136.63 95.2565 136.529 95.4251 136.393 95.6348C136.265 95.8444 136.11 96.0677 135.928 96.3047C135.745 96.5417 135.549 96.7832 135.34 97.0293C135.13 97.2663 134.911 97.485 134.684 97.6855C134.456 97.877 134.228 98.0319 134 98.1504C133.781 98.278 133.572 98.3418 133.371 98.3418ZM139.387 99.9551C139.341 100.174 139.282 100.447 139.209 100.775C139.145 101.104 139.068 101.45 138.977 101.814C138.895 102.179 138.794 102.539 138.676 102.895C138.566 103.259 138.443 103.583 138.307 103.865C138.17 104.157 138.02 104.394 137.855 104.576C137.691 104.758 137.509 104.85 137.309 104.85C137.008 104.85 136.748 104.758 136.529 104.576C136.32 104.403 136.142 104.18 135.996 103.906C135.85 103.642 135.745 103.355 135.682 103.045C135.609 102.735 135.572 102.448 135.572 102.184C135.572 101.819 135.604 101.514 135.668 101.268C135.732 101.031 135.841 100.803 135.996 100.584C136.16 100.365 136.379 100.133 136.652 99.8867C136.926 99.6406 137.277 99.3353 137.705 98.9707C137.915 98.7884 138.115 98.6152 138.307 98.4512C138.498 98.2871 138.68 98.1367 138.854 98C138.899 97.8177 138.94 97.6491 138.977 97.4941C139.022 97.3301 139.059 97.1842 139.086 97.0566C138.849 97.3757 138.562 97.6445 138.225 97.8633C137.896 98.082 137.518 98.1914 137.09 98.1914C136.698 98.1914 136.379 98.0182 136.133 97.6719C135.896 97.3164 135.777 96.7969 135.777 96.1133C135.777 95.776 135.841 95.3887 135.969 94.9512C136.096 94.5137 136.279 94.1035 136.516 93.7207C136.753 93.3379 137.044 93.0143 137.391 92.75C137.737 92.4857 138.124 92.3535 138.553 92.3535C138.753 92.3535 138.926 92.4036 139.072 92.5039C139.218 92.6042 139.341 92.7318 139.441 92.8867C139.542 93.0326 139.619 93.1921 139.674 93.3652C139.729 93.5293 139.77 93.6842 139.797 93.8301C139.815 93.7754 139.829 93.7207 139.838 93.666C139.847 93.6022 139.861 93.5475 139.879 93.502C139.97 93.1921 140.07 92.9824 140.18 92.873C140.298 92.7546 140.471 92.6953 140.699 92.6953C140.827 92.6953 140.932 92.7181 141.014 92.7637C141.105 92.8092 141.15 92.8503 141.15 92.8867C141.105 92.987 141.068 93.0645 141.041 93.1191C141.014 93.1738 140.986 93.2331 140.959 93.2969C140.932 93.3516 140.904 93.4245 140.877 93.5156C140.85 93.6068 140.813 93.7389 140.768 93.9121C140.749 93.9759 140.713 94.1263 140.658 94.3633C140.613 94.5911 140.549 94.8646 140.467 95.1836C140.394 95.5026 140.312 95.8535 140.221 96.2363C140.139 96.6191 140.057 96.9928 139.975 97.3574C140.23 97.2116 140.494 97.0339 140.768 96.8242C141.041 96.6146 141.301 96.4004 141.547 96.1816C141.793 95.9629 142.012 95.7578 142.203 95.5664C142.395 95.3659 142.536 95.2018 142.627 95.0742C142.7 94.9648 142.782 94.8874 142.873 94.8418C142.964 94.7962 143.042 94.7826 143.105 94.8008C143.178 94.8099 143.219 94.8509 143.229 94.9238C143.247 94.9876 143.219 95.0788 143.146 95.1973C142.937 95.5345 142.682 95.8626 142.381 96.1816C142.08 96.4915 141.77 96.7832 141.451 97.0566C141.141 97.321 140.836 97.5579 140.535 97.7676C140.243 97.9681 139.993 98.1322 139.783 98.2598C139.692 98.6699 139.615 99.0026 139.551 99.2578C139.487 99.513 139.432 99.7454 139.387 99.9551ZM137.664 97.2617C137.855 97.2617 138.033 97.2116 138.197 97.1113C138.37 97.0111 138.525 96.8971 138.662 96.7695C138.799 96.6328 138.913 96.4961 139.004 96.3594C139.095 96.2227 139.163 96.1133 139.209 96.0312C139.245 95.9492 139.286 95.8398 139.332 95.7031C139.387 95.5664 139.428 95.4342 139.455 95.3066C139.482 95.179 139.492 95.0651 139.482 94.9648C139.482 94.8646 139.451 94.8099 139.387 94.8008C139.332 94.7917 139.286 94.7552 139.25 94.6914C139.223 94.6276 139.2 94.5547 139.182 94.4727C139.163 94.3906 139.15 94.3086 139.141 94.2266C139.141 94.1445 139.136 94.0716 139.127 94.0078C139.081 93.6888 139.004 93.4564 138.895 93.3105C138.785 93.1647 138.662 93.0918 138.525 93.0918C138.298 93.0918 138.079 93.1829 137.869 93.3652C137.669 93.5475 137.486 93.7845 137.322 94.0762C137.167 94.3587 137.044 94.6732 136.953 95.0195C136.862 95.3568 136.816 95.6803 136.816 95.9902C136.816 96.373 136.871 96.6829 136.98 96.9199C137.09 97.1478 137.318 97.2617 137.664 97.2617ZM137.035 103.605C137.217 103.605 137.363 103.469 137.473 103.195C137.591 102.931 137.714 102.566 137.842 102.102C137.869 101.992 137.906 101.833 137.951 101.623C138.006 101.423 138.065 101.19 138.129 100.926C138.202 100.661 138.275 100.374 138.348 100.064C138.421 99.7637 138.498 99.4583 138.58 99.1484C138.507 99.2122 138.43 99.276 138.348 99.3398C138.275 99.4128 138.197 99.4948 138.115 99.5859C137.915 99.7773 137.719 99.9596 137.527 100.133C137.345 100.315 137.181 100.502 137.035 100.693C136.889 100.894 136.771 101.108 136.68 101.336C136.598 101.564 136.557 101.828 136.557 102.129C136.557 102.43 136.566 102.676 136.584 102.867C136.611 103.059 136.643 103.209 136.68 103.318C136.725 103.428 136.775 103.501 136.83 103.537C136.894 103.583 136.962 103.605 137.035 103.605ZM153.264 95.6348C153.136 95.9629 152.99 96.2819 152.826 96.5918C152.662 96.9017 152.48 97.1797 152.279 97.4258C152.079 97.6719 151.865 97.8678 151.637 98.0137C151.409 98.1595 151.163 98.2324 150.898 98.2324C150.47 98.2324 150.146 98.0911 149.928 97.8086C149.709 97.5169 149.559 97.1615 149.477 96.7422C149.349 96.9336 149.212 97.125 149.066 97.3164C148.921 97.5078 148.766 97.6764 148.602 97.8223C148.438 97.9681 148.269 98.0866 148.096 98.1777C147.923 98.2689 147.749 98.3145 147.576 98.3145C147.339 98.3145 147.139 98.2643 146.975 98.1641C146.811 98.0638 146.674 97.9271 146.564 97.7539C146.464 97.5716 146.391 97.3665 146.346 97.1387C146.3 96.9017 146.277 96.651 146.277 96.3867V96.2227C146.277 95.8854 146.305 95.5391 146.359 95.1836C146.414 94.8281 146.473 94.5 146.537 94.1992C146.61 93.8984 146.683 93.6387 146.756 93.4199C146.829 93.1921 146.883 93.0417 146.92 92.9688C146.984 92.8776 147.12 92.791 147.33 92.709C147.549 92.6178 147.763 92.5814 147.973 92.5996C148.073 92.6087 148.123 92.6497 148.123 92.7227C148.132 92.7956 148.123 92.8867 148.096 92.9961C148.059 93.151 147.995 93.3835 147.904 93.6934C147.813 94.0033 147.717 94.3405 147.617 94.7051C147.526 95.0697 147.444 95.4297 147.371 95.7852C147.298 96.1406 147.262 96.4368 147.262 96.6738C147.262 96.9655 147.307 97.1751 147.398 97.3027C147.49 97.4303 147.631 97.4941 147.822 97.4941C148.05 97.4941 148.301 97.3665 148.574 97.1113C148.857 96.8561 149.13 96.4232 149.395 95.8125C149.385 95.7578 149.381 95.7031 149.381 95.6484C149.381 95.5938 149.381 95.5345 149.381 95.4707C149.381 95.0605 149.395 94.6686 149.422 94.2949C149.458 93.9212 149.522 93.5931 149.613 93.3105C149.714 93.028 149.846 92.8047 150.01 92.6406C150.183 92.4766 150.406 92.3945 150.68 92.3945C150.789 92.3945 150.88 92.4264 150.953 92.4902C151.026 92.554 151.062 92.6452 151.062 92.7637C151.062 93.0553 150.958 93.4701 150.748 94.0078C150.548 94.5365 150.306 95.1198 150.023 95.7578C149.996 95.7943 149.978 95.8307 149.969 95.8672C149.996 96.0404 150.028 96.2227 150.064 96.4141C150.11 96.6055 150.169 96.7832 150.242 96.9473C150.315 97.1022 150.402 97.2344 150.502 97.3438C150.602 97.444 150.721 97.4941 150.857 97.4941C151.058 97.4941 151.24 97.3984 151.404 97.207C151.577 97.0156 151.728 96.7832 151.855 96.5098C151.992 96.2363 152.111 95.9492 152.211 95.6484C152.311 95.3385 152.389 95.0651 152.443 94.8281C152.416 94.7279 152.393 94.6322 152.375 94.541C152.357 94.4408 152.348 94.3268 152.348 94.1992C152.348 93.9167 152.389 93.6751 152.471 93.4746C152.553 93.2741 152.658 93.11 152.785 92.9824C152.922 92.8457 153.063 92.7454 153.209 92.6816C153.364 92.6178 153.505 92.5859 153.633 92.5859C153.861 92.5859 153.975 92.6862 153.975 92.8867C153.975 93.0326 153.938 93.2878 153.865 93.6523C153.792 94.0078 153.688 94.4134 153.551 94.8691C153.715 94.9421 153.924 94.9785 154.18 94.9785C154.417 94.9785 154.635 94.9512 154.836 94.8965C155.036 94.8327 155.219 94.7552 155.383 94.6641C155.547 94.5729 155.697 94.4727 155.834 94.3633C155.971 94.2539 156.103 94.1491 156.23 94.0488C156.331 93.9759 156.413 93.9714 156.477 94.0352C156.54 94.099 156.531 94.1992 156.449 94.3359C156.376 94.4544 156.249 94.5911 156.066 94.7461C155.893 94.901 155.679 95.0514 155.424 95.1973C155.178 95.334 154.9 95.4525 154.59 95.5527C154.289 95.6439 153.97 95.6895 153.633 95.6895C153.578 95.6895 153.519 95.6849 153.455 95.6758C153.391 95.6667 153.327 95.653 153.264 95.6348ZM158.199 89.9473C158.172 90.0475 158.117 90.1478 158.035 90.248C157.962 90.3392 157.876 90.4167 157.775 90.4805C157.684 90.5352 157.589 90.5716 157.488 90.5898C157.388 90.6081 157.306 90.5898 157.242 90.5352C157.051 90.3893 156.951 90.2344 156.941 90.0703C156.932 89.8971 156.973 89.7376 157.064 89.5918C157.156 89.4368 157.27 89.3092 157.406 89.209C157.543 89.0996 157.661 89.0358 157.762 89.0176C157.862 88.9993 157.944 89.0221 158.008 89.0859C158.081 89.1406 158.135 89.2181 158.172 89.3184C158.208 89.4095 158.227 89.5143 158.227 89.6328C158.236 89.7513 158.227 89.8561 158.199 89.9473ZM156.312 92.8594C156.358 92.8047 156.445 92.7591 156.572 92.7227C156.7 92.6862 156.832 92.6589 156.969 92.6406C157.105 92.6133 157.229 92.5996 157.338 92.5996C157.456 92.5905 157.525 92.5905 157.543 92.5996C157.552 92.6087 157.529 92.7044 157.475 92.8867C157.42 93.069 157.352 93.2832 157.27 93.5293C157.188 93.7754 157.101 94.0306 157.01 94.2949C156.919 94.5501 156.85 94.7598 156.805 94.9238C156.759 95.0879 156.704 95.2747 156.641 95.4844C156.577 95.6849 156.518 95.8854 156.463 96.0859C156.417 96.2773 156.385 96.4596 156.367 96.6328C156.349 96.806 156.363 96.9382 156.408 97.0293C156.454 97.1387 156.504 97.2161 156.559 97.2617C156.613 97.2982 156.673 97.3164 156.736 97.3164C156.919 97.3164 157.146 97.2161 157.42 97.0156C157.702 96.8151 157.985 96.5781 158.268 96.3047C158.559 96.0221 158.828 95.7396 159.074 95.457C159.32 95.1654 159.503 94.9329 159.621 94.7598C159.694 94.6686 159.767 94.6094 159.84 94.582C159.922 94.5547 159.986 94.5592 160.031 94.5957C160.086 94.6322 160.113 94.6914 160.113 94.7734C160.122 94.8555 160.095 94.9512 160.031 95.0605C159.885 95.3158 159.671 95.6211 159.389 95.9766C159.106 96.3229 158.805 96.6602 158.486 96.9883C158.167 97.3073 157.853 97.5807 157.543 97.8086C157.242 98.0365 156.996 98.1549 156.805 98.1641C156.65 98.1732 156.495 98.1458 156.34 98.082C156.194 98.0273 156.057 97.9499 155.93 97.8496C155.811 97.7402 155.711 97.6172 155.629 97.4805C155.547 97.3346 155.501 97.1842 155.492 97.0293C155.465 96.8014 155.465 96.4915 155.492 96.0996C155.52 95.6986 155.57 95.293 155.643 94.8828C155.715 94.4635 155.807 94.0671 155.916 93.6934C156.035 93.3197 156.167 93.0417 156.312 92.8594ZM164.078 94.541C164.115 94.4863 164.16 94.4544 164.215 94.4453C164.279 94.4271 164.329 94.4316 164.365 94.459C164.402 94.4863 164.42 94.5319 164.42 94.5957C164.429 94.6595 164.406 94.7461 164.352 94.8555C164.169 95.2018 163.928 95.5755 163.627 95.9766C163.335 96.3776 163.025 96.7559 162.697 97.1113C162.369 97.4577 162.05 97.7448 161.74 97.9727C161.43 98.2005 161.171 98.3145 160.961 98.3145C160.66 98.3145 160.41 98.2552 160.209 98.1367C160.008 98.0182 159.849 97.8724 159.73 97.6992C159.621 97.526 159.544 97.3392 159.498 97.1387C159.452 96.929 159.439 96.7376 159.457 96.5645C159.466 96.4186 159.498 96.1589 159.553 95.7852C159.607 95.4023 159.68 94.9648 159.771 94.4727C159.863 93.9714 159.963 93.4382 160.072 92.873C160.191 92.2988 160.314 91.7474 160.441 91.2188C160.286 91.237 160.132 91.2552 159.977 91.2734C159.822 91.2917 159.68 91.3008 159.553 91.3008C159.261 91.3008 158.988 91.2689 158.732 91.2051C158.468 91.1322 158.272 91.0638 158.145 91C158.072 90.9635 158.04 90.9134 158.049 90.8496C158.058 90.7767 158.085 90.7083 158.131 90.6445C158.176 90.5716 158.236 90.5124 158.309 90.4668C158.372 90.4121 158.432 90.3848 158.486 90.3848C158.66 90.403 158.846 90.4212 159.047 90.4395C159.247 90.4486 159.466 90.4486 159.703 90.4395C159.876 90.4303 160.04 90.4167 160.195 90.3984C160.359 90.3802 160.519 90.3574 160.674 90.3301C160.792 89.8926 160.906 89.5143 161.016 89.1953C161.134 88.8672 161.239 88.6393 161.33 88.5117C161.357 88.4661 161.417 88.4297 161.508 88.4023C161.608 88.3659 161.713 88.3431 161.822 88.334C161.932 88.3158 162.036 88.3158 162.137 88.334C162.237 88.3431 162.31 88.375 162.355 88.4297C162.401 88.5026 162.419 88.6895 162.41 88.9902C162.401 89.291 162.351 89.6738 162.26 90.1387C162.643 90.1387 162.98 90.1615 163.271 90.207C163.572 90.2435 163.827 90.2891 164.037 90.3438C164.247 90.3893 164.415 90.4395 164.543 90.4941C164.671 90.5397 164.766 90.5716 164.83 90.5898C164.894 90.6081 164.926 90.6536 164.926 90.7266C164.935 90.7995 164.921 90.877 164.885 90.959C164.857 91.0319 164.807 91.0957 164.734 91.1504C164.661 91.2051 164.579 91.2233 164.488 91.2051C164.397 91.196 164.292 91.1777 164.174 91.1504C164.064 91.123 163.928 91.1003 163.764 91.082C163.609 91.0638 163.422 91.0456 163.203 91.0273C162.984 91.0091 162.729 91 162.438 91C162.383 91 162.319 91.0046 162.246 91.0137C162.182 91.0137 162.114 91.0137 162.041 91.0137C162.005 91.1595 161.968 91.3053 161.932 91.4512C161.904 91.5879 161.863 91.7337 161.809 91.8887C161.69 92.2533 161.553 92.6497 161.398 93.0781C161.262 93.4518 161.098 93.8802 160.906 94.3633C160.715 94.8464 160.501 95.3613 160.264 95.9082C160.209 96.3001 160.214 96.6009 160.277 96.8105C160.35 97.0111 160.437 97.1569 160.537 97.248C160.656 97.3483 160.801 97.403 160.975 97.4121C161.111 97.4303 161.275 97.3848 161.467 97.2754C161.667 97.1569 161.872 97.002 162.082 96.8105C162.292 96.6191 162.501 96.4095 162.711 96.1816C162.93 95.9538 163.13 95.7305 163.312 95.5117C163.495 95.293 163.654 95.097 163.791 94.9238C163.928 94.7415 164.023 94.6139 164.078 94.541ZM170.312 94.9922C170.376 94.9193 170.44 94.8828 170.504 94.8828C170.577 94.8737 170.632 94.8919 170.668 94.9375C170.714 94.974 170.732 95.0332 170.723 95.1152C170.723 95.1973 170.686 95.2884 170.613 95.3887C170.44 95.6257 170.24 95.8717 170.012 96.127C169.784 96.373 169.538 96.6146 169.273 96.8516C169.018 97.0885 168.758 97.3118 168.494 97.5215C168.23 97.7311 167.975 97.9043 167.729 98.041C167.455 98.196 167.223 98.2734 167.031 98.2734C166.849 98.2734 166.667 98.1549 166.484 97.918C166.32 97.7083 166.238 97.485 166.238 97.248C166.247 97.002 166.302 96.6966 166.402 96.332C166.466 96.1042 166.553 95.8353 166.662 95.5254C166.781 95.2064 166.872 94.901 166.936 94.6094C167.008 94.3177 167.031 94.0716 167.004 93.8711C166.977 93.6615 166.858 93.5566 166.648 93.5566C166.503 93.5566 166.343 93.6068 166.17 93.707C166.006 93.8073 165.837 93.9395 165.664 94.1035C165.5 94.2585 165.34 94.4362 165.186 94.6367C165.031 94.8372 164.894 95.0332 164.775 95.2246C164.702 95.5801 164.63 95.931 164.557 96.2773C164.493 96.569 164.424 96.888 164.352 97.2344C164.288 97.5716 164.224 97.8724 164.16 98.1367C164.105 98.1823 164.046 98.2142 163.982 98.2324C163.919 98.2507 163.859 98.2598 163.805 98.2598C163.741 98.2598 163.677 98.2552 163.613 98.2461C163.54 98.2279 163.472 98.2005 163.408 98.1641C163.354 98.1276 163.299 98.0775 163.244 98.0137C163.189 97.959 163.148 97.8815 163.121 97.7812C163.531 96.0951 163.855 94.7415 164.092 93.7207C164.329 92.6999 164.511 91.9206 164.639 91.3828C164.785 90.7448 164.885 90.3027 164.939 90.0566C164.967 89.8835 164.99 89.7148 165.008 89.5508C165.026 89.4049 165.035 89.2546 165.035 89.0996C165.035 88.9447 165.021 88.8034 164.994 88.6758C165.067 88.6302 165.145 88.5938 165.227 88.5664C165.318 88.5391 165.404 88.5163 165.486 88.498C165.587 88.4707 165.687 88.4479 165.787 88.4297C165.887 88.4115 165.979 88.4023 166.061 88.4023C166.133 88.4023 166.202 88.4115 166.266 88.4297C166.329 88.4388 166.37 88.4661 166.389 88.5117C166.443 88.5573 166.466 88.6484 166.457 88.7852C166.457 88.9219 166.448 89.0632 166.43 89.209C166.393 89.3822 166.352 89.569 166.307 89.7695C166.115 90.5078 165.901 91.2279 165.664 91.9297C165.427 92.6224 165.208 93.3652 165.008 94.1582C165.126 93.9759 165.268 93.7891 165.432 93.5977C165.596 93.4062 165.773 93.2331 165.965 93.0781C166.165 92.9141 166.375 92.7819 166.594 92.6816C166.812 92.5723 167.045 92.5176 167.291 92.5176C167.419 92.5176 167.537 92.5404 167.646 92.5859C167.765 92.6224 167.865 92.6908 167.947 92.791C168.038 92.8822 168.107 93.0098 168.152 93.1738C168.198 93.3288 168.216 93.5247 168.207 93.7617C168.207 93.9076 168.189 94.0579 168.152 94.2129C168.125 94.3678 168.084 94.541 168.029 94.7324C167.975 94.9147 167.902 95.1198 167.811 95.3477C167.729 95.5755 167.628 95.8398 167.51 96.1406C167.428 96.3503 167.364 96.528 167.318 96.6738C167.273 96.8197 167.282 96.9473 167.346 97.0566C167.428 97.2025 167.587 97.2389 167.824 97.166C168.07 97.084 168.435 96.847 168.918 96.4551C169.027 96.3639 169.15 96.25 169.287 96.1133C169.424 95.9766 169.556 95.8398 169.684 95.7031C169.811 95.5573 169.93 95.4206 170.039 95.293C170.148 95.1654 170.24 95.0651 170.312 94.9922ZM173.498 97.7812C173.899 96.0951 174.218 94.7415 174.455 93.7207C174.701 92.6999 174.888 91.9206 175.016 91.3828C175.161 90.7448 175.262 90.3027 175.316 90.0566C175.344 89.8835 175.367 89.7148 175.385 89.5508C175.403 89.4049 175.412 89.2546 175.412 89.0996C175.412 88.9447 175.398 88.8034 175.371 88.6758C175.444 88.6302 175.521 88.5938 175.604 88.5664C175.695 88.5391 175.781 88.5163 175.863 88.498C175.964 88.4707 176.064 88.4479 176.164 88.4297C176.264 88.4115 176.355 88.4023 176.438 88.4023C176.51 88.4023 176.579 88.4115 176.643 88.4297C176.706 88.4388 176.747 88.4661 176.766 88.5117C176.82 88.5573 176.843 88.6484 176.834 88.7852C176.834 88.9219 176.825 89.0632 176.807 89.209C176.77 89.3822 176.729 89.569 176.684 89.7695C176.574 90.1615 176.424 90.7266 176.232 91.4648C176.068 92.0938 175.845 92.9505 175.562 94.0352C175.289 95.1198 174.943 96.487 174.523 98.1367C174.478 98.1823 174.423 98.2142 174.359 98.2324C174.296 98.2507 174.236 98.2598 174.182 98.2598C174.118 98.2598 174.049 98.2552 173.977 98.2461C173.913 98.2279 173.849 98.2005 173.785 98.1641C173.73 98.1276 173.676 98.0775 173.621 98.0137C173.566 97.959 173.525 97.8815 173.498 97.7812ZM180.361 92.9688C180.48 92.8776 180.594 92.8092 180.703 92.7637C180.822 92.709 180.926 92.6725 181.018 92.6543C181.118 92.627 181.218 92.6178 181.318 92.627C181.564 92.6452 181.715 92.7227 181.77 92.8594C181.833 92.9961 181.842 93.2148 181.797 93.5156C181.77 93.6706 181.715 93.8665 181.633 94.1035C181.551 94.3405 181.455 94.6322 181.346 94.9785C181.236 95.3158 181.118 95.7031 180.99 96.1406C180.872 96.5781 180.758 97.0703 180.648 97.6172C180.539 98.0638 180.421 98.5788 180.293 99.1621C180.184 99.6725 180.051 100.288 179.896 101.008C179.751 101.728 179.591 102.553 179.418 103.482C179.372 103.71 179.272 103.842 179.117 103.879C178.971 103.915 178.816 103.897 178.652 103.824C178.589 103.788 178.529 103.747 178.475 103.701C178.429 103.656 178.379 103.601 178.324 103.537C178.27 103.482 178.224 103.405 178.188 103.305C178.397 102.539 178.579 101.842 178.734 101.213C178.898 100.584 179.044 100.037 179.172 99.5723C179.309 99.0345 179.436 98.5514 179.555 98.123C179.6 97.9316 179.641 97.7448 179.678 97.5625C179.723 97.3711 179.769 97.1842 179.814 97.002C179.696 97.1934 179.568 97.3757 179.432 97.5488C179.295 97.722 179.145 97.8724 178.98 98C178.816 98.1276 178.639 98.2233 178.447 98.2871C178.265 98.36 178.074 98.3828 177.873 98.3555C177.381 98.2917 177.03 98.1094 176.82 97.8086C176.62 97.5078 176.533 97.1159 176.561 96.6328C176.57 96.4414 176.597 96.2318 176.643 96.0039C176.688 95.776 176.738 95.5573 176.793 95.3477C176.848 95.138 176.898 94.9512 176.943 94.7871C176.998 94.6139 177.039 94.4909 177.066 94.418C177.176 94.0716 177.253 93.7754 177.299 93.5293C177.354 93.2832 177.317 93.0781 177.189 92.9141C177.317 92.832 177.436 92.7773 177.545 92.75C177.663 92.7135 177.768 92.6862 177.859 92.668C177.96 92.6589 178.06 92.6589 178.16 92.668C178.406 92.7044 178.548 92.7956 178.584 92.9414C178.63 93.0872 178.616 93.306 178.543 93.5977C178.507 93.7526 178.447 93.9531 178.365 94.1992C178.283 94.4362 178.197 94.6823 178.105 94.9375C178.014 95.1927 177.932 95.4297 177.859 95.6484C177.786 95.8581 177.745 96.0085 177.736 96.0996C177.654 96.5098 177.65 96.8288 177.723 97.0566C177.796 97.2754 177.955 97.3848 178.201 97.3848C178.32 97.3848 178.452 97.3346 178.598 97.2344C178.743 97.125 178.889 96.9837 179.035 96.8105C179.19 96.6374 179.34 96.4414 179.486 96.2227C179.632 95.9948 179.764 95.7669 179.883 95.5391C180.01 95.3112 180.12 95.0879 180.211 94.8691C180.311 94.6504 180.384 94.4544 180.43 94.2812C180.493 93.944 180.535 93.6797 180.553 93.4883C180.571 93.2969 180.507 93.1237 180.361 92.9688ZM181.934 97.9316C181.87 98.0319 181.801 98.0957 181.729 98.123C181.646 98.1595 181.578 98.1641 181.523 98.1367C181.46 98.1185 181.419 98.0729 181.4 98C181.382 97.9271 181.4 97.8359 181.455 97.7266C181.482 97.6719 181.546 97.5488 181.646 97.3574C181.738 97.166 181.852 96.9382 181.988 96.6738C182.116 96.4004 182.257 96.1087 182.412 95.7988C182.567 95.4798 182.713 95.179 182.85 94.8965C182.995 94.6139 183.128 94.3633 183.246 94.1445C183.365 93.9167 183.451 93.7526 183.506 93.6523C183.406 93.5612 183.337 93.4974 183.301 93.4609C183.264 93.4154 183.237 93.3242 183.219 93.1875C183.201 93.069 183.228 92.9141 183.301 92.7227C183.374 92.5312 183.469 92.349 183.588 92.1758C183.706 91.9935 183.839 91.8385 183.984 91.7109C184.13 91.5833 184.271 91.5195 184.408 91.5195C184.663 91.5195 184.841 91.6016 184.941 91.7656C185.051 91.9297 185.115 92.0983 185.133 92.2715C185.151 92.39 185.142 92.5404 185.105 92.7227C185.069 92.9049 185.001 93.069 184.9 93.2148C184.928 93.2331 184.964 93.2559 185.01 93.2832C185.055 93.3014 185.128 93.3105 185.229 93.3105C185.374 93.3105 185.475 93.3014 185.529 93.2832C185.593 93.265 185.689 93.2559 185.816 93.2559C185.971 93.2559 186.099 93.2969 186.199 93.3789C186.299 93.4518 186.382 93.5475 186.445 93.666C186.509 93.7754 186.555 93.8984 186.582 94.0352C186.618 94.1628 186.641 94.2812 186.65 94.3906C186.678 94.6185 186.618 94.8555 186.473 95.1016C186.327 95.3477 186.149 95.6165 185.939 95.9082C185.812 96.0905 185.684 96.2956 185.557 96.5234C185.429 96.7513 185.374 96.9564 185.393 97.1387C185.411 97.2572 185.443 97.3529 185.488 97.4258C185.534 97.4987 185.661 97.5352 185.871 97.5352C186.026 97.5352 186.195 97.4805 186.377 97.3711C186.568 97.2526 186.76 97.1068 186.951 96.9336C187.152 96.7513 187.348 96.5553 187.539 96.3457C187.73 96.127 187.908 95.9173 188.072 95.7168C188.236 95.5072 188.373 95.3203 188.482 95.1562C188.601 94.9922 188.688 94.8737 188.742 94.8008C188.788 94.7279 188.847 94.6777 188.92 94.6504C188.993 94.623 189.057 94.623 189.111 94.6504C189.166 94.6777 189.198 94.7324 189.207 94.8145C189.225 94.8965 189.193 95.0059 189.111 95.1426C189.057 95.2337 188.961 95.3796 188.824 95.5801C188.697 95.7806 188.537 96.0039 188.346 96.25C188.163 96.4961 187.958 96.7513 187.73 97.0156C187.503 97.2708 187.261 97.5078 187.006 97.7266C186.76 97.9362 186.509 98.1094 186.254 98.2461C186.008 98.3828 185.771 98.4512 185.543 98.4512C185.306 98.4512 185.11 98.4056 184.955 98.3145C184.8 98.2233 184.673 98.1139 184.572 97.9863C184.481 97.8496 184.413 97.7038 184.367 97.5488C184.331 97.3848 184.317 97.2344 184.326 97.0977C184.335 96.9883 184.363 96.8743 184.408 96.7559C184.463 96.6283 184.522 96.5007 184.586 96.373C184.659 96.2363 184.732 96.1042 184.805 95.9766C184.887 95.8398 184.96 95.7077 185.023 95.5801C185.178 95.3158 185.301 95.0924 185.393 94.9102C185.493 94.7188 185.543 94.5592 185.543 94.4316C185.543 94.3496 185.525 94.2767 185.488 94.2129C185.452 94.1491 185.393 94.1172 185.311 94.1172C185.256 94.1172 185.215 94.1217 185.188 94.1309C185.169 94.1309 185.146 94.1309 185.119 94.1309C185.101 94.1309 185.069 94.1354 185.023 94.1445C184.987 94.1445 184.928 94.1445 184.846 94.1445C184.727 94.1445 184.627 94.1263 184.545 94.0898C184.463 94.0534 184.385 94.026 184.312 94.0078C184.276 94.0716 184.194 94.2083 184.066 94.418C183.939 94.6276 183.788 94.8737 183.615 95.1562C183.451 95.4388 183.273 95.735 183.082 96.0449C182.9 96.3548 182.727 96.6465 182.562 96.9199C182.398 97.1842 182.262 97.4121 182.152 97.6035C182.034 97.7858 181.961 97.8952 181.934 97.9316ZM191.148 89.9473C191.121 90.0475 191.066 90.1478 190.984 90.248C190.911 90.3392 190.825 90.4167 190.725 90.4805C190.633 90.5352 190.538 90.5716 190.438 90.5898C190.337 90.6081 190.255 90.5898 190.191 90.5352C190 90.3893 189.9 90.2344 189.891 90.0703C189.882 89.8971 189.923 89.7376 190.014 89.5918C190.105 89.4368 190.219 89.3092 190.355 89.209C190.492 89.0996 190.611 89.0358 190.711 89.0176C190.811 88.9993 190.893 89.0221 190.957 89.0859C191.03 89.1406 191.085 89.2181 191.121 89.3184C191.158 89.4095 191.176 89.5143 191.176 89.6328C191.185 89.7513 191.176 89.8561 191.148 89.9473ZM189.262 92.8594C189.307 92.8047 189.394 92.7591 189.521 92.7227C189.649 92.6862 189.781 92.6589 189.918 92.6406C190.055 92.6133 190.178 92.5996 190.287 92.5996C190.406 92.5905 190.474 92.5905 190.492 92.5996C190.501 92.6087 190.479 92.7044 190.424 92.8867C190.369 93.069 190.301 93.2832 190.219 93.5293C190.137 93.7754 190.05 94.0306 189.959 94.2949C189.868 94.5501 189.799 94.7598 189.754 94.9238C189.708 95.0879 189.654 95.2747 189.59 95.4844C189.526 95.6849 189.467 95.8854 189.412 96.0859C189.367 96.2773 189.335 96.4596 189.316 96.6328C189.298 96.806 189.312 96.9382 189.357 97.0293C189.403 97.1387 189.453 97.2161 189.508 97.2617C189.562 97.2982 189.622 97.3164 189.686 97.3164C189.868 97.3164 190.096 97.2161 190.369 97.0156C190.652 96.8151 190.934 96.5781 191.217 96.3047C191.508 96.0221 191.777 95.7396 192.023 95.457C192.27 95.1654 192.452 94.9329 192.57 94.7598C192.643 94.6686 192.716 94.6094 192.789 94.582C192.871 94.5547 192.935 94.5592 192.98 94.5957C193.035 94.6322 193.062 94.6914 193.062 94.7734C193.072 94.8555 193.044 94.9512 192.98 95.0605C192.835 95.3158 192.62 95.6211 192.338 95.9766C192.055 96.3229 191.755 96.6602 191.436 96.9883C191.117 97.3073 190.802 97.5807 190.492 97.8086C190.191 98.0365 189.945 98.1549 189.754 98.1641C189.599 98.1732 189.444 98.1458 189.289 98.082C189.143 98.0273 189.007 97.9499 188.879 97.8496C188.76 97.7402 188.66 97.6172 188.578 97.4805C188.496 97.3346 188.451 97.1842 188.441 97.0293C188.414 96.8014 188.414 96.4915 188.441 96.0996C188.469 95.6986 188.519 95.293 188.592 94.8828C188.665 94.4635 188.756 94.0671 188.865 93.6934C188.984 93.3197 189.116 93.0417 189.262 92.8594ZM194.307 97.5352C194.589 97.5352 194.899 97.4258 195.236 97.207C195.583 96.9792 195.915 96.7148 196.234 96.4141C196.562 96.1133 196.859 95.8079 197.123 95.498C197.396 95.179 197.602 94.9238 197.738 94.7324C197.82 94.6139 197.898 94.5456 197.971 94.5273C198.044 94.5 198.098 94.5091 198.135 94.5547C198.171 94.6003 198.185 94.6732 198.176 94.7734C198.167 94.8646 198.126 94.9694 198.053 95.0879C197.989 95.1973 197.88 95.3568 197.725 95.5664C197.579 95.7669 197.401 95.9902 197.191 96.2363C196.991 96.4733 196.758 96.7194 196.494 96.9746C196.239 97.2207 195.97 97.4486 195.688 97.6582C195.405 97.8587 195.113 98.0228 194.812 98.1504C194.512 98.2871 194.215 98.3555 193.924 98.3555C193.523 98.3555 193.186 98.278 192.912 98.123C192.648 97.9772 192.434 97.7858 192.27 97.5488C192.115 97.3118 192.005 97.0521 191.941 96.7695C191.878 96.4779 191.846 96.1908 191.846 95.9082C191.846 95.6257 191.91 95.2747 192.037 94.8555C192.165 94.4362 192.352 94.0352 192.598 93.6523C192.853 93.2604 193.172 92.9277 193.555 92.6543C193.938 92.3717 194.389 92.2305 194.908 92.2305C195.2 92.2305 195.446 92.3307 195.646 92.5312C195.856 92.7318 195.956 93.0052 195.947 93.3516C195.947 93.5156 195.92 93.6797 195.865 93.8438C195.811 93.9987 195.738 94.14 195.646 94.2676C195.555 94.3861 195.446 94.4818 195.318 94.5547C195.2 94.6276 195.068 94.6641 194.922 94.6641C194.803 94.6641 194.712 94.623 194.648 94.541C194.594 94.4499 194.557 94.3496 194.539 94.2402C194.53 94.1217 194.53 94.0078 194.539 93.8984C194.557 93.7891 194.576 93.7161 194.594 93.6797C194.639 93.6159 194.689 93.5703 194.744 93.543C194.799 93.5156 194.863 93.4837 194.936 93.4473C194.99 93.4199 195.031 93.3789 195.059 93.3242C195.095 93.2695 195.113 93.2103 195.113 93.1465C195.113 93.0827 195.095 93.028 195.059 92.9824C195.022 92.9368 194.963 92.9141 194.881 92.9141C194.799 92.9141 194.648 92.9824 194.43 93.1191C194.22 93.2467 194.001 93.4427 193.773 93.707C193.555 93.9622 193.359 94.2858 193.186 94.6777C193.012 95.0697 192.921 95.5254 192.912 96.0449C192.903 96.3457 192.944 96.5918 193.035 96.7832C193.126 96.9746 193.24 97.125 193.377 97.2344C193.514 97.3438 193.664 97.4212 193.828 97.4668C193.992 97.5124 194.152 97.5352 194.307 97.5352Z" fill="#534439"/>
<defs>
<linearGradient id="paint0_linear_12_17" x1="93.5" y1="94" x2="20.5" y2="48" gradientUnits="userSpaceOnUse">
<stop stop-color="#F57C00"/>
<stop offset="1" stop-color="#FFA726"/>
</linearGradient>
<clipPath id="clip0_12_17">
<rect width="94" height="94" fill="white" transform="translate(0 47) rotate(-30)"/>
</clipPath>
</defs>
</svg>
