<svg width="415" height="179" viewBox="0 0 415 179" fill="none" xmlns="http://www.w3.org/2000/svg">
<path d="M50.0029 36.6505C27.0732 51.9736 17.9593 69.4124 23.5487 87.3956C26.7619 97.7488 33.8467 106.603 47.5303 117.355C51.5935 120.569 61.8111 127.409 66.9798 130.398C84.5895 140.561 102.873 147.304 113.048 147.345C117.764 147.359 121.64 146.121 123.981 143.858C128.642 139.344 132.097 130.143 134.146 116.723C137.645 93.9943 136.061 65.7269 130.385 48.7646C127.012 38.7976 121.754 31.2721 114.763 26.4529C111.298 24.07 108.517 22.8215 104.201 21.6652C93.8177 18.9213 82.5848 20.4628 67.9466 26.7055C64.2966 28.2827 54.1534 33.9019 50.0029 36.6505Z" fill="url(#paint0_linear_3_369)"/>
<path d="M62.1546 105.957C59.0233 105.957 56.3417 105.441 54.1098 104.408C51.9112 103.343 50.1956 101.811 48.9631 99.8126C47.7638 97.7812 47.1143 95.3335 47.0143 92.4695C46.981 91.0375 46.9644 89.5056 46.9644 87.8737C46.9644 86.2419 46.981 84.6934 47.0143 83.2281C47.1143 80.4307 47.7638 78.0496 48.9631 76.0847C50.1956 74.1199 51.9278 72.6213 54.1598 71.5889C56.425 70.5232 59.0899 69.9904 62.1546 69.9904C64.6197 69.9904 66.785 70.3068 68.6505 70.9395C70.5159 71.5723 72.0816 72.4048 73.3475 73.4372C74.6133 74.4363 75.5794 75.5352 76.2456 76.7341C76.9118 77.933 77.2616 79.0819 77.2949 80.1809C77.2949 80.4806 77.195 80.747 76.9951 80.9802C76.7953 81.18 76.5288 81.2799 76.1956 81.2799H69.9996C69.6665 81.2799 69.4 81.2133 69.2001 81.0801C69.0336 80.9469 68.8837 80.747 68.7504 80.4806C68.5172 79.8812 68.1341 79.2817 67.6011 78.6823C67.1015 78.0496 66.4186 77.5167 65.5525 77.0838C64.6863 76.6509 63.5537 76.4344 62.1546 76.4344C60.056 76.4344 58.3904 76.9839 57.1578 78.0829C55.9586 79.1818 55.309 80.9802 55.2091 83.4778C55.1091 86.3418 55.1091 89.2558 55.2091 92.2197C55.309 94.8173 55.9753 96.6822 57.2078 97.8145C58.4737 98.9468 60.1559 99.5129 62.2546 99.5129C63.6204 99.5129 64.8362 99.2798 65.9022 98.8135C67.0015 98.314 67.8676 97.5481 68.5006 96.5157C69.1335 95.4833 69.45 94.1679 69.45 92.5694V91.3205H64.0034C63.6703 91.3205 63.3872 91.204 63.154 90.9709C62.9208 90.7044 62.8042 90.4047 62.8042 90.0717V86.8747C62.8042 86.5083 62.9208 86.2086 63.154 85.9755C63.3872 85.7424 63.6703 85.6258 64.0034 85.6258H76.2456C76.612 85.6258 76.9118 85.7424 77.145 85.9755C77.3782 86.2086 77.4948 86.5083 77.4948 86.8747V92.3196C77.4948 95.1836 76.8619 97.6313 75.596 99.6628C74.3635 101.694 72.5813 103.259 70.2494 104.358C67.9509 105.424 65.2526 105.957 62.1546 105.957ZM97.8798 105.957C94.9484 105.957 92.3833 105.474 90.1847 104.508C87.9861 103.509 86.2872 101.994 85.088 99.9625C83.8888 97.8977 83.2891 95.2835 83.2891 92.1198V71.7388C83.2891 71.3724 83.4057 71.0727 83.6389 70.8396C83.8721 70.6065 84.1719 70.4899 84.5384 70.4899H89.9849C90.3513 70.4899 90.6511 70.6065 90.8843 70.8396C91.1175 71.0727 91.2341 71.3724 91.2341 71.7388V92.0698C91.2341 94.5342 91.817 96.3658 92.9829 97.5647C94.1489 98.7636 95.7812 99.363 97.8798 99.363C99.9452 99.363 101.561 98.7636 102.727 97.5647C103.893 96.3658 104.476 94.5342 104.476 92.0698V71.7388C104.476 71.3724 104.592 71.0727 104.825 70.8396C105.092 70.6065 105.392 70.4899 105.725 70.4899H111.221C111.554 70.4899 111.838 70.6065 112.071 70.8396C112.304 71.0727 112.42 71.3724 112.42 71.7388V92.1198C112.42 95.2835 111.821 97.8977 110.622 99.9625C109.422 101.994 107.74 103.509 105.575 104.508C103.41 105.474 100.845 105.957 97.8798 105.957ZM120.753 105.457C120.386 105.457 120.086 105.341 119.853 105.108C119.62 104.875 119.503 104.575 119.503 104.209V71.7388C119.503 71.3724 119.62 71.0727 119.853 70.8396C120.086 70.6065 120.386 70.4899 120.753 70.4899H126.399C126.765 70.4899 127.065 70.6065 127.298 70.8396C127.532 71.0727 127.648 71.3724 127.648 71.7388V104.209C127.648 104.575 127.532 104.875 127.298 105.108C127.065 105.341 126.765 105.457 126.399 105.457H120.753Z" fill="white"/>
<path d="M157.158 105.457C156.791 105.457 156.492 105.341 156.258 105.108C156.025 104.875 155.909 104.575 155.909 104.209V77.4335H146.815C146.481 77.4335 146.198 77.3169 145.965 77.0838C145.732 76.8507 145.615 76.5676 145.615 76.2346V71.7388C145.615 71.3724 145.732 71.0727 145.965 70.8396C146.198 70.6065 146.481 70.4899 146.815 70.4899H172.998C173.364 70.4899 173.664 70.6065 173.897 70.8396C174.13 71.0727 174.247 71.3724 174.247 71.7388V76.2346C174.247 76.5676 174.13 76.8507 173.897 77.0838C173.664 77.3169 173.364 77.4335 172.998 77.4335H163.954V104.209C163.954 104.575 163.837 104.875 163.604 105.108C163.371 105.341 163.071 105.457 162.704 105.457H157.158ZM176.726 105.457C176.393 105.457 176.11 105.341 175.876 105.108C175.643 104.875 175.527 104.575 175.527 104.209V80.7304C175.527 80.3974 175.643 80.1143 175.876 79.8812C176.11 79.6148 176.393 79.4816 176.726 79.4816H181.623C181.956 79.4816 182.239 79.6148 182.472 79.8812C182.739 80.1143 182.872 80.3974 182.872 80.7304V82.7285C183.705 81.6962 184.721 80.8969 185.92 80.3308C187.153 79.7646 188.568 79.4816 190.167 79.4816H192.316C192.649 79.4816 192.932 79.5981 193.165 79.8312C193.399 80.0644 193.515 80.3641 193.515 80.7304V85.0264C193.515 85.3927 193.399 85.6924 193.165 85.9256C192.932 86.1587 192.649 86.2752 192.316 86.2752H187.919C186.453 86.2752 185.304 86.6915 184.471 87.5241C183.638 88.3233 183.222 89.4723 183.222 90.9709V104.209C183.222 104.575 183.105 104.875 182.872 105.108C182.639 105.341 182.339 105.457 181.973 105.457H176.726ZM204.447 105.957C202.682 105.957 201.099 105.624 199.7 104.958C198.301 104.258 197.185 103.326 196.352 102.16C195.519 100.995 195.103 99.6961 195.103 98.2641C195.103 95.8996 196.052 94.0347 197.951 92.6693C199.883 91.3039 202.415 90.3714 205.546 89.8719L212.092 88.9228V88.0236C212.092 86.7248 211.792 85.7257 211.193 85.0264C210.593 84.3271 209.544 83.9774 208.045 83.9774C206.945 83.9774 206.063 84.1938 205.396 84.6268C204.73 85.0597 204.214 85.6258 203.847 86.3252C203.581 86.7581 203.198 86.9746 202.698 86.9746H197.951C197.585 86.9746 197.302 86.8747 197.102 86.6749C196.902 86.4417 196.819 86.1753 196.852 85.8756C196.852 85.3095 197.068 84.6434 197.502 83.8775C197.935 83.1115 198.601 82.3622 199.5 81.6296C200.4 80.8636 201.549 80.2309 202.948 79.7313C204.347 79.2318 206.063 78.982 208.095 78.982C210.193 78.982 211.992 79.2318 213.491 79.7313C214.99 80.2309 216.19 80.9302 217.089 81.8294C217.988 82.7285 218.655 83.7776 219.088 84.9764C219.521 86.142 219.737 87.4075 219.737 88.7729V104.209C219.737 104.575 219.621 104.875 219.387 105.108C219.154 105.341 218.855 105.457 218.488 105.457H213.591C213.258 105.457 212.975 105.341 212.742 105.108C212.509 104.875 212.392 104.575 212.392 104.209V102.36C211.959 102.993 211.376 103.592 210.643 104.159C209.91 104.691 209.027 105.124 207.995 105.457C206.995 105.79 205.813 105.957 204.447 105.957ZM206.446 100.762C207.545 100.762 208.528 100.529 209.394 100.062C210.26 99.5962 210.943 98.8802 211.443 97.9144C211.942 96.9486 212.192 95.7331 212.192 94.2678V93.4186L207.545 94.1679C205.746 94.4676 204.43 94.9172 203.598 95.5166C202.765 96.1161 202.348 96.8487 202.348 97.7146C202.348 98.3473 202.532 98.8968 202.898 99.3631C203.298 99.8293 203.814 100.179 204.447 100.412C205.08 100.645 205.746 100.762 206.446 100.762ZM226.987 105.457C226.654 105.457 226.371 105.341 226.137 105.108C225.904 104.875 225.788 104.575 225.788 104.209V80.7304C225.788 80.3641 225.904 80.0644 226.137 79.8312C226.371 79.5981 226.654 79.4816 226.987 79.4816H231.884C232.25 79.4816 232.55 79.5981 232.783 79.8312C233.016 80.0644 233.133 80.3641 233.133 80.7304V82.6786C233.999 81.6129 235.115 80.7304 236.481 80.031C237.847 79.3317 239.512 78.982 241.478 78.982C243.443 78.982 245.158 79.4316 246.624 80.3308C248.123 81.1966 249.289 82.4788 250.122 84.1772C250.988 85.8423 251.421 87.8737 251.421 90.2715V104.209C251.421 104.575 251.288 104.875 251.021 105.108C250.788 105.341 250.505 105.457 250.172 105.457H244.875C244.509 105.457 244.209 105.341 243.976 105.108C243.743 104.875 243.626 104.575 243.626 104.209V90.5712C243.626 88.8062 243.193 87.4408 242.327 86.475C241.494 85.476 240.262 84.9764 238.629 84.9764C237.064 84.9764 235.814 85.476 234.882 86.475C233.949 87.4408 233.483 88.8062 233.483 90.5712V104.209C233.483 104.575 233.366 104.875 233.133 105.108C232.9 105.341 232.617 105.457 232.283 105.457H226.987ZM267.651 105.957C265.586 105.957 263.803 105.724 262.304 105.258C260.839 104.758 259.639 104.159 258.707 103.459C257.807 102.76 257.124 102.061 256.658 101.361C256.225 100.629 255.992 100.012 255.959 99.5129C255.925 99.1466 256.042 98.8469 256.308 98.6137C256.575 98.3806 256.841 98.2641 257.108 98.2641H261.955C262.055 98.2641 262.155 98.2807 262.254 98.314C262.354 98.3473 262.454 98.4306 262.554 98.5638C262.987 98.8635 263.437 99.2132 263.903 99.6128C264.37 99.9791 264.903 100.296 265.502 100.562C266.135 100.828 266.918 100.962 267.851 100.962C268.95 100.962 269.883 100.745 270.649 100.312C271.415 99.8459 271.798 99.1965 271.798 98.364C271.798 97.7645 271.615 97.265 271.249 96.8654C270.916 96.4657 270.266 96.0994 269.3 95.7664C268.334 95.4334 266.902 95.067 265.003 94.6674C263.204 94.2678 261.672 93.735 260.406 93.0689C259.14 92.4029 258.19 91.5703 257.557 90.5712C256.925 89.5389 256.608 88.3067 256.608 86.8747C256.608 85.5759 257.008 84.3271 257.807 83.1282C258.64 81.9293 259.856 80.9469 261.455 80.1809C263.054 79.3817 265.053 78.982 267.451 78.982C269.283 78.982 270.882 79.2151 272.248 79.6814C273.647 80.1143 274.813 80.6804 275.746 81.3798C276.679 82.0458 277.378 82.7452 277.844 83.4778C278.344 84.1772 278.611 84.7933 278.644 85.3261C278.677 85.6591 278.577 85.9422 278.344 86.1753C278.111 86.4084 277.844 86.525 277.545 86.525H273.098C272.931 86.525 272.781 86.5084 272.648 86.475C272.515 86.4084 272.398 86.3252 272.298 86.2253C271.898 85.9589 271.482 85.6591 271.049 85.3261C270.649 84.9598 270.166 84.6434 269.6 84.377C269.033 84.1106 268.301 83.9774 267.401 83.9774C266.302 83.9774 265.452 84.2271 264.853 84.7267C264.287 85.1929 264.003 85.7924 264.003 86.525C264.003 86.9912 264.153 87.4242 264.453 87.8238C264.753 88.2234 265.369 88.5897 266.302 88.9228C267.235 89.2558 268.65 89.6055 270.549 89.9718C272.814 90.3714 274.613 90.9709 275.946 91.7701C277.278 92.5694 278.228 93.5018 278.794 94.5675C279.394 95.5999 279.693 96.7155 279.693 97.9144C279.693 99.4796 279.227 100.878 278.294 102.11C277.361 103.309 275.996 104.258 274.197 104.958C272.431 105.624 270.249 105.957 267.651 105.957ZM285.739 114.949C285.373 114.949 285.073 114.832 284.84 114.599C284.607 114.366 284.49 114.066 284.49 113.7V80.7304C284.49 80.3641 284.607 80.0644 284.84 79.8312C285.073 79.5981 285.373 79.4816 285.739 79.4816H290.486C290.853 79.4816 291.153 79.5981 291.386 79.8312C291.619 80.0644 291.736 80.3641 291.736 80.7304V82.6286C292.535 81.563 293.568 80.6971 294.834 80.031C296.099 79.3317 297.682 78.982 299.581 78.982C301.313 78.982 302.812 79.2651 304.078 79.8312C305.377 80.3641 306.46 81.1467 307.326 82.179C308.225 83.1781 308.908 84.3937 309.374 85.8257C309.874 87.2577 310.157 88.8728 310.224 90.6711C310.257 91.3039 310.274 91.9033 310.274 92.4695C310.274 93.0356 310.257 93.6517 310.224 94.3177C310.19 96.0162 309.924 97.5814 309.424 99.0134C308.958 100.445 308.275 101.678 307.376 102.71C306.476 103.742 305.377 104.542 304.078 105.108C302.812 105.674 301.313 105.957 299.581 105.957C297.882 105.957 296.399 105.657 295.133 105.058C293.901 104.425 292.885 103.576 292.085 102.51V113.7C292.085 114.066 291.969 114.366 291.736 114.599C291.502 114.832 291.219 114.949 290.886 114.949H285.739ZM297.332 99.9625C298.598 99.9625 299.597 99.6961 300.33 99.1632C301.063 98.5971 301.579 97.8644 301.879 96.9653C302.212 96.0661 302.412 95.0837 302.479 94.018C302.545 92.9856 302.545 91.9533 302.479 90.9209C302.412 89.8552 302.212 88.8728 301.879 87.9737C301.579 87.0745 301.063 86.3585 300.33 85.8257C299.597 85.2595 298.598 84.9764 297.332 84.9764C296.099 84.9764 295.1 85.2595 294.334 85.8257C293.568 86.3918 293.018 87.1078 292.685 87.9737C292.352 88.8395 292.152 89.772 292.085 90.7711C292.052 91.3705 292.035 91.9866 292.035 92.6193C292.035 93.2521 292.052 93.8848 292.085 94.5176C292.119 95.45 292.319 96.3325 292.685 97.1651C293.085 97.9644 293.651 98.6304 294.384 99.1632C295.15 99.6961 296.133 99.9625 297.332 99.9625ZM327.467 105.957C324.702 105.957 322.387 105.507 320.521 104.608C318.656 103.676 317.223 102.36 316.224 100.662C315.258 98.9634 314.725 96.9819 314.625 94.7174C314.592 94.0513 314.575 93.302 314.575 92.4695C314.575 91.6036 314.592 90.8543 314.625 90.2216C314.725 87.9237 315.291 85.9422 316.324 84.2771C317.357 82.5787 318.806 81.2799 320.671 80.3807C322.537 79.4483 324.802 78.982 327.467 78.982C330.099 78.982 332.347 79.4483 334.213 80.3807C336.078 81.2799 337.527 82.5787 338.56 84.2771C339.592 85.9422 340.159 87.9237 340.259 90.2216C340.325 90.8543 340.359 91.6036 340.359 92.4695C340.359 93.302 340.325 94.0513 340.259 94.7174C340.159 96.9819 339.609 98.9634 338.61 100.662C337.644 102.36 336.228 103.676 334.362 104.608C332.497 105.507 330.198 105.957 327.467 105.957ZM327.467 100.462C329.099 100.462 330.332 99.9625 331.165 98.9634C331.997 97.9311 332.447 96.4324 332.514 94.4676C332.547 93.9681 332.564 93.302 332.564 92.4695C332.564 91.6369 332.547 90.9709 332.514 90.4713C332.447 88.5398 331.997 87.0578 331.165 86.0255C330.332 84.9931 329.099 84.4769 327.467 84.4769C325.835 84.4769 324.585 84.9931 323.719 86.0255C322.886 87.0578 322.437 88.5398 322.37 90.4713C322.337 90.9709 322.32 91.6369 322.32 92.4695C322.32 93.302 322.337 93.9681 322.37 94.4676C322.437 96.4324 322.886 97.9311 323.719 98.9634C324.585 99.9625 325.835 100.462 327.467 100.462Z" fill="#3F3D56"/>
<path d="M398.855 76.0651C398.43 76.5888 397.88 76.9656 397.28 77.1903L397.413 79.6228L395.074 79.7448L394.947 77.3194C394.457 77.1797 393.975 76.955 393.551 76.61C391.934 75.2973 391.692 72.9161 393.006 71.3027C394.324 69.6893 396.695 69.4399 398.315 70.7578C399.932 72.074 400.174 74.4482 398.855 76.0651" fill="#3F3D56"/>
<path d="M386.253 76.0651C385.825 76.5888 385.279 76.9656 384.677 77.1903L384.808 79.6228L382.471 79.7448L382.345 77.3194C381.854 77.1797 381.371 76.955 380.948 76.61C379.331 75.2973 379.087 72.9161 380.401 71.3027C381.719 69.6893 384.09 69.4399 385.708 70.7578C387.329 72.074 387.569 74.4482 386.253 76.0651" fill="#3F3D56"/>
<path d="M373.461 75.4779C372.974 75.9502 372.385 76.258 371.763 76.4102L371.612 78.8462L369.275 78.6905L369.431 76.2687C368.96 76.0741 368.509 75.7945 368.129 75.4053C366.673 73.9122 366.708 71.5204 368.2 70.0662C369.696 68.6191 372.079 68.6456 373.537 70.1423C374.989 71.6389 374.958 74.0219 373.461 75.4779" fill="#3F3D56"/>
<path d="M398.855 109.853C398.43 109.331 397.88 108.954 397.28 108.73L397.413 106.294L395.074 106.177L394.947 108.599C394.457 108.737 393.975 108.965 393.551 109.308C391.934 110.624 391.692 113 393.006 114.619C394.324 116.232 396.695 116.476 398.315 115.16C399.932 113.848 400.174 111.473 398.855 109.853" fill="#3F3D56"/>
<path d="M386.253 109.853C385.825 109.331 385.279 108.954 384.677 108.73L384.808 106.294L382.471 106.177L382.345 108.599C381.854 108.737 381.371 108.965 380.948 109.308C379.331 110.624 379.087 113 380.401 114.619C381.719 116.232 384.09 116.476 385.708 115.16C387.329 113.848 387.569 111.473 386.253 109.853" fill="#3F3D56"/>
<path d="M373.567 110.697C373.114 110.196 372.546 109.85 371.932 109.657L371.938 107.217L369.596 107.224L369.599 109.65C369.114 109.812 368.647 110.067 368.242 110.43C366.694 111.829 366.579 114.217 367.975 115.762C369.376 117.303 371.757 117.423 373.305 116.024C374.851 114.624 374.97 112.241 373.567 110.697" fill="#3F3D56"/>
<path d="M394.456 97.8036C394.456 96.4635 395.533 95.3763 396.859 95.3763C398.188 95.3763 399.264 96.4635 399.264 97.8036C399.264 99.1419 398.188 100.227 396.859 100.227C395.533 100.227 394.456 99.1419 394.456 97.8036ZM382.449 97.8036C382.449 96.4635 383.526 95.3763 384.852 95.3763C386.181 95.3763 387.257 96.4635 387.257 97.8036C387.257 99.1419 386.181 100.227 384.852 100.227C383.526 100.227 382.449 99.1419 382.449 97.8036ZM370.441 97.8036C370.441 96.4635 371.519 95.3763 372.845 95.3763C374.174 95.3763 375.249 96.4635 375.249 97.8036C375.249 99.1419 374.174 100.227 372.845 100.227C371.519 100.227 370.441 99.1419 370.441 97.8036ZM394.456 87.7636C394.456 86.4253 395.533 85.3398 396.859 85.3398C398.188 85.3398 399.264 86.4253 399.264 87.7636C399.264 89.1054 398.188 90.191 396.859 90.191C395.533 90.191 394.456 89.1054 394.456 87.7636ZM382.449 87.7636C382.449 86.4253 383.526 85.3398 384.852 85.3398C386.181 85.3398 387.257 86.4253 387.257 87.7636C387.257 89.1054 386.181 90.191 384.852 90.191C383.526 90.191 382.449 89.1054 382.449 87.7636ZM370.441 87.7636C370.441 86.4253 371.519 85.3398 372.845 85.3398C374.174 85.3398 375.249 86.4253 375.249 87.7636C375.249 89.1054 374.174 90.191 372.845 90.191C371.519 90.191 370.441 89.1054 370.441 87.7636ZM409.027 109L415 99.2613L415 86.7387L409.027 77C399.149 81.4062 357.798 77 357.798 77L350.448 82.5662L347 82.5662L347 91.8392L347 94.1574L347 103.434L350.448 103.434L357.798 109C357.798 109 399.149 104.594 409.027 109Z" fill="#F57C00"/>
<defs>
<linearGradient id="paint0_linear_3_369" x1="129.778" y1="130.434" x2="28.4707" y2="66.5781" gradientUnits="userSpaceOnUse">
<stop stop-color="#F57C00"/>
<stop offset="1" stop-color="#FFA726"/>
</linearGradient>
</defs>
</svg>
