<svg width="115" height="115" viewBox="0 0 115 115" fill="none" xmlns="http://www.w3.org/2000/svg">
<path d="M91.695 69.0686L77.8234 71.7604V36.8616L92.3859 34.0357C93.3492 33.8487 93.9936 32.8307 93.8251 31.7622C93.6567 30.6934 92.7372 29.9794 91.7758 30.1656L77.8234 32.8733V16.8458C77.8234 15.761 77.0305 14.8814 76.0527 14.8814C75.0748 14.8814 74.282 15.761 74.282 16.8458V33.5604L43.3476 39.5633V24.3141C43.3476 23.2293 42.5548 22.3497 41.5769 22.3497C40.5991 22.3497 39.8062 23.2293 39.8062 24.3141V40.2505L25.3245 43.0608C24.3612 43.2478 23.7168 44.2658 23.8853 45.3343C24.0358 46.2886 24.7832 46.9607 25.6275 46.9607C25.7289 46.9607 25.8315 46.951 25.9346 46.931L39.8062 44.2392V79.1382L25.2437 81.9641C24.2804 82.1511 23.636 83.1691 23.8045 84.2376C23.9551 85.1919 24.7025 85.864 25.5468 85.864C25.6481 85.864 25.7508 85.8543 25.8538 85.8344L39.8062 83.1267V99.1542C39.8062 100.239 40.5991 101.119 41.5769 101.119C42.5548 101.119 43.3476 100.239 43.3476 99.1542V82.4394L74.282 76.4365V91.6857C74.282 92.7705 75.0748 93.6501 76.0527 93.6501C77.0305 93.6501 77.8234 92.7705 77.8234 91.6857V75.7493L92.3052 72.939C93.2684 72.752 93.9128 71.734 93.7443 70.6655C93.576 69.5963 92.6564 68.8822 91.695 69.0686ZM43.3476 78.4509V43.5519L74.282 37.5489V72.4479L43.3476 78.4509Z" fill="#40514E" stroke="#40514E" stroke-width="3"/>
</svg>
